<mxfile host="app.diagrams.net" modified="2024-04-29T15:15:34.472Z" agent="Mozilla/5.0 (Windows NT 10.0; Win64; x64) AppleWebKit/537.36 (KHTML, like Gecko) Chrome/124.0.0.0 Safari/537.36" etag="AGeQpndHEyHRRQFRppub" version="24.3.1" type="device">
  <diagram name="Page-1" id="bcLdS_booUP4j_d-XeCp">
    <mxGraphModel dx="1351" dy="758" grid="1" gridSize="10" guides="1" tooltips="1" connect="1" arrows="1" fold="1" page="1" pageScale="1" pageWidth="850" pageHeight="1100" math="0" shadow="0">
      <root>
        <mxCell id="0" />
        <mxCell id="1" parent="0" />
        <mxCell id="TbkNwsjUBg2xAuDk_8zu-92" style="edgeStyle=orthogonalEdgeStyle;rounded=0;orthogonalLoop=1;jettySize=auto;html=1;entryX=1;entryY=0.5;entryDx=0;entryDy=0;" parent="1" source="TbkNwsjUBg2xAuDk_8zu-11" target="TbkNwsjUBg2xAuDk_8zu-33" edge="1">
          <mxGeometry relative="1" as="geometry">
            <Array as="points">
              <mxPoint x="960" y="569" />
              <mxPoint x="960" y="439" />
            </Array>
          </mxGeometry>
        </mxCell>
        <mxCell id="TbkNwsjUBg2xAuDk_8zu-11" value="YOLOv8" style="sketch=0;points=[[0,0,0],[0.25,0,0],[0.5,0,0],[0.75,0,0],[1,0,0],[0,1,0],[0.25,1,0],[0.5,1,0],[0.75,1,0],[1,1,0],[0,0.25,0],[0,0.5,0],[0,0.75,0],[1,0.25,0],[1,0.5,0],[1,0.75,0]];outlineConnect=0;fontColor=#232F3E;fillColor=#01A88D;strokeColor=#ffffff;dashed=0;verticalLabelPosition=bottom;verticalAlign=top;align=center;html=1;fontSize=12;fontStyle=0;aspect=fixed;shape=mxgraph.aws4.resourceIcon;resIcon=mxgraph.aws4.machine_learning;" parent="1" vertex="1">
          <mxGeometry x="811" y="530" width="78" height="78" as="geometry" />
        </mxCell>
        <mxCell id="TbkNwsjUBg2xAuDk_8zu-14" value="Elasticsearch" style="sketch=0;points=[[0,0,0],[0.25,0,0],[0.5,0,0],[0.75,0,0],[1,0,0],[0,1,0],[0.25,1,0],[0.5,1,0],[0.75,1,0],[1,1,0],[0,0.25,0],[0,0.5,0],[0,0.75,0],[1,0.25,0],[1,0.5,0],[1,0.75,0]];outlineConnect=0;fontColor=#232F3E;fillColor=#0d0d0d;strokeColor=#ffffff;dashed=0;verticalLabelPosition=top;verticalAlign=bottom;align=center;html=1;fontSize=12;fontStyle=0;aspect=fixed;shape=mxgraph.aws4.resourceIcon;resIcon=mxgraph.aws4.elasticsearch_service;labelPosition=center;" parent="1" vertex="1">
          <mxGeometry x="572" y="92" width="78" height="78" as="geometry" />
        </mxCell>
        <mxCell id="TbkNwsjUBg2xAuDk_8zu-23" style="rounded=0;orthogonalLoop=1;jettySize=auto;html=1;entryX=0;entryY=0.5;entryDx=0;entryDy=0;exitX=0;exitY=0.5;exitDx=0;exitDy=0;edgeStyle=orthogonalEdgeStyle;" parent="1" source="TbkNwsjUBg2xAuDk_8zu-15" target="TbkNwsjUBg2xAuDk_8zu-21" edge="1">
          <mxGeometry relative="1" as="geometry">
            <mxPoint x="90" y="200" as="sourcePoint" />
            <Array as="points">
              <mxPoint x="120" y="85" />
              <mxPoint x="120" y="192" />
            </Array>
          </mxGeometry>
        </mxCell>
        <mxCell id="TbkNwsjUBg2xAuDk_8zu-15" value="TV360 Service Center data source" style="shape=datastore;whiteSpace=wrap;html=1;fillColor=#5EBFFF;" parent="1" vertex="1">
          <mxGeometry x="188.07999999999998" y="40" width="80" height="90" as="geometry" />
        </mxCell>
        <mxCell id="a4PPue7s8mT2QeJeuBxG-6" style="edgeStyle=orthogonalEdgeStyle;rounded=0;orthogonalLoop=1;jettySize=auto;html=1;entryX=0.5;entryY=0;entryDx=0;entryDy=0;" edge="1" parent="1" source="TbkNwsjUBg2xAuDk_8zu-21" target="a4PPue7s8mT2QeJeuBxG-5">
          <mxGeometry relative="1" as="geometry" />
        </mxCell>
        <mxCell id="TbkNwsjUBg2xAuDk_8zu-21" value="" style="shape=image;verticalLabelPosition=bottom;labelBackgroundColor=default;verticalAlign=top;aspect=fixed;imageAspect=0;image=data:image/png,iVBORw0KGgoAAAANSUhEUgAAAY4AAAC+CAYAAAAiCehlAAAAAXNSR0IArs4c6QAAAARnQU1BAACxjwv8YQUAAAAJcEhZcwAADsMAAA7DAcdvqGQAAKJlSURBVHhe7X0HoB1F/fW59fX0XgmphEBCQiBI7wgoHTsoKvbePkUUEVT+oiB2UUBFRcUC0nsLHUJo6YX03l69/TvnN3fe29zc+1IIIYQ9L5Pduzs7OzM7c878ZmZnI3tNPrOAENuEQqGAyDbkViFS3NkGlIYXiUTsPjsLOzu8EG8BRPLFnc5h5aIQLf7qBNsY3s7G9pTbbS3n0TelKmxf/u20+rotZLUdCMZrG0pNiBAh9lhIFLbm5I3EvDX3ZmN3icfbAaFwvAGQ0G+r21aEFSJEiG1DWFfeeEQGjjprO+grRIgQIUK83RFaHCFChAgRYrsQCkeIECFChNguhMIRIkSIECG2C6FwhAgRIkSI7UIoHCFChAgRYrsQCkeIECFChNguhMIRIkSIECG2C6FwhAgRIkSI7UIoHCFChAgRYrsQCkeIECFChNguhMIRIkSIECG2C6FwhAgRIkSI7UIoHCFChAgRYrsQCkeIPQb5vPt2RDQGRKIFFJAzly9kUcjHEUHSXCESQTqb4TaPfNGPhz5W413pb3NF/3ZNzLl8hGFFs7avrcKVCxFiT0UoHCH2GCQSCROPdCqLXLZAkYiZi0biiCaaSfXrkclt4LEMaqqqESnEeLaKKhM3MZFDNNq+b9Qf1T4FpCgGkhO5PEUkl6XfTAKRXBUi+QSQi1M7uM3QT4cWhQixxyEUjhB7DGRZCLEYxYICQEWgleCshlwuyWP1SCRrzU8u34psvpHWQiPP00oIOJ41F5HVEMnSeuE+LZigM6tG3wuK5ak7BQqWLBtaHvwdT0TsfIgQeypC4Qixx0DWhhcNCYYgcrcvwtGqyGRzPB6laMRI8gkkYg2sALXO8uCxeCFOp/2ouWiO1+VotdCa2MLRyuAdO5y6qbiXYxwyhbxZJCFC7KkIvwAYYo+Bxh3UNcVibSISjUow8shm07QCqpDJZBCjqMTjcRQoIpGIG7eoqy6guiaJ+vo6unrU1FQhmUyav3SOQpDOorU1haamJnMtLS1IpWRdJFCg4ORyskjivF+ckaAo8d6RKF1Ys0LsoQiFI8QeAxu0zkdI4LQSqBmu6yprXUe5thwa6qopKVmMHDUEBx44DvvvPxaDBvRFVVXBrJR4nJYGLZZ4ItouKjLKXVdXDtmMREguS3EAZsxahhenz8C0F17G4iXL0djC47RQEKOAMAIRWjchQuyJCIUjxB4DjT1oUNwLRybbirr6JAYO6ovTTjwI73/PmaitrUaM5+KxAl3ExKJQSBRD0HgI/5OhQicpcl1RHm7cxA4TeaTQlm5DlmKRL8SxcPEq3Hb7vbjz7vuweGkTCtadFSLEnodQOELsdshrSqtmumo2VEED3CRrNuSz+Zx1/0RJ9hq01niCIL9xWgrqJkokgdrqDIYP74V3n3oM3nXycejZrauFEY+6WVeCLAzrYqJCuIH0DtiYSAms+ylw3O87q8Rtg+cXrViGf/7jv/jf7Y9h7TrQGinQ1tHU3TxivK+6yvLRJI2TpF1rZ7Nt1j0WydNiCRFiN0YoHCF2O0RiUesOKuSzRqRq24tco3GKQ4St/NYMhaKerkqjGVSUNOobkhg2rCf2GTMC73/fmdhv3F7I50jSVJpYRF1PkXahMKKmU7eU7qOtfuu8nETC+xEkLHJ+4F1O4fgwg8Ljr6H5w32JHTD1yRfw93/cgvnzl2PRkpUmItFYktfnaRWlLJwEfyPL1IQDIyHeAgiFI8RuhxwZN0GSzuVT/MWWPoVEhoIGvkXqiUQV8mTkAkm/d88aTNh/OKZM2Rdnn30KGhpqKBRs+Rcy5l9Wi4kAD4mgJRQKo7GxEWvXrrXB7ubmZrS2tmLTpk3YuHGjDX6n0+l2K0MD5XV1dejSpYu5hoYG1NbWomvXruZ0zAbcvWgIBQqHro8zHhSDbC6KefNX4M7bH8HU517F8y/OQCYt4YjSEpKV4SyhvAbVbYA/RIjdF6FwhNjtYESvGVJF/sznRPq0CvLqXoqgJgFUVeVw2Dv2w/HHHozDD5+I/n27F/24dzlE+ApHL//ptb1NGxqxaNEiLFiwAMuXL8fcuXPt97p160w8chmSeCbTLiyCrlc4coIsDomIRKOmpgY9enXHkCFDMHz4cAwcOBBDhw7F4MGDbWaWjBBdp3c7JBw2PlJQd1ocM+bNx5PPvIzbb30ETz87C7F4HVNLSwdZd79wUD3Ebo5QOELsdiggYxZGzFrxjrTVKs9n9DJeEw59xwS8772nYNw+e2HIoH6kZImEBqgLvMYJhiwVWRTPP/88Zs2ahZmvzsKMV2aaUOi8RCIIEXawG0rwXVb+mPYlLOqe0r6cLA2Jid5a79WrF0aNGoURI0ZgzLgROPjgg2mN9LCZXoIsKJtwlVeXWxyvzJiHOfOX45pfXY9Z85bzWI2Lh9OtECF2W4TCEWK3g97Udu9H6F0MdeWQpPOtqK2J4gff/wLGTxjLln5fEnCOFgVJuZCU2rilQUjmS5YswX9v+TcefvhhCsYM65aqrq5Gvz79kUqlrCtKZO/J3wuF9oVS8SgHnZeTAPlxDvn1wlJTl8TwkSNwwvEn4/TTz0Tv3j1t1lcsxvvR6shmUrSouB+LYsbcpbjt9sdw3Q3/QkurEhEOjofYvREKR4jdDmqZJ+K1rqUeySOX3YhDJo/B5T/4FvYe2odCwsNUiUJOg8xaqDBr60gtWrgYN1z/Z/z73//FimUrbfxBYxX9+g3AIYccbN1Ur732mhG8HxAX+XvB8PCCIidBCMILhuDD0e+gwPjwWtqazeoZNmwoxeN0nHfehzF48FBkI677Kkq1Y2gUGr3NHsfDjzyOy//vOsxfuMGuDxFid0UoHCHeFIhmSZkkUDeLKRJJGAEXChkSaxXiES35kUGPhgTec/axuPATZ6NHD1oW+Rpe2dF11NbWhsWLF+Nvf/sb/v73v2P50hXo06ePjUNooFvdRUcccQRuvfVWG9OQhaCBbsHeJC8SvxeKbYEXjiB0rPS4REdOFs+aNWtsHOT9738/zjz7DBsbUfeW7ulFTG716tW45NKf4cFH5iCVr0JLphHJBEUmxzhGExQY3cvFU4PvQoTnoomSwfkQId5AhMIR4k2BkTWFA1o0EOqWcsUwSlLUC3mxWAp7D+6Oj330HArHyTxOcaEX90Z3xARDXVL3338//vKXv9g4Rvfu3dGlvqvNkFKX1FlnnYVJkybht7/9LebNm2ezodRF5WdMibCdaDnC3x7iLRUJ/zu49WLgZ1xpEF5xG7LXYHzkIx/Bsccei7322sv8Kx4SGetuozBeceW1+Me/7sH6TRTSjJsGbO+x8LyFranGRcHRgorqIotRWEKE2BWIdek59pLifogQuwxaDiRCMszntbIspSNaZftRCkkin8Khh4zDFz//IZxyymFsWbdROORXBBoxS+Lee+/F1VdfjZtvvtkIWQPTEoXWljYbY/j0pz9t1sYvf/lLm0ElK0OEq3OCJ3VP9NrfGfDhaCtiF+Hrntqvqqqy2VgbNm7AAw88gFdeeQXdunVD7969bQzG4qRro3kccsh49OnZDauWr8WKlespKHpnRQP4zCvmhcZ/lF6FXSjk3fsuUp0QIXYBQuEI8aYgX8gZ2Wntp2SimlsNMGfYnE7jnNMOw2c/fT4mTxqLOElUA+A2CE4349UZ+N1vrsVvfv0bLFu6DDXVtaitqTPSTLWlTVQ++9nP4uijjzZhmTZtmo11qFtIrXLfsrc4+FZ+gOwrwQvM1lAqRNrqmJy3bmpqq+2cxls0gK+uLHVj9ezZkwHwOl4Tp9UxdsxIDNt7ADZsWIv58xdrPrAi3S5I6XTKCYbJjRAKR4hdg1A4QrwpUCtZBCiyy+X07kUa8VgKF17wHnz+M+dg2F6DrIWt3ixZJrl8Fo88+iAu+c6leOD+B+xatd69CAjLli3Deeedh/PPP98sDXVjqXtK0HiGSNsLhSd0IUjy5eD9VUKl8z5uziroCJtJR1WyGtVV1bby7rTnX6AgzsTAAYMwYEA/hudW3dVaKv0HdcWofYdj44aNmD17nuWFTSVmcBFaHtqJxJiHEkH7HSLEG49QOEK8KdCHj6Ikf1kasWgBVYk8Pn3he3HhR85A317d5IOyIUfRoFXypz//GZd+7/tYvHgJevfqbWQt8dBWxKwB8pNPPhnf/e538eijj+IXv/iFdQ2pO0d+1DKXP7X6PbyAeFQSjkrHPcqd99aFoPMSEf3Wvs7584qX0qGB+6lTp6Jb9+4YPnwE4x03QZAW9OzWBSP2Hoqly1di4eJltNASSFM8EvEkclQh3cbuEQpHiF2EUDhCvClIJJLW2pbRoZlU573/DHzy4+9Brx4a8E1QMGQR5LFmzUr85Cc/xlVX/5zHqlBfX8PWuCN8T8CaiTRu3Dhcd9119tb21772NbM+NH7gW/tqpYu8vcUhiLh1veCP7SwERUL7uq/ion0JhfbVfaatt57Wr1+PO26/nddlMGHiOCSqEjYwHo8l0LtHHQ44cDJenbEAC15bZPkXpXC4dDnLzSy0ECF2AULhCPGGIavuJ5Gbxi/ULI5kbVBcLidrgX81FIcPnHM0Pv+Zs9C7Zy39kBBtalEUixctw/9d8RNcf/2f0KN7D1sSXaLhIRJuamm0MYMfXfFD7DN2DG762034/e9/bwPOgm/py4nIvRPKiUXQT6krPR9E8HwQuq9Qel7x8qIiaOsGyIF77rkPLa1tOGjyFNTWVNPuovjxfPcucRw+ZQKmT5uJpSs28KimEzOMrFb+jVNqN793iBBvFELhCPGGQeSorqikuonyWuIjgkS8miTpSC6ZyOLQKePwyU98EMP2GsDzeWdN5CNYuHAhrrzySvznP/+xQWM/jdYTrrcUmluacO655+LMM880Uv7eJZfaNF1d460NDYoHUUriQZQ7Vgnb47cUXjBKoe41jcs89ODDWL5iOQ444AB0aejqRKEQQx0tquGjh+LZ55/Bxg1MV64G+SgtG1sTK+yqCrFrEApHiDcMGp/I57MkexGsup40XiECjCJBohs5vCe+8pWPYOJ+o+mX53UNLZDly1fjhz/8IW677TbrehKZ+i4dLxgiXq1qO3DQQJtFpTWiHnvsMfzs6p+ZaJS26D2CZF9K/Nv7W9jWYx7l4lPqX+nUC4xPPf2kra217777mnhEoq6La8DABgzq2xePPvgcMhmKMK0ORHPh4oghdhnCkhbiDUMhW3zJzrpaaE/wPxGnvsfdUAN89pMfwjsOGkc/bC2TO/Ui4Oo1K3H55ZfjlltusTEKdd9IACQEsjgsXBKt+va1PeaYY0w0RKgPPfSQvRjoxw50L78NErTfL3Wl57bltxA85o9vy9bvB6G0ykLSmEff3v3wv//9D1dddRVWrlzJdFBU4gVECzmcdOzh+NqXP4JorMmmNgPh+lYhdh1C4QjxhkHLnMvisFY2W8P6i7NljFwTvvKlC3DKKUfxfHGVWlolepHvJ1deY91TEg1ZGkGilXj4fYmI3hQ/8sgjzSrRwPKLL75oQqNzuqdIWH79dlucD3973dau8+dLt6XHfBolHnppUd1Wt99+O2644QY0Nq1nupgP+VoqTBZnn300Pv2pMym6rerlCxFilyEUjhBvGKKJqE0XJW+T8OJG5oV8CsccPQHvfd8J9vnUaITikHcD2Nf/8Qb8+c//sLWmRJqyHkx0CC0hIsiC8IQ7duxYjBw50sh26dKl9oa4RERTXHVe5Ou7rLZFRIL+yrnSc0H/wXOdhRF0Hn5fW10b04ecqK/qiqtO1iAZr8K//vUv3HPXvfaZ3IK6pKJxVNXkccbpR+GIKeNpb2w+jhMixBuJUDhCvGFQd5K6jQR1Q2mFPi2N/qMfXYzqqiwS8Zjrl6eoPPjI/fj9739HK6KXiYUEIvjuhQbHBZGrjklIDj300PYpt6tWrcKGDRtMKPw16iaTeASJ2bttIXf52RZ/2+pK41DOKe7a6r7KO+WFLK8N6zbiqqt+hmnTXlIozDNacvzba8hgvO+972b+hCZHiF2HUDhCvGGIxdxbzvF41FrKiUQa1/zi6+jVvY5WRi19iCxzeG3+Qvz6mt+jcWMLksV1+jxpC55Q9Vs9OalUK3r06IbR+4xq96Ply9VCl3B4K0PXiHi178nYE7R3OlbJbauf4P7Wrin1E/wtJ2Q1ZTni/Ev4BC2bsnD+a/jtr39j1hX0rkuhCtF8Ae88dhI++6mzKcQZ5HMaCNEKw23MXZeZBThrLUSInYVQOEK8YSAtWqs5bZ8OT+HEE9+BsaPHyPYwiBj1ne8//OEPePrpp617KkigQUINOkGryg4YoCm8zp/GNfx5iZWH7iHx8OeCrhxxvx4XDE8Ings6fy64FSrtC/ot60qD5TfddBPTq68kOnGRZXbkEVMwbt8R0MeiIhKMfMS+VeLE0+d4iBA7B6FwhHjDIO7T98LjkWoMHtId555zHPr16QPkXPeRyP7BBx/EHXfcYYPashQqkbycICLU2Ie+861pt9oXeaplrq334+HJ3G9L97fmSv1u7ffWjnsnlDsmlO773+qy0hiOXnB89tln7R7KM2HfscNxzFGT0LWuCulWdzynVYWpGflcWM1D7FyEJSrEG4aCZgBRCOLI4egjD8DYsYMREwfq2xo8rimmf/3rX62bScLhxyTs2gB5BqHjGt/QarL+pUA/DqCtnO+qkhO2RuKdOWFbfntUOu7hz1dyncVVgqhZVuqS+/73v29bQWmORbN41ylHYtSIAcUvJILHXB64JUlChNh5CIUjxBsGkV0kXyDJd7Xva/Ts2tWOi9hF+HfeeSeefPJJ64LxL/f5FrQQJE3/22+1pIgI059XGBISCY+Oi2S9/yC8/3Jua+e31flw/LbcueBvj85++33lkSwtde3deOON7cf1Kd1hQ/rihBMPZl7oe+oRy2Pla4gQOxuhcIR4w5DQO2kUjgnjh+CwwyYiWkiS+Eh0JHYtTPinP/3JhEIu2NUkMqzkJAjq0/cfZtIxEaQ+5NSjRw+zRrzf0rAUvpzfD56rdKzUvV4/nZ0rjW/QCUqvrpcYSCh/9atf2ZcNhai+mogCzjnrGHTrErM8qkpqzCjHPAun6obYuQiFI8Qbhkwqjf59e2PKofuiS10NWVEiQbKPRHHttddi9uzZRvgiQ0EEWY5Y/TkPWRZyIlI5DYZ74SgVIAlNZ2S9q52Pl9+vhHLnlU6lW+f08qPE949//KP91lcUhe7dq3H2Oe9CNpOnk4Wi2WzhJ2VD7FyEwhFih2HklnMkbbN5tCYVnZYYyRX0DexqjBrdE+eeeToKmibK0qaVcpctfQ3//PvNtqRGNq0v/7lBcQ+F613wtxMEjV/omFrfGggvoLm5Ff37D8TEiQfaFwA9JBreKtG16jYr5ywNdOXOlTolMfg7eF1wX/ezexbvrzR6EdNW8OfkBB3vTOhkaXg/cv37DsAdt92J6dNeBOK8LsJ7Z6P4wiffi5rqFsQSFOpIHPlMaHG8XeHLTjkEy1YlP5UQCkeIHYaILxJ3YxNavFAzqPS+hqZ/xmIJ1FZHcMCE/RDhwViMJElJEYH+5te/w5o1a2xfg9qeTD2RBlFauGVReOfhr9MLgb7bS8e0Vdg6JshP6XZ7XLlryh2TE8lrq3QpHupOUzwUL28B6LjOK44+nj6uHqXh6hr5kfWhe2iA/K677uJviZHyPcYMAc4645081uTCi4XVPMSWsPobcNuDsESF2HFE2DLW2hiECEskRW6D1k0SEXbvEceZJDCJhvtSXQQLFiyw702oq0X98J48BZ0XOXoE9z10H12jda10D0+msjSmTJmCMWPGGJnqmO/WEcn6sILb1+sqhSNorEX5ofj6iulFRPHxQunyrEMQ/fVBBI/pGqXbhyvou+Xz5sxnphfzmc/kkxeej/pqhk0Lr0yQIUK8LoTCEeJ1w1q1hA18ExrHYNsa48YMxOBBPWxqqEMed951O8XjNZtWKkIUgVormRBxCjruydLveyeyFPFqKq8I1ENC0q9fP/s2h1r3OucFw5Ozd15wvAsieLzUlV5XLhx/XGkKxkFb/fZ5pXTouE+zF4LSMOWE4L6ukX9tNY1Zb5I//vjj/O3CZ6jo26cBB+w/2l4CDPH2hcqUb2DsLKgchsIRYodhNFYslPpgk6BlRnL5FLK5Fnz0gvfZTB/5UOFV99QjjzxiM4KCVobgSdEjSJRBeKERWapVr31PxlqrSh90GjZsGFpbW+2YiNi35LfFCeWOb48T/H3lWlpazDU2Ntr3NeRkIemcj7u/TgjuC6XndI3CV94p/QpbwqH1uqxK83hVNIePfvh9vEBv1Ifi8XbGjoiHypkfryvnQuEIscNQ4RKRF1gmHYmR0EhUEo76hhpMnjjOWRsFtfgjeOaZZzB9+nTU1dS2E74IUGFoX8csvBKiDDpB36rQNFQtpa7xAl2j+8vq0FIkZ5xxhlkd/rjCLg3Db4XguXItfu9K/XZ2XGlRWBKzr371q/jlL3+JL37xizj//PNxwgknYOjQoSYey5cvt2VXOkt38Lfgw/ZkoPTNmzMbixYttN/yFqefESOGIFnFZxMPhePtjGBZ2syBZS7g/Ged5UrPlbrwC4Ahdhgqeo6YSWQsiKKxXC6FuroajBs7Ch8451jrd5cffTP7ttv+h6effgbJuD7O5AaFg8QeJE+/LYWO6zotNXLsccfZEuxqcSscdQe1cl+fW33uuefsE7IaR2kPqyTscvcK7nt4gvYI/vb72gaPKxRZGMceeyx+8YtfkMRH4PDDD8cpp5yCk046CSeffDKOOuooW29L4jF//nyzQCSKyg8fXjmnOGor/xIR7afSLZg4aSJGjd7HrqfJx/PACy/OxuJlqyng4YuAb0d0VrYLEghao3Kqj37fO5T8bj/O0h0KR4gdB60IjWYg0sptNbIsfPEESS+VwsXfOh+jhu8tRjWBWUFyvPGPf8WqFatIdh2Grgqzb+WXQsdKnUhSxCix2G/cfhg5amT7S3/iy1S6Dd17dEPffn3xyKOPoKm5iXEiaer6XMGExN9PW0GvQPCIiZ/FQnEuOWb7dP64tvIXi7hZXJ7sXTyi2Ni0kfHojt9d+zskknEsW74UGzdtxLr169Da1oJaiuuYfUbjuOOPxanvOhWjx4zG+g3rsGDhAuSKX07U+IXE0EXJjX9o6++jtJhIEM3NjejTuzcmTpyMmuoamiUMI55AW6qAhx54gvF1S7R76HqP4PE3E8E4CZXiWw67Sxq2BrXW9X8lF2U6VWNKnUi81BVsGqO2GTqKQBnnPuBS3qk3oN3x7qWuM4TCEeJ1gsVaBREJR9CsGHFk8NMfX2xrJgmq1C+//DJu/ufNRvgivG1BKVnot5wsE5G1iHXKIVPaZ2fRR7uo6ANPmlWlpTlsLIRWUZQk7werFSdtTTyK+3LB+5TCk5M/r995tuy1tf2iEMka6tazO6644gpMmjTJBvIVL4mBh1lHra3WXaUpyQcffDCOP/547L333lhJcdUYjtKkrjgvSv56fz9B8dB53TMeS+CII49E1+5deZ4iwzSvWtuIu+95FLl8xywswYe5O8Gny7sgSs+Vut0JnYlDuXLly5OdC+xvq1O4uzoPOpp+IULsADSDSsVIL//lSHQRtoB69erCZrkqTwdEhH5MwhX2yuioECWVqgiRnn6/8MIL7d1RvuLouAhc4x0aKP/4xz9uAmJjHqq4jK8sDO1rq9/BewSdoLBKj3my0jmFofckfJipbAa9+vbBN77xDRx22GE2IcBfp62/Vvt+9pcEZNmyZSYg73nPe6xr61Of+pR1W2lqsfwJwbgE0yunfF22bAXWrF1vx3kX5hPQrUsNevaudy9nUkw8/HVyuwuCcSrndjUkAJVccDxgC8eW/vY4Nby25mTnVna7HqHFEWKHoe6anLqnSNyFvIhJZJXHlIPG2EqtauGL4NS6fuyxx/D0U8+YXxFgkPg8Sgmi0jltdb0GlXv17o3Jkyfb2lWJRBy1tfpAlHuPQvcaP368LUX+wvQX0NTYbK123V8IhulR+tuTvFC6LW21q9WvVXs1CP7Ok0+ydCse+giT4iBhUDwVR+/8mIasKPmV69a1Ow455BDsu+++NglA4x8SP/9eiu7pnUeEea1rx08Yj1GjR9L6oLjmo2huacZLr8zGa4tX05cXnGKaJCQRHnuLtB+D6d1ZkAjo/3IuKNTlnGYXcWdLp/JV7jiduoVYavinp9Dh/LntSaMvA29EvmwNoXCE2GGo119lNmqTbtVlEyNZtuID7z0Jkw8YS0J0b0/L0tDbzTNnzLRC7rtcdM5v/b5HpXMiWXXhKAx1Sa1Zu8a6rNRiX7JksXX96JzIWu+KSDzGjRtng9OvLXzNBqI9IehcOQTvXQ6+sioeCsNP/dXg95e+9CUcffTRNq4hsZAg6J6LFi0yAZg5c6Z9G137Oi6LQmFoxVu9FKn0NW5qsuvU3XbQQQeZH3X1CbIsPFEoftrXNXIS0gGD+1N0DkYirk/tRmx21dz5S/HcC7Pst5yEwqVBoejI7iEcPl8rOTOa5K/EMSMc6VZwrq9fZL6ls3Mi+jIuYuFWcAGB2dJ1DqWlEjo7tzshMnDUWVtPaYgQZVAovjmez0RJlDqQoJXRiv/++ycYP2ooorEqIzeR5MUXX4xnn37OWt1qOfuxhnKus5aerpMw+ArW3OpmVDlXsBa8BGP06NE48MADzRpRy12t+5XLV+HnP/85/va3v5nAKB4iaF0r4tU2eC/B38ffw8P7UTeS3ktR15K6mfw02xmzXrXpx88//7xZDRrnEHy3k7ceJBr6KNWoUaMwceJEszT23mu45YEWMVS8dc1Pf/pT/OMf/7D06Zig65UXPu5r1qzC0ccfjZ/97Gfo1qV7exx/96f/4PL/u4EkqUkCHd167V1X+u77bgbFOwiVMwlHJZT6D8J19by1EUxfsBy+WQgtjhA7DhK1yrCWS8/l9UGlOPK5Nnzsw6ejd48urOzOOpA1cOutt2Ljhk0mHDrWGTojAd+6Fpma5bGZ1VCwKbAi7hdffBEPPPCAfWpVrXV1EU044AAcf8LxmERBWUEiX/jaQmQYRk5CpRebmBhfKYP7gvYVL91T905n0nbvD37oQ/j+ZZfh/A+fjyTT9r/b/ocfX/lj/OQnV9r3Rl599VWzuHStxEBx9++e6LecrJGnnnrKrLK7774by5YuQ//+/U3wZM1IXCSAEqAZM2aYeHhrycdRCxmq27CuoQbvetepqK2p4+PRy5g5itgCPPL4dLaSJRwaH9IV7tk5dKTzzYTyqLKjyFl/vxoVWzqlp7Lr7Pybm3alLYhgmdscHWlwXoJpkNu16QiFI8QOg9TK8kxCZYNVBT5WiKBHV+D97zsR3Rp6WQEXUYrwbv/fHUaCvnW8JTF0uK1BZKswrJLRu6tH3OG/ZDSBZDyJmqoa26ZaU5j16kz85z//xdMk5wH9B+CQKYfg+OOOx+QDJ6NLQxe0NDebJaNwRehyEgg5HXPBO+tA3U/q9jrrzLPwrYu+hY985CMYPHiwfQL3O9/5Dq655hoTi1gkhvrqOtRW16I6WY14NG7HaB9AXeMa/9FMrxiPVzOuXRq6oqG+C9av24AnnnjChFYTCvROSpcuXaw7br/x++PFl17EosWLUVtHq4Nx8vmpNaqUE1HEccZpZ6FrNwm3i/O8efPxxNSX0ZJKkH7abLYVY2MrGOv7jJ3181eaHlrqfNePd5oiWjr904hfg8EVXNBfRN2gmznFZ0ehElLJvbnw5bi9PFeAxrC82zz+3u1ahF1VIV4XjOyt0OcRy0cxsH8Cf/vrjzC0/1CWLtfKfuihh3DRN7/d3j0k6HhQLMq5IGn73+X2vRM0YFl6XK6ptcW6dUT8F154oa1ppa8IapxEFtHChQttAcbFJGUtCaLP2eo6Ea+6vgYNGmRWgLqiNPagFw9lOShN+hLfn//8Z1vyQ+nTcSHGCi0y8OTuiUEzufzv4Dk53c/i29RkYxv77bcfPv3pT+PEE09E9549zIr6+te/buMZ9bV1Fp6uUTgSZgnMDTfcgP0n7Gfh6Pjtdz2I7112PZatSqEQa2UEKBt8VrmIyN0LR3lU6h7y3T+6R4i3H0KLI8TrgsiO1MytSBsYMrgnTnv3kejK1rOg1vsrr7yCBx940HUtkbyFzghH5/x5vx/0H9wvhQ2G8nxQdIRo3C05LqHQsicSB82AUteZun60rxlYGmfQKrt641uD3Hq34sgjj2yf5SR/ClPpltjoXY0/XPcHs1hE2v5+Ok9JsK1H+z632vfOQ/vKLwmPnARLoqb1vXRu1OhR2H///W32lmapxWNOMLz4KM2aWaW4D91raHvYS5evwNQnpmPt+mY+qTQtHsZRAhtR1498KK+0U8aZQG/pHLa8zp3Tfke6ShFMc4i3Jt4a8/BC7J6w6Zyu20hbkWZDQx2JjNQh7iBEZmo9SzREcJ50dxSemP1W0H7QCcF7KA5qlSsOEgnF55ZbbsFVV11lxCyyluWgdy40RuL9y3pQODqv41p3Sk4CIevkRz/6kY1JVCWrjOh9Gj2RC6Xx7Aw6r2s1huIFVrOtFNb1119v8VX31XnnnWcD/xo7URwVX10rfxIwxVXheFTXVKGa/nL5DPWCYpFTl1yG9K5xlqxZaZVcZXjx2BzBfA+x5yIUjhA7DxQPkarIQ5SjrUhNLWSRb5DMdiY8WZWSln7L6b4iVO0rHrIyRM7333+/WQzq4lHrXsfkVwKgY2q96zo//qHjmtGkweyrr77aWv2CD893w+kenUEk70WkVEwUR4mWFw/dV+HK39///nebFSboBUMdl3j4dGsr/7KqgvcwCybppkZ33I8Cx93OZip1Bh9W0HkoHp25EG99hMIRYocRJAxtRQoiPUcQHaRYSqRBktleeOIpJaDS47qHSNQ7HReB6rgXEe1rIFqWg2ZdafxDYiH/SofOSywkDDoma0W/f/vb3+LRRx+1+2gcQx9LikeiyKUZLlvp2t8WQi6XD16kFD/tKx4SEImE4q/xFFkfGjQ/55xzzAKSX+WxtrpW1/mwdUzXm1PXWUFCGrdutBAhdhShcIR4XQiSn1rrIqqgZVFKjjq/vdjWa0Sa/n6Kg8jSX6tzIn2dFwELImURrqbsyvLQ4LdEQn5EvgpDv/1LehKXP/3pT7jtttssPJ3399R5QfeTK033tsJbGYqjwpGQ+fBkzem8hE7vh3z5y1+2QXrFz6dT8M/BX2fdUQUnRvrtthSZzg2jrUDPuMPp5c/Nj4XYkxE+4RA7DYW8IzojTQ1/FMnLC4kIUb9fL4JhVNp3hOn64XVcVoBa3HLIkfTF69wmY65Fr1Vs1XWlMQVrndMpDK34G0vE7SW/Z5991qwNhZWIkigVTknadI2ln/Db7YXC8RaEFxJBYxNd6huQjCfwsQs+akJ2+umnm9UheCGT6PhrPDKFHPSnlYkzGYqRXumIMa621tj2Q3ELuhBvL4TC8TZCaWX3bmchH80jlXEL9xkxkThFfOriEal5Ut1eQi31H/y9rWGVS2fwWIJkfOWVV9oguQjZd2cp3l4cfv3rX2/W7eaPV8LW8nZ78l5+fVolblrc8dprr7WZXxI1nZNF5bu0fNjueB6ZtOIdVvcQOwdhSdqDIJLYEbejEDk5gupobavbxFq7DFa/JRwaO9D2zYInUR9f/1vQvh981kwpdVtpAFzHdE5kPGTIEHshTxaHjvm0+LwLhum3W0M5/z6cSmEEr5F4/OUvf7H4+TfMle/qWtMLg96v4qjJCW1tbqkT/dbSLGYSFn+HCLG9CIUjxOuCkZDIJ08RykewaWMTsjkJUgcRioj9eIIntN0JipfEQFtNr9WLfBpPEBFLQDS9VSSt80rH601D6fWdhRc8p305xUOzwBRPfW9E75bomERAwtGjR4/iFe6a5qYWCkvbZmHJr55XKBwhdgShcOxB8MRSyfnpl6WudO7+Zs7m/WfKu2zO+vlFWu67AgV7o9kGoYscpWMSDhGx/PljbwTKpVmuHILH1eUk4VC81AU0a9YsI2Ad19vlTz75JGbPnt3eNeXj31nY/lxwW+o/+Lv0XBD+nO7rw5GoSTz0iVxBqwEr39XNplV2vT85Tc+V84sZ6pjgwnvzLMEQb12EwrEHQURQ0YEC0Ikr+0EaORME+qngRGBB51/2C0JdVeo+UTw8mZUieCzox++XO1/uXCWU8+OPSRAUd8VPA82aoqsxDomJ/Oi3FjWU9SF//jptg+GW+x3cCsH9UnR2zsPns4RNYxl6e92Py2higqwN7Qehbqq2VifscoLutS33CxGiHELh2MPgiaXUqbWvt4XLua2Jg+sPL+9cf7kjIpGSf9mPt2yHLA6JhyeroBP8thSlx4PXlKLScaFcOB5+X3mkbiiJnlagleWkVry6g2RxeMiPF0AP7ZfeozME/Zdet7Vw/LXKZwmbRE/f9VC8JXYaKPfTjRVPPQsd1wuFRc1wXwPUthhWiBDbizdVOHwLyLttRnGpi4puV4L3K229e6dzbMtad085BxJ2JVfIpSq6fLatrNO5SCFT1kXb1xfaXqiIlHf2zJjG6jifn769LUKK1+KZZ+aQ0FL04yAyGzx0kBGdCLoSdoTI/DWl127tWPCc31fcRMSbmjZizbrVqO9Sh2XLlmDp4iU260okbGmORe0J+8UKfRi61odln6Qt4/SJ2VL4MHwd8L8FH56c4ic/uo+/l7ZadyuV0suCUQwZ3heRBMNRNkeyaG5twrJVzcjkE3xiLAfa5ovvnDAykdf3MkeItynEAG8agpVCLnisU6ivtjO3C6GKXMmpovvKXnqsc6cuonLHndudIN5RlPTMRGL6/cILL7KVSwEkdFzWxrBhw8oOkG/1WZeBv2Zr1+q8dx6l1/jfipsf59BguFbH1TFZHGrNqxXvW/J6BkqrR2fhV4L8VYqLUO68FwvFMXjOl63q2hqMGTMGVVU1zGdXTtat20ALaqbthwixs7BrWXYb4CvBrkY5iyHoyvb/07n40k8F50SgwwXPuWbhlu7NSP+OwRUfxdcTGlOG56fpM6fuDWw5EW7fvn2N+ETCpYRYCp33foL7QvB4OZT69/DHgy4ILwQ6rqmtfg0oCYiEwl8jf57AS51HpX2hkt9Sf+Xg4+jz20P76rrSoLi+JKjfetFP/tas24R5c19r97ct9wkRYmvY7YTj9cKTVVm3FQHQDKFyzs8eKu92dHXRyvAVvJLbXaBul7w+LFOMk/IwGklgydKVaE05svVEK+GQ5SGUpse7UgSPBf0Et6XOI/g7uC3nBF9GFFeJm2YhaSsR8ef8eT9oLgTD2Nq+/y2UnvfbzpyH/634+P10ug39+vVBz569i5aTa4A0N2ewarVbz6oU/toQIbYXu61wWKUoQ8Tm2Fqv5KBWfa7M1FE6R/L0V8bpXNAaCDpvCZR3b28ECVXQ9M6WtixeeGHz7pG9997bPoIkqLuqHDyRVXLeT3Bbis78l+4HneBFTvGTaChd2gpBfzouBK8v57yfIILnhFJ/pf5LEcxr7cu/344dOxbduna3LwtSNpDJ5rHgtRVobnH5vbWwQ4TYVrzhwqFCXdEFuoK8a7cAypzzrrT7p9SVI385dTmUjQfd7oRy8Qu63QkSCotTpGOaql7iuOnm/7hdnlO+azE+fSTJE7L8BolsW0jN+wluS10pSs8Ft955IvZbtdg13VVjHH5cw1sZPv/9ddr638H90m3p+a39DiL4u9w5zZjSsi7KX017zuUkLkBjYzMeelCr+HZYSCFC7Ay84cLRGYJkH5waunVXftBYbkuLoNTtOohkgm5b8Vap5IqnyNPSp247QquuRmJxPPDAg/bb+xHxjhs3zp6RJ2MPn97g1u8L5faDx0pRzo/2K12r+Lmy484pfn6ZFL1k155GOh9OMKzS30Fs7+8gdM6fL933WzkJh2auaXVfWzI96s7r/Y5pL7yICI+FCLEzEQ225Mt1/VRy6hLyzk8F3V4X7H7ybzEHXSX4ClPeqXVV2e1KlMZte1B6bdDtLtAzUjefyAqRBH9r1VkScL4Gm5pqMWPOfBJyFtEIywndhAMnYPTYfdDc2mLp8GLqt6Vp8+kNEnYQ/ljQaaps6RTY4DG/r613Cl8iIYFQN1VdXQOJuAePaVC/P4Uw2j7rSn6Ubq2Oq/v5cEud+aOTH7/vf1s8i/H321Ln/ZZCxxQPD583w0eOwJAheyOmb4EgjUwujeVrWrFqVVPZcEKEeD2IquB5F2y5d+ZUuYL7QjCcoAvx9sW11/7RyDfPhoHKigbIjzr6CHvvwBOgnFr4pWUlSHalxKff/pjfr/Q7iNJjwWsUB8VRXVSyMvr162fdaupi8x9wUhy9X39dEMHwPDrz4105lDuvfeWX3hD3QqZ4aV/fRO/fv6/r5tUl0SSu+8OfGVf3EaoQIXYmosEuoHLjAuWcunw23w8FIsTmEMk99sTzWL2umT9cS13l5ZRTTrFlMbSKrqCyo8aHzgsiQU+W5Yiz1AVRejz4u9yx4G/FQ05vWUssNLVVcdQCgiNGjLDZVYqjyNoTcTAsOX/Mb8u54DmP4PnSc4I/pvjp3sojHwfFV4J88MGTKRIubrl8BBvWt+Lxx59FlvtmEYYIsRMR3ZauoXIIFnK5ECGEYFlobMzhf7fdzb14+0qso0ePxmmnnYY1a9a0k7ATFdddpK1QWr621flrfVfPtjh/bzmR8oQJE2zMQMKhcYPJkye3x9NvdZ2/V2euFOX8yFU6F4TPH8VRloZ+a3vEEUdYvpoAy08kgb/+/VZsakwzUF3jegVChNhZ2OHBcRXgoAsRohQbWvK4595Hkc50tNA1VfRjH7vAZv9oQUEtHCiIjEV85QjTHys9V3p8R53uLUgUFK+DDz7Y1tdSfNSiP/HEEy2e2vf+Rdql4eyoE/y2FEF/qmc+rhIPWUFa0PDd7363xVfnNDlBtfHaa/+MWLxeI5c25hIixM7EDgtHiBCV0E520SosWLgMDz48lb+Lg8mksmHD98YHPvABW0hQZCiCFhEGu6yE9nCKziP4O3h+a8crOYmAFwnN/FLrXW9i65wsIwnJYYcdZrOXvF/Bx7U0PO8qnQvCH1NYcuX8+d8SNg/FQ7OmTjjhBIwfPx4yKmxGG/39+1+3Y8PGFuTyxbzU5IQQIXYitkM4VGg7nFZFDboQIUqRSuexdNlK3HvP/fbbE58I8rOf/ayNI4j8NCAt0vZbIUicHp5APcr5ESr58fulW8VLA+D6rW60AQMGWGtev3230Oc+9zmzOrQfHMz3YQil4Qa33lX67VG6H/yt+0owFF+JmLYXXnghj7spuPJboED/4te/QZaioeyOxZylEiLEzsR2CIe8duZChNgcNXE2g3MNeG76Ajw4dSqJLMuWMctKPocevbrjYxd+1FZvTWXajKBFhNqWkme51rh3/pw/H/QXPKaw/WwoEamOi4R1LpaIYvnKZTjwoEk44aTjsW7dGh7XvUW4eTRtarRWvd5811IkWmpF03h92JXuGdzKCX6/3G9/TPAC4fd1zuKdd2t/zVswH5/63Kew94hhjCH/IimKRhb//Nd9WLVG6aqmxZdhzaQVF+pGiJ2MdsYPWyUhdjYyuQjysQLmzluIqVOno40WSC6XQi6bNvI799xz7W1nrUbryVxkWY5IBX+slKxLXblzsma8teD9qMtJpCwrp1evXvj2t7/d/kEkfz9ZGbKMrr76avsKoF4M9OF3Fge54HkfXtCVXu/9KE6Kq7be4vHdY5F4DCtXLsfkyZPwiU98gv69xR/B2vXNuPmf/7X8FKIRXRsOjIfY+VDzjxvvQoTYeUjEa5ApsCWMKjz80HS88uo8xOJuYFdCoc+yaqwj+J6EiLqUSMttBe/PO0/E5c4pbJ334yhyImZ1+ejeX/rSlzBp0iRbRt2fk8j07NkTN998M37729+aaEiAfPh+K+fvXclt7XzQeetIcVB8lV9e8NSFFk8m8LWvfQV9evW0dMnl8wnceut9mD1nEQ06heOsKRR4X4Sfhw2xc9FucahQhgixM6GWfJwt5AKJa+bMxbjjzoexvtgaVnkTCR933HE2a8m3kkWUnkCDZCsEt8HjpQieC+6LgH0rXuSse2mA/pxzzsEFF1xgS6gHyVrC9uCDD+LKK6+0uErgBB9m0JU7HjwW3A8eC8IfV7oVB0GCobhafAt5rN+4Ae9///txzDHH2DG91U7TAguXrMA990/FunVNJti6nqcZlkR6y3uFCPF60C4cIULsbMTibsaUll4vxJL497/uwZw5y5EtOIEQSYuczz//fFvZVe9N6FiQXINO8NtyKPVXzq/uK2IW6Wo6sETja1/7mo1dqDWv4+qu0kuKjz32GH74wx/aAL7eJhe85VIaful+ufPB30I5f4LyQJBoyCISJFya4TVlykE477wPOsuHgiFxSGejuP+BxzFt+hwecxaRiUrEvZ8SIsTOhpor1iJRhQgRYmcim2tDBHG23qNIc39DYwZf+cr30NTqrApf5vbbbz+btVRdXd0+mylIpv63Pxb8LeeJ3J8LErvf11aiIVGQQDU1NeFjH/sYLrvsMiNhP6tLXWUa79B3xr/73e9i/vz5dlzXy4/O+3iXu4ffLz1X6ZiH39dW8Qz+loDIGho8ZAg+94XPY/jw4UVh0Mt+MTzx+NO47vobsXFTG627ONrSKeZl0kSnLZMO3+MIsdMR69J730siapWo9cJiJ6u21Om4xt+CBd1B4yLqY3Vb5zb3YzNQeF25cOX4z1BOuLa8X4i3EsixFA8ZtQUkklFkM0BzYxNWr1uIk447ms+3w+AdOWoEmpobcfttt1trvxxKy4N++2Ol+6VbdenE4nGs37CeccriM5/9DC7+zsVIkVxbW1vMn6CZU/fff79ZIUuXLnWr45KcNWCul+wkHiL+UssoKAZ+P7j1zvvxrvSYoK1EVOKmcZWmlkYeLODr/+/r9rJfhHU1xutyFI9ly9ZSNP6Mp595lcdrKSgFuzaTbaPgULQpOvqMbLQYdogQOwOx7n0PvCQaTbIiVLNwsUJEE1ZROlaSVYGjcGivWPhE8m5/S7J3/jsgcfDw13toKQRHHcHjOuLCLvUf4q0FDdJqtVZSorUg9DxzhThefnk5Jk8cYi1oHuSjVn9+AVOmHIJZs2dj2vPPG2EHn3+0QOLln6ae6rhrcbswO8qjypTb98cF+c2zcbNy5Up7R+Oiiy6yGUkSA3VRxeMJ1NfWo6a6Btdfdz0u/vbFWL9uAxrqGQfeU2FpzEPwRC9oGyT+0nOlzkP+vPWifVkYCl/xta4lZofSaQJAfxs3bbBJBB/7+AUUgyQ1hPeK5OgjjdvvfghXXfU3RONObHUfb41oYJyeQtEIsdMRGTL2g+3sHzHLQVVYCxi6fUTcIoY5dUwX951zg3faV2Gl1NjvUui8ld4K6KhQHa3PEHsGfNnw8GVH6NergGuv/TEmTRiFgoguX0WrIIJVa5bhYxd8As8/O81mNPmBbJGpCDZbcKvB+nBMFOg8AYt4s9msEa6Oa1/He/buZQPK5513HvbZZx8b35AfkbPiOH/uPPz85z/HbbfdZse09IgP3yOYFo/gsdJ9/7vcVt1Pipu6k/zLhz6/vADp/LoNa3Hsscdat5m+oii4dMbxyNRncP4FX0E6X0tBTrAOtlflECHeUGwmHB3oEA0PX1Fd5e8QEDtW/IiPFxZd788J21Kgnf/NxcNXtBBvTeiZlj5DHZMTOU6cOAA/uuwL2HfkSBadJPJRlqNoDq8tWIJvfOMbNjjdrUv39um6EgwJgywFzcIS6XrCdeUH5k9h6xp1LQ0ePJiWzBQcefRRtpyIwvDXKZx58+bhlltuwX333IvFixdb15CulagIPv6l6ejsd+k12gbP+/QL7cJIKG1eBOV/2bJlOPzIw3D55ZfbMii6TgPeml314ksL8JnPfgdLlm5C2sLOs56FA+Ehdg1KhEOFuUMsNt/f/JysEg+tfGojJFaBuTWLRa5IEu13CIa3OeQvFI49H+45k+CjcdRVZfGukw7C//vyhRjQvwcfvyZqJFSgMGPGDJvR9MADD6BHt55GpiJ1dTXZjCJCLW8RvLqbJAYiXnVxaXB7JMVIloXGLOTqGupNKDT9VrOTFP5DDz2EqVOn2liGxvAUvsqc4ugJ3KO0LHb22+9X2gpeJLS1OsJ7+X2lRd1qx594nFkao0aNsmst71iZ5i9aii9/9Xu0yhYjm6+h4KYQ4fGY8i5EiF2AzbuqAgXbV/BKCC7V7K+za4pWirdKkC+2Btu7uZygSEQ0m6t0OYRgHELsmdDzz8X54LNRdKuN46MfeSc+8fGzjbgL+SrEaHmIVGfOnGnvUNx9993o3bOPkavEYsiQISYMw4YNw6BBg0wo1LUkC0NdQBKWrl27GhFrKq2EZfny5WZdzJ07F8888wzmzJljs6s0ziAn+PC9YGhfCJbJcuXTH6vkT/ulv/09vIAoT7SvxRX1oavTzzzNrK699tpLK6MX60wUazc04+vf+i7uvudpNta6sInG6wtuIBzZ0OIIsWtQoavKF9QOuILvW2BFUdgCW1oUqiDer32dzAsK/eZZMbX2juCPBRGsbCH2LGSjaRRIdBr0rq/N4MtfPg/nfYDiUV2NQoTlgsdF3EuWLMEVV1yBf/3z3zbbSsKgciHSV8tcFoa+maGPGUksJBoiYF0rP5rGKiJWC15vheu8t1i0lcWisqdrBC8eOubHUlzZ3LI8lvtdrsz6Y8Fzuo9+ywpS15jiorhuatqID33oQ/Ymu6yrQrEhJr+axnzRt6/AXXdPRXMb0JbO2ngMcn6cJ/xgU4hdg4rCUQpfeTyClaBzSGyCglDcZ4VQ94DCzeeL3VpsP6kCCDbjqiRmm1s5vnW1udg4dHQxCD7uNjW4iC3jz4rXfr/Nrw+x85HLtyFOstQU3QIySBRa8LOfXozT33UYIlGJQ8zEQ8+upa0Z11z9c/z0p1ebeNRWdwwmq7zo3Q85W4Cw2HqXE/GLWCUKImb/Dod+e4HQvvzqt8ZHPLz4CL6slJaZcnVAx/xxhRv8HTwuK0fh61iyugqLFi3isTgF9Mv4yEc/jK4NXeiPaWQ9UQnf1LgJP/rRNfjbTfchnWlAniKRrAFSzJvqeB3DcuMfIULsCmyzcOxq5HNtHSLSPmbiu7k04P5GCofgwygVvhA7A3oWRtjMcy39naeQRCkgP/jhpTjzXeMpDt0s26Mkw3w0w90I/nPLHfjuN7+Jxo1NNuNKEPlKIGQ5aOvJ3wuBtrqPylLwmfsyEUS5Y1uWk/IIioLuKeieipNEyMdFkB/517nWVBtFz31p8Dvf+Q5OOOlYOyfRVNmjdmDF6k345a9uwPV/uoXHai2MECHeTMS69t7/kuL+boUIW1T6DGYkKkez3n5r4bckKYS1SYSgysqWqaq79r2LGNl3kIBaYva9Ah5zbwOw4pY41uaib4eOl9O2JJMQrx85m1abILs6i1PZrBfbNLuphi3wocMGo76hmo9FXZoxeydk331G4rBDD8OSxUvtjW6JhSwJEbEnZz9e4YXCk3SpE7b1WBCVznsrRvDioWPyo9+C9v1xobm5Ec0tzbZe1w9+cBkOOWQKL2b5ZJnWqrYyqhe8tgS/ufYv+BNFI5tnHYiE3VEh3nzstsLhFmZzrS4JgXVd6GUybVX5uFUFi1JYVJnceVZmfd9aJjv9qvNLwcjYd1uSiIXryCSILX8rDrI0VOnl3wtJiJ2BTC5DAiUJ8nmITI382ThQjk997Ak0Nm9C/4G90atnLz592pci3UgW/fsNxBFHHGkD6Zquunr1ahMMP/Yh50VDBO33dQ//jL2/Svvb6krDFILCoK3S5S0P+dFvdZdpbGPgwAH43Oc/gy984fM2bVhF0xoy3Ikwb56b9gp+8vPf4qZ/3sFwuzJwptFCDhHizcXuKxxG/t7xgMZEtOaOVVq2ykgyTkTkeIwVVsdkpbg331mpddzERgGI/HmOgTkRkCBsDvnzrhShcOxk6FFSJVy+uhfi3KC0nmMVZs15DfPmvYb+A/qSVPvyufKcJlLweVfRIhk/YX/sO24sqmuqsHTZEqxYuQKJpIg1aiTtxydE3iJzj9Jn3NnvoPMiEXQSAX9OzlsWgvb9ff15zZjS+yda2PH0M8/AZz77aZx88jtRp9lkvL2uicWiNtH9nzffjauu/hOeeOJF5CK1yOs+KssWYogQby522zEOP5ukPFiB2mNdwR+vV0UMzuKyrTrXNeDIVqA/5s4z1ECYIgTBn5PohNh50AeJcmlZHWqVu7ekxbOOkDWrSussAUOG1OOTnzwHp550PLrUNtCPnpsjaT3D9evXY/r06fjvf/+Lu+66C5s2NNqHl4JvY7tnvTn8cy1F8LgvA5Ugv144/HX6HTwmp4F7vanep08fnHTSSTj51FMwfvx+6NKlnknRulPKA/kH1m5YjxtuuAn/uPl+LFrYiKq6eqTzLVY4tXRIJBeWwxBvPnZb4QgKQrAyCwW1UjV4KCukvXJ3+NfAosY1triu+NsqtA24e+FQHzsrZtF7cPZWiDcG6qrRexcSDEEruEpEzOrI5miBuLGLfKEVtXV5nHjcofj2//s6+vSqdkYon7sEQdcoDM2o0hf6/vzHG3HnnXfa1NZu3bq1v9vhnnP58uBR+lvoKF9bInhO1+q3j5e2eodEgqGB71NPPRVnnHEG9t13X9TW1zHe8stSyDIoSzmTBl5+6VVc/avr8NjU6WhtiyBZ1YCm1haKIK0xiqwQTrkNsTtgNxaOypBZXx4SAlbIYoq2rPTqOgi2Pov7ReskQqetKr7eOeloqZbOuBKC4bguCYfgcSF4rjw5CVvGtTScIDYP860IdSfZ0h/60FNRqCUasViCqVPe55ChS8TrUcjw2USb0atXHP+56Ve2ZpMXjUIua3kni9DlbdTeCr/xxhvtxcH58+faALre8/B53GGtOqtAx/1z8dvS5+H9eWjflw9ZF76hIutCgpHOZjB06DCcddZZeO97z2WcR7Q/NXXD5nIZRJl2liw0N7fivnsfxvcv/SFWrWVcYl0opAVblj6ZpB+mP1pw39/ovFyECLFr8JYUjl2NXD7F+lq0TopTgwW/1UtsHXAVu4Notl84nJ8OgiglsdIw93QE86yQXUkiPhOf++wF6NOjCxrqq90iiYU48sVskXdx7KpVK+0Lflrz6rnnnsGKFStI2AVUJ933NVw3mRuL8JMrSqFz1pDQPYrndY2cP57PFxdVZNnQIPeBkyfisEOPwhFHHIU+fXrxOvnXdzbU3USxirA8Ma4bN6WxdMVG/PjKX+POux5CLFHNwDVG52aGhQixuyIUjm2AJ3LbBsZO/LkCicOjQ1RctjpRKd+l5gRgyxaku7ZDHMoR2tsNHfnZRusjh/79uuOcc07BkYdNxphRw1FfV4NIjM+G2R8cX1DXjsh9wfzFePXVV22pkWXLl2DRooVYvnypffMilcrwMXSIgt/KKe+988cVvqyY+i516D+wn1kW6o4aNXKMdUX169cP1VWa5eXCcON1Pk4RrF67EbNnL8S99z+Cm2++DWvXNSNepSXc3Zvq4XhaiN0doXBsEzpIXHDiUBQOzYGxZVOKJEHnj2vxR/ttxCFIdJywCFuKShCb3zOEI205fWY7m00hEc9iyJDeOO7Yw3DwlIk44pAJxUFxkrt/QbT4PECLRF2cyup0OmULHa5YsYwkvgbr1qxHa3Nb+5iExkuyxbEXPRt1q2msROthaVkTjZ1ov1e/HtYFpllS8Xjxy4A2vqb7ZWk56NnrGyR6ylGsXLkazz43DQ8/+gLuu+9xrFu3kedkYVSxvOh5d1YeQoTYfRAKxzaAdG/bjgq9uZUgfggKhm09YdkijwpBXVza98KhcRMvDltaHaFwlEfeLL7iwLjoNpqlBZLFwEG9cfCE0TjggPE4+qjDMHhIfz4XkjA0BqLn0fH87DmYhcE81pTt4vNTd5PGXSQavhtK18jC0IuFGmT374vIvw9PQuWPBZ+/vbiKBKa/NBsPPvIEXn5lDp5/bjqWr9pIfxIaUAS1tpYG7zuW2/HhhgixuyIUjm2A+q6FchXaCKLMGMdmKOneEkQU0RzDaz/nhUWPQ/42F463E5lYnlZIr5YfKeSL7/GQ/DWgHtHX8NjCj+Xb0Kt3dwzdqz/G7jMCxxx1KA4++ADU1ZGctXAig1T2KvxYRN1Cuocb2K4EkbmEw8PHTVvGwh+1//U2vPe7dmMTHnxoKh54cCrmzFmKJUtXY1NTyuIusTKw3Ojrm+l0m82yEty4S/m0hwixuyAUjm1COYvAQW1aPzW4A25fBONEpcL1Zo24Vmr7+yYMx1q61v1VDpXjsqfA8oEoKx7xPFJtGVTFE8wn50fdRJqlJKfvUuSyKdRWx1FXm6CQdMP+48bhxBMOw4GTDkDv3l2dhWHWhCwWN5vLXg4NCIS/t7c65Hy8BO3rWDqdtecfT8awbOUGPPTQI7jvgQcxY+YCNDW2YeOmFmRyPJ+oZrxoKTFYW5sr4952z5sIgvtuSXUhnHIbYndHKByvA0b6JAJPMpujKB6bWSNB+ONBIRATSkDo8lqCvigsdCIwbeUnVvL+sDvusHlcSkVmy7gEr/XYMj2l4QRRKX07jsrpATKZHC2IGrS2NdrYg/JFnzUW6efo9I1zxVfvgpCe+dsJQya1AQ1dqtC3dw9MHD8WRx/1DhxwwD4YMKAvklW1TMbmA9Kl9w3GSfcUyc+dOxvTXnoZjz36FKa/OBurVm9CNsuno+/306k7TPdOJquRopjF4npXJUrRoLVpa05FrWtM51vTre3dYFtO/Q4RYvdCKBxvAWxOWhSUdlFxYuIsFtedFjfi9PBi49A+YByAXV+iE0HSdNdvKRwdfna+cOwsBNMustegutKSy2WRy+utdS11EkPvntVoqK9F9+5d0aObPghVg6qklrQpIMMgNPahdy02rG/E2nWbsH79BjQ2tZDslQdxE61opDj2YWMnyp/y03tDhNgTEArHWwSeBDsG17lvYy/OIvEioS4YOxc45hFsyTpSCwqCa6mXwl2/pTi8VUjRp19bm+VkeeLyRd1aSkc+n2wfII/YWFNxTIvJLhQy5qdQFAZIfG1Ly6GQ5lZhaJyEx4rWpcYo9Nv5DxFiz0MoHG8ReAIU1MJ1v4siURy8Fwo5HXNi0u784H77uIkXiKCwdAhHkPDc+c2F461GiB1p7BBGpcFZagUedemTkAgd/nmMQqG/bPFQe9ptXCuNmCmOzx//XBxC4QixpyIUjrcYSPVF0gqSfIAQi09TBOYFo53MiuMk7nhx37eui10sOm6kuhkB7hkvpPk0BQnd8iDWIbxbgHlN22Kz/PAoMF803uTOdYiHQ8czCRFiT0MoHG8xmHAEUNqq9cLh4MirnTDbyUyCUXTeWim+/O5a4a4lbr9NWIpdMQGU/t4doDhXilfwnEt7R3eSxjL8Me/PO/1WPuqNDNsvCrbbV3hOKPx1IUK8HRAKx1sMjsjKE7cNcgeskQ6435uLikM7GeqdEkLvQ7h7BETFur8cNr9/6X3eXHSaNzznj2vf/5aTOFrW2VleHy0gW3DToqORasQKtCuK3VjBPAwu/R8MvyNfvPURIsSehVA49hAYGZK3ypFmh3BsSWS6TnDdUUEidKJBCuV/zgLxrvOpwR3dPpt3cZWKTDlSfX2E69MilOZDe09cO9y9dE0kkrCJAxILHbcxpHb/HfH2olHUkLLYPA57RhdfiBClCIUjxDZDpOiJ0W1Jqtk0S5GExItLZeEIkmoUCf7fQcoG3w0UEI7gNR7lxTFEiBC7CqEtHWKbIcL2zt5d0At3ySSicblq7lfR1SCa4G86CYd3rqh1OLXot3A8s6VMbI5QNEKEePMRCkeI7UJQNEwQ9H5DNIFoTEJRZdtoTFu6uByPx+iHv+UQiztXBn5wOggnVDrmupG2sFJChAixyxEKR4jthuuScgTvyN4tzGfWBSgiGjOgi1FQYtGkcxSLeDyBOMVDTl/+i+ij4jxe0De3owzHXPlxAW/p+HsH4xAiRIhdi1A4QuwQPHF7Qi/fHeUczQ9aJfHNnBcQ55J01eZsmXE6W/020M0lYeoYlA8RIsSbiVA4QrwuqBupXFeSI/hg8XJi4oUG1s3lBaXY3RWPm4vIqcur2M3lu7e8hdIhVuF4R4gQbwbCWVXbAM3Xb29dF9T6dVmm3/74Zi3h9qUr5N/5C2IzvwS9Ff10tKj91FlHyi4sD+9X0GFd4xYw5PUd3rZAcDpu+33KpCF4jCHyiLuXXoLT/x3+czxV3OcpbT0srEiCVwdnWflweW7L+bEGnY/6aLa/J+HipXjksmnzE3SC3+oekbyWSXf30m1ktfjZXv64h4+zlmPpOOcEzu13vEnv/CpyLl56+6PjnIuLHr3u55LnnqfeL9fWuuKK8dCxPRU+P/KyOIv7yl+lX/nnqofLV42VecivrEqHqF5FtT13fdhQ2J0QCsc2oBDxL8WxwkeSxcLdQS4q+zpmJMsKEk8m7NsQ5odk7Qu8q0S+8NN3jpWHLehMwX2bQSu26rq4ltwuVhT7doPC5i1dt42rSDG9oMb9As9nCm2I52vZas+0U2xZ5P1CfS6uFndu3bGo3Uf7crqfPiqU0/pWkRR95RHXWEQ+jnyOfphm5QvyMcTjUVtBNpZQvEmMJAilQy/P+TfRO8LNM1x9h0Jf5ivmHwlYwqgl0e3bGG4Z206h67zzv7O5VlRXxdCWamJcGWNGJaf8jyYZjwx/Z+xLftks710kcxvkp18tw6706hqLi9LOuCjuiWTMlj9PxKv4W8+A6WZe55gXsViVnavifTNaOl1igipkIwqP+UChS1BAc8qzuMJMWbrf6sJRXZ1E/z49i782h/JVH9da09iC9ev0jZRNiLLsORFPoIYW5d5798CUKWMwYdxo1CRrLH8WL1qCux96FnPnzcOmJuWnLM40ojHmd1aWZqelO8QuRCgc2wCRrJEciV5fA5RQeBI38rImFA/yfFVCX3Rz63eYPxGYEb8jZRGSIIKyMEiyOudaovqehJtx5EjVfU7UX6d7uZe4RTvumkI0zhhlEcvVMii2xr0ulUDEr0X5bJ/hsEZuFnYuR8FjhRZZ2u9M2sVB4RW0dDhFiRU3l81T5GooFCkTDL00J3++RZjPunBEviJJhaXxboVrmsL4GrFQHEQEIl35Vy5LjIQISWZrsDQU4ffjiQKamppQX99g38swUeApCUWC+xIxCZzi6Vq67rnwXzHOTuBy/GMkbF9p11L17rsZEh29IKi78Tr7rrhLj32BsPiM8jneiw0CCZWWbVfxUP6qxW1hElZk3sKYPHkf/PTHny/+2hySxVwhiev+9G9cf8OtzPc2imctUtmMCc7Rh+6HL3zhoxi7z15QG0F5EWF5UdHWx7BuuPGv+Mtf78KmZuZynvkelwCrvFQo3CF2OULh2CY4k1tdViINI2wjK5KGCQhJxpbfzmDokP4YNKAPevXshvqaWtTQiaSMxFjwRWgbN25EY2MjVq5dx9bVUrS2iqD03WlaEuRQkZQbHHaCpWtd65fn2arPcL9/71r06FrLSsn7x9hyzko4WpHrrHKRBNva0li7XvdvIlFrLCGObIZWACunSNS88T4SBaVL940WaDlQOCJRihW9uFa3Ey7aIRQ7ddrk0LNHF+w9bKBV9AH9+iFPxRBpC6lUyr5psX7dRixdugwbG2khkITt630ib0ZbLfRsji10hrkjyOUpZokqkpYInAdowTF07qQwcEA39O3bB7W1tejatcHSKkFT3q5fv94+BvXa4mVYtWoNGpva+Fwloq6bSdBzVxyVHwldqIYChVi/zRIj8UVpSdlzIhPqk7Da5xn6c3nA5PJ5yurj+bd4rTvy8An42w2XFn9tDpWfPNP846tvxE9+9g/mC/MIdUjn2tC/Xw/84JILceIJR1OQZfkV65au4bNSPr46awEu/9Hv8Ohjr5rYx2mpZdJsVLF8hNg9EArHNsIKt5VbtUSLrXV1g7Cl2ad3V0yctC8mTxqNkcP7YUD/7mior0JdTRWFo669JSqIQFtaWtBIEl27thlz5i7Dc9Nm4rHHp2PZqg0kTn1ciORC7yIeCYeudy1jVjQ20bQMyIfedxxOOfEQEpAILMUGcjUj2UI+K99aV4eQxKmNlsS6tZsoHuuNIBe9tgSvzJiNOfPW8l4KK4Y0W4YJErCQzWrp8CTTLvJT2hk30aGlnxZWMosDJo5jC3RfDN+rL4YO7Yvaqih6de9mBKp0Kw2pVIbpbsMGitaKFauweHkOs2fNp5uHWXMWkx5IDmTmRDXTobfRdwBG6slqEyt9K6N37wZMmbQP9mPLdsyo/hSO3qiqqkK37l3pWyIp8ZOV0mJfFly5ai2WLV+PBQuWYyHdM8++gFVr11BUmHUxTSmOWHeUEJPQm2BIWF1ZyFOwoskohb2NQRcoME5IrAEgpeCzy+ecKJqgvIUh4fjr9d8v/iqFWhdZ/PSX/8DVP/8387bVui0RbcPgIX1w47XfwYjhezHvXL6pzDnrmXnFbFm5ZiOF4/e45dbHkZaFyLyLReqYY+r+DbE7IBSObYCRgxqZJE11t1gXBV0DW68HHjAMZ5x5FA6YMBa9e3VHhC3mGprjVnly1oYy4pQT/LaQV2WReZ7B6g1rMG/RKtx2x7P469/u43ESdaHNukHk31q+6vJhHeMuSSuC//eVc/Hxj5zK+snKF2flQhX9UjjACloOTENO6WBC1N1F3keKZLlhwyasW78JL7+6Cvfe/wieemo6iY/iQSuEdoeJWJYVX6KpOGTSIkTGPdeKQf174fNfPB0H7L8fSbk7hVKCpy/tSaRkJRXHEMgGup/lg04xD1tpHejea1ZvxDPPvIIHHnkez704j4LqxlK2BV6MPWSlZbNtSCbzmHzgWHzgfadi3Nih6NurK6rZatUYiohfabLnY1AYxYYAr1c8mylwmzY1YsFrr+HRJ17EoxT1p5+dZWNX+rBTlOmI5mmR0IIDrcxYNM00SV1YPhheNClLpYB0Ww611T1paeSQSjcyXrye1+m5K0/eyjj8CFoc13+v+Gtz2HNhdvzkF3/DVdf8i6Kr+iKBSFnD4q9/uIyW+QD+ptXHPJNo65vtZsGyXm1qzuCyH/wBN/39fj5U1ZcsxZuWbdw/sxBvNmJde+9/SXE/RAWohS8CTKVcwa2uiqC+JkdiOh5f+eJ5GD9uCLp1q0YyRqqVRZCX+U3y09RR69dWpSk6UrycBp21F+M19XVx9O3TCwdPmoQRw4Zg2rRnjdRFLQl15ZDpVRn1Ep2ILc/wD3vHPjho4mhXr9Sa5f3yEgZbA8rdYzPHihtRK5nXSjxicoxPty719h3u0SP74x0HT0RdbRXmzp6HVBtrPv20tmmcgtfTb55xrk4mkc9uxJSDRuCXv7oUB4wbjD596pEkh6q/WgoTURcerYcoK7oGSammvFz7jLzEg9s4xa6hLolePesxdtwYEnoOL74yF5sa00yTAtp+qAUbi7XhnNOOwiUXfQr7jx2ELvVJJBMkJd2azzCqvkDG0ESbrqB8UXejHi3zOMrnUcXn26VLNQYN7IXxkydh1owFmDt/Jc9X2zPQlwQLFEWN59TWFPDtb30Cn/nEB3HaKcfg7DPeidNOPRqnnno8ZrwyE8uXb7BykKxK0JJL8fm4rse3OtQle87pxyo15R3T+PjTL5krUFxzLA8R5m+XhgYcdcQk9B/Qh/5cfbIGSXFygqyPlavX4+57n8K8+Sus3NhCmwpTRTnEboG3fgneBXAFO49qdaOQnKsTOXzlSxfg8587F/36NrAFXkvurmKrUuY2K0icRE5+ypFg1IubIxH6bZ4VI0eXJ6mmYq1gw56kVY/qSC261cZxzrsPxDU/+SKGjxhKHsuy9Z+1cQ2Rm5EdlaOQYCu3SuMLbQwvYwSYM22IIavWfdFpP0eStt+sgBKYSEwipIrIihoXqdP8j6iV3oT+/ZL4+AVn4UMfOgsNDRQstt5r66rN2jCyY+WX9XHoIfvhih9/FXsNiqO2qgGFjF7ak5XEYHmPXIQtROaB1s7NU8jystSUZo0b0I+maSJfywhrXKaGVkwezz73MpYuXU/iblCWV4SfGu3g0iT1tHGDRBannHwMLr7os+jfqwpJpi1JtolpcF9jOLL/lB/cuuuUH3wmSPN5UdjIW9msZtCpi0kCXIsmWh6PTH2MIkGLL6KXFWsYxxq2kGspGgmK7f644LzTMWXy3jj2qP1w9GHjcPxR43H80QfaDK+aulqGmbNBeUeMij+fHbcahNdW6VAzQWMockqfP+fT2nFNx29Lf7urDB+2wuy4riOMYFg+Xv7+wXj5uMmpwxTWdSRrV+XJ7ZtjvmfzafpnvkYZNp+NVhHQuM+qlWtxx533ojXFkHmcphvvmqMV6Mp3WzqLadNfwgsvvUjRKLDetUp3ea2Ls09HR/y2TIP2vXPHgvnXkS65EDuGUDi2BSQeCUI634aa6hg+fM6xeN+ZB6FW0095zn3DIk/yrTaLgFWL/7HlXMio7W1O9CTHNi6JjMfycVQV6t34gQp7VBWtjedjOHjCfrjw/ceQyPsgK5Knia+Kqv5yEVyMVgOZmceS5jQTK6pWvawO+jOoT42h5VmpNX1W16uequZp6mM+p1a2LBDWRJ7N5brKh3XznP++E7H/Pj0Zb5J6XoP+EiwN2AN7D+yJz3/ydAzuU4d8huTPShiJ8x68Wt0O0SydddSIRFp5bdqIxY0H6U5qeZKgi3kmIn9l1lzMmbuOv9XdtpbXVUZes7tkNVk3kRsDUhpEZuP3rsZl3/w4xYweKVaFaBWTy0jTnzhE16iLUIPyFhYJ3aZEF5JMBoWC+WdThQspIxf1rjz8yAtobuL9KBq6h8hQIhSNVSNRlcSZZ72b4btxKG31pryb+dZCa7EL2triiFczznrmhTreQ/HRJAv6kxlkoufi7wSacSzu65zKk/LLWt2KE094Ale6NC3Y/Msvj5dz9FR0xesC0L1tK2JWPvG84iCYSOs0ww7CPUuWtRxLNJ1aSbbVMynmsVYDiLFsyq/yPcI8FdrSKfzrP0+y4XEDnnxqDhYsWonlK1dgxcrVeGXmPFz3l3tw1TV/w8oVa1hSaO1qnCjDMC2ftJKAyyvLQxVhZpBLQzF9RUnQefvNBKjMWV7wjNJjaeKvjk8ph9heuNwO0SlUUDXdlHyBd0wZi8989gJUJYskQIg0RAT5LIWCpVmVRd1LggqrWtnKagvHbA8N+Ik4aS2oZZZXH67qZ8L6w2OJKI4/4QicfNKhqJeVQ5HIkWh13N+zEkykSEiUB6s7rvuGW/65iqNuIt5Ln0slI6l/WX3z6re3+HFbW5fA+z9wLmpqqpkOCYdLn8TpsMMnY/jwvYxcFK7iI3ITFMe80iXC0YFCDUmEwqg5/DKJGCsjQaZXIpSjEGvq8nPPvIq5CxY68mIKtgbF0TtB778ovR/84PvQtRtVg+mwFmaRVCTbUVpBZv+xFeum3jIiRdLWoK2sN0WaPm3gO8HDTZvW4447HkFTM0lKBojeKWBeZDMMk+K1z6ihOHDSOMWA+aR7qtXs8jDHMOJxWlRx5i1JtKqqjmIp4dGzJOkyqRIpvQejfZupRTGXZULGtfy2WVkx3otxKdBvVg0HCpfSptWHFQfk3bslIkiVtkpOZUJGlgkc4cLWt9RlZdBOYCQUXoTx0Z/iEyWxxhQ5xUkFVNYv42PtdRG3ygSdT/M2geVmbWMKv7vuHzj7fZ/Dpz77Q3z+K9fgi1//Gd73wW/gh5ddg3nzljFPqpFifii/CnpPiPfO8hlpsoYJG8WIGoSqeI11GWqZGnXhavJBlI0xG4xXbWB6Mky4LX3DZ+u6JWWFAjWqTyF2CGHObQNUUSUIPbo14HOffT+qatWaLpKOzTZyfoykRFqseBEW3LUb2jDtxTl4+NFpeHTqi3jy6ZnWHZMn2cqfCE+tI1U+IxERdNy11rt3qcLZZxyF4UMHkGw1ViKfEhoRQXmIlBm4OcVl7vylmDFjEV58dS5enbkEC5esRXOKBMFoa7pkAe7dBNdiJykRjgSAiZP2I+GJ4F2aRGgNXZI4YNIYdO/R4NKp+ykLiukWEYmkm1qyeHXWEjz46NN4aOpTePKZFzB7/gKs37ARGbU8JRBMk6b8Ll+2Bs8+O4skoPszTiLDTiCLTNB4jt2f0FjNwP49ccg7JjFc5Q8FgnFSvgoWV+adcnD9hhY8/8JseyZyz02fS9Fai6ZWBUS/asUzb5TN05+fhQU8p8mkGp/QM5IIipgQTeGE4w9mmaBQsZGgNbeKmWFELOHgUZvF5SzChL3oppcIZZlq9eBkos7SEyeLkd7YMEkhyedsA8l6hkyfRNYeDa0xdfVoaqppjETEZI4NGl4fZVmSMJR1yleGL7iJFkyDCRNPigIkEoyjLGczovOtGDNqEI454kAcdegBOHzK/hg5rK9Zo9lcivkh4WA6A2XR6kIRwf1S6FmooWTkHq3HSy+9hqeemclnMZ31hWWDgmQzrWwsyZpBFlc5BautwhASsrJyrYxzHt265jBxwlAcfeT+OOzQfXD4oWNx6CFjMG7f/mho0GuZtNr5bCO0NiWKirveKwmxYwhnVW0T1ILP4wPnnoSvfvVMdKGxES3UWwGORHM2hdbGj1myRQFtaWDq1Odw250PmCne3KrumjgSJFaNiZx80tE4+qiD0K0LBUPEzPqn1lI0xsrM+9h7EazEzek8fv3ru3D9H+9CY7pR1ZUkUYsIW18Xff09uPD8k1kTWcl4b2sFKj6MgypelkTyvcv/hBmz51mrvpot1JraKowaOQRnnXEcRo7sy0qXYiWiVcAWqzhWYYgL1K3Fdh0OPPgCbGprY4qqrKW337hB+N63Po4DD9jL0iMBzOfUjy2hVBWPUQAK+NXv/4HHnnyJJN2MbDpt70706FZvA84jR+yFAw7YH+P3H8HjUTxw/3P4zqV/wOoNTSQL3pyEawJYAZE45bOVd6LoFNSHznjEmYdHH7Efrvm/z9m4g/nTsygSjI0PkZDWb8zhyp9ei5dnLERjcwvjG0FdXR0a6ruhT+8G5skAe7FtzKjhRmw/u+o63PDPh5Amv2T1EmG8munRWEUaB07cG9+96GO0OgYbmUktZI2ISnMaN2Je3nf/y1jHPIjEaM3kEiZwsspu/s+jFK/51mWWTGZxzmlHYsJ+o3iFGh8SZMbbBJviQAFZs7YJN//7HsxftMyet9Im0pcF3K1bLc4843iMHj20Yr4tX7EW/7v9YcyavYDljS10WQssdLJSbDViMXKuheRbg1NOOh77jh2OsfsMdQ0ERkH3WrlqDV6dsQD3PDgVTz/zIqYcPAE3/u57ln+CFwtfBhWVK6+5ET+55ibuuW4hTeWu7xLDe886knk9kr9F4BQ1XVO0rOK0Mlas2ohbbn8Ac+cusfIoaAxE07UlhNaQY1np3asBBx80HqNGD8eIvXuhX7++FAnGmfko0dEz0+y4RYvXYt7cRXjuuVfxwvRXKRiyT/XSK8Nx0Q6xnQiFYxugwi0L4Lc/vxiTJw0gKZNwY91MTMQZarhpGqoqTJYkfM99z+Hqa36PhUs3IJUhWbCgaiaTa723kaS64YxTj8InLzwd9fVR6xaJaJomA9NAtr1MaFUPeH7aEnzq81dgTWMaLakWmuYi1mhF4bBKiARybNW/572X4akXZljLPpKv4vEMRS+OM959KD75yTMZD4oGiSEWraYAsMUqi0FkotY5W7fjJ55PwXLkpUp+yJRRuPgbH8DYEQON4BVfaGBZg9+s4SKul16ah89/5Qq8tixlYahyyltMNT6fQ119NXr26o4BfWI45ujDMePVxfjHf+6nIKjLJYMkt4GG7JaQUKcpW3pBkfu5bIzPIocPvfc4fPMr73ETGAjFxwhdMqj85d8d9zyHr37jClpdSRM9dePFi10vintXtgj69K7H6FFDMWaf0bjn7nvx8qzFDEsTBdg4YHBd6xN45wmTmbcnYZ8R/VFTlbTnLuG3acfMPRFbjBZJNsd8lZzKcmMYWhJG896++s1rSYzP2IuedVUZXPGDz+HUkw/hGcazSMDKArMUmI6581fhG9/6MZ6dNh96HOouEplX0zzo27saP/jBFymck+lfIWyJV2cuwiWX/hyPU8xj8Vo0tzWjtjpuabKuGwrwCFoUX/rix3AIibhn93pavsXlb2KaWi7xAFLpKBtCq/Hba2/E4kXz8dtrvou+ffvaeQ+VP7MKuF9OOPr0qcXVP/gCjjjiEBVbHtNZ9dPKKlRuRTFrznJ89/tX4fGpL/M4Gy2aQSJLJFLD555FVSKPQ9+xPz70wbOw9/BBFJCezEd1cUoMeWf5pTBoX2VJ9aWFjbflqzbgsSeex7V/+CvmskEXYyMsamOBIbYX5UtaiM2gLpiDDhqHvYZ0s1ZjMtalWJBJxRlXwUw0aHmsXteGr3/rB3hlzmobGFWXjKZwanBPfdxg63316mb857aH8Mgj00gwSZuBApJf3gZq1Q9OAeF1ahGP328v9O9fZ9Nju9R2Y3iua6wSdI1IkCGwFcd7M3zxZ4pWSobhbmpOY+bsxWjc5AbiHVy3jkRDU4cd4eZRVVVj5KLWuro3khStBMOUH6VX02plZygP7JII40jSicRIAvRTiDQjntB4TtosIC2NsqmpCfPmL8TjT8/BT376d9xx75OIJRMkKlpk8TreT1ZEZdhgJ2+m+5lIinnIauRvRxpFBEVDIpJJt6Fvn65It7ZZuiynGEcNRVVVJSjwaWzcmMbChRtxx53PkFxuxsw5y1z66ammKoJ+veP4+lffh699+UOYsM8wHqu2+Miis2nHRnzO8ooUXBdVQp3pFCgNxEckZiRQF3dXfoxoRZy0/qAGA49LYI3xFEuWG8U1Gq1FLFGP6qo6e8nRhM/WytI99MwlScybMs7G1Rg/3UskLHFVebT1xBjfvQb3wZe/9HGceOyBFA09B0fgKjt59bsxCRLYKlp7+4zuj8996gM46aRDbRUEVw4knC6+W4NZf7QSNWyiR5dnWnMShjwbVizzeZaTVFoTC9iAYGOrpTVl3bcal1I56tY1gc997kO47NKv4PBD98PQQT0pgsxQdbfmmFrmiyZp2NasUV2Xswba3sO64QPvOQE3/OFKnHr8FCSj6p8MsSNQ7QqxFahSDB3cD3W1JAT1wbNQGmGRKKy/mFXT+pzZJP3bTf9mhWLGRrrwnLqB+ANt9KOZUerDdf3vK1esxUOPPIOly9TyUeV2LUmr7AzfOrJFQKwsJ598FFtZ1di4vtH8VIJdy7D1noHISP3eMbXKC00kVlbOaNbIu2vXrkgyPBMMEo+Iof2FNG6Ulnnz55FklCa1SEU4JB5VTpKPWSUiCxMxWkxxTcUliTP8QUN6s7V4Eeq7JmlJkSQYhMZo7P0SzV6icCYTDQy2AW3pGrSy7qp7Ti1oZaFl69age/OZ6BoTEUZRRKxBU/GXWv82u0kkTOidFXUJHbD/CLbOLyY/NzPOsoTSJMQUmhobUV9bR2LOkrQ2MV0ZikgK6bYGEk+9kZqWL7n8+1/Ge849HD176MnIsmPDQS9EJooLX9r4iMSfaaIlxNNMmTakMJIfNcPiZdNBabXamJDyk5clWFbUJejEW9ZN8ZzEiP70aV5Nu3ZrfMVZFrsinqxHPKJpzRoM1niAPb4tHG9Jpz0KAAlY3Y5pOu1rdYMPn3cOTjr+MNRU01ZVseNzjuRoUWY048+N6yjyCfXr5NrYyu+D00493tLsyoMLW6k1q0t5UQGy7rLRFkRoaWXQzAixjCZ5vSwORjQSraGQd0UmqwFxnq6myDNSrdk2s/Y+9anz8fGPvRcD+3dhfPj8Ve4Yt4IEmoJXUANM5ZzPIq+yr/Eq1lF188Zi6hpMY/jQHvj1Vd/H2e880uJr8dKz4nOx2XSbpSlEOYTCsQ0okDQGD+2Dqup6agYrUczNhrJWtVp6NsMohua2An7x21tIzQ2s6K0ktmZWaJGlWkCOPNUSskJJ/zPmrsLKVa12Ps/Kmc7pzW9WchKHtTwlUEhi8JCuLNU5JKtZIXJuKZDKYGUhIaZz1YxDii1dklC+l7Wcu1RVYSwr/TFHjkOf3nVWW4ywWQoyJB7ZDwXeJ1KoxhNPLaDcNfMcf7PlpnivWLECK9auZsXX3HuN2zAdah1LQNQVUahFvBDD0Qftjal3/ATnf+gM7DWoOxokuPSj1m2UlT2dbbX+51iijQTaxtRXkaiUXlleboyiEpQ3mlSggWK16CXMWtrkhZkrbKkUZjiJVpQuUVFaGC7/5ZgmLdR41rsPwM03XoIzT56EQX27Uxg0YF3D+NCPnidJKkuCUQ+OunBkTcXVHUXhHTCwC5IaD2I6MyQqrYBbVa3xHT1OPltNP9UzJrlHExIRkY/GwNwgrPxFSGQxkrLSoXKg8pHX6q88p9ooa0RkJitBU7VluajrMFfsEjQ6Y1kSRMIFdfHxvMRJQZRzTjOYxhj9RlopUJpNxTD4LI44dBzeedwEJJhXNgOO/qxc86IY00CfzM8sf2v8hnkerWZpKKB/n+4YNmxYO8Fq68RTpciltxxkjUkgtWKwxtdsSrk+Ocyj1t2r+2nVBJZNWc1qFGjcrD4Rx7tPmIQPnHUSqphHmkRhb+HzOj0sLZKoOHgn2BgRn5EmHij8POtOIV9r9bWqJofvXPIpTJyoyScKj/lBvyawzBuV9xCVEebONqBb9y7o3asb4gmRPissK4gqvqAWr/ZVZ2bPns0WKImCLKRjrrukPHRe6zTNn7fQWtpaZC8Rd2sb+fOqhBKkIUOG2DHt+/uWh7q41GejT7QCB4wfiZOOG4+TTxqPd508HhecfwK+//0v4ZRTjkYi6awkER75B1ESdzRK6yjehteWrsAdtz2CXJqVXHzOCqhFDpcuWYXFCzdaazrLlnZUFkR7fFxafaXt1q0Lvv6Vk/Crn3+Z9z0ZBx04Bl271TFvmKaoxlvUXZEh8SrNrP4UAhss1TpPW4EoUnHXvdTdlk7lbd2rNavXsfVOEhZ5yDIkEVqeUALVkhch6JnsP34Uvn3RZ/CDy7+Is895B/bfrz+SMfpRL1mW5EhysXTE0tAyF+o+07s3EhjlrSwQ6UpnlUfSRSWyPNKgOhnOri0USX9XQmlR2VE8YglNkdaMtiR69e6GQw87CP379zc/vux1oFi2eU5NBdpjtrXlcpS/8lEs42b5kZBllerdix2BL0v2XGVZU4A1DlTDetF/QC989GPno75eVhkJnn4382/ioGO8t9UBNSoo8jymto38urrq4qrf9fX1+Pa3vmITIzQtRU/N2kGyXiikISqjs7Ifogh9d6BXzy6s+1pq3BU8IxaZyNxaweWJBQsWQOsg+fPmpwI8ka1Zs976yONxtZg6wvbXqpIMHDjAxGprYQqKn/VpkwW/9tWP4JfXfBXX/OTz+NlPvogvfO5cTNh/KGrIY5pebOtQUeR4S6ZFBBHD4uUb8Oeb7sDLs9mCb2NlU/+Kqh/N/7ZUDs8+M5sE3UgRtbsV4+OKkfYVf48aCsQ+IwfiU598Ny793gX4+AUn4pgjJiCpbqKYI35bglxhqGVIsrB86QQaK/AVX0Ijp/ckNIPrrrsfZzzVata7MXQiAYuTutQcNL1Vqxh3aSjgsENG4Vvf+Ci+860L8eEPvhOT9x/B9q8EQqTj0+buKaKcM2cpXnx5AWbPWYymTc3WUq2MHObOX4CXZsylm42XXp2HV2bOwSsz5mD9xsain10DR7AkdE0ZpnjV1nRHbVUt+vbugsMOPdDyU07isjlMJpDKFLBi1XrMnPka5i9cYmN5GqdQ/njnnoezYF8vrTC3XZzZ6ld3WjrdiDNPPxHDRwzhGT1/91wFf291VW7c1IaHH56G6//4X9zwp//guednoq3NxcXGViyuvh4pP2LYd8xQnH7asWxo6RlrlpfqoDQ/FI7O8Pqe8NsE+pCP1mKywsx/3uLoGCR2buXK1Tyn1p0jHvNfEcr6KFpbUmZtCN5/6XW1tWR6spSvLJWgSm48r5Y1KGCsBFr9JEayjFOA4gVuWSEYa+tXdyStq9zSJtOnL8evf3cv/vHfJ7G+ic3vKhKzegIYlu6tjyI98fRLeOb56dzPIUdyVoUUvOAJPv7pDAkpUsWr4xi5V3989PzT8J1vvA/f/PK7MWH8QDYo6V/WEckhX2gmIbVCq6BuDU6c3DOQBWMCwrvcfPOjmD13JTWQZGIfAGIGMLVa9kT+BV0qwrexIKa7PlnA5AnD8OXPfxDfuugj+MynT8fggbUMT90/6trhBbTK9DLaL6/9O75z+S/xqz/chPmvLeM5C7IsMtkErvvjPbj00j/he5ffgEt/dAO+870bcPGl19m7PbsWjGjR0rFnqTEbQlOABw7oYfv+mekZ+n11heldhwcfeB6XXXYdLr741/jeZb/Az39zAzY1pcyP86/nrvx140w7DpYhlU7eX+NTZhEz/6v4+M466wSel+i7MuYhvyrBm1ozuPW2By1+l//4WvzfT69lfv8Ut931BOujs4Dk16fNgwYvjjn6QDYM62jgM3dsVWgKphQkREWEwrEtIBvbrBiVWTrf0rUyGPEFLILmphY3dbCI0kJaiixb+2vXrrUuG8FX2o5Cyy3DV/vOuHKroP+oBuC1flUrt/pyn2a+8LgURX3rmhYqElGfNe8j0tZHmR597DFcdc0f8N//PIgNGzWGoLEEt/SGKrBa9frWx/LVa9iiu5kEvRx5HvPxVdwdoXvwnhoQVtz10hpTURuPYviQATj/Pafhsks+jXPPPIZWAfNMY0EkecXFk1olqJWo+7k8klO+uXyet3AjrrzqBqxY0wI2knlntxyHxglc1Cw2vJa7FAJ7sdJEVjPIcjhgv3742AXvxMUXfRRTDhwNrYCc4/XkE6azBtNemo/ps5bhFVoemxo1I6fyQynEopj+8mI888JyPPnsfDz9wiI89/JKhrEC69Y3FX3tIlh/PUnZyqPIXWScxP777WPraQXLqfLLQ/n6wkuz8acb/4e7730Rz724Ag8/9gquu/5f+N0f/mpdhD4POspA52V+W+CFSM9aZe+gyRMwaFAPi6ecrydu321Xr2vFtdf/A3MXrkFzKooNrXmbSv2D//sNNtIa9cny6fPXKi+GDemL/caNNCtc90ulW4uTR0JUQuWSH6IdKsBxFjBHVq7QCdYnbE18/uZGx438ikTm/ZeD8+uW+dZgr7zqmJva6lpd5o9/at17BCt2KTQAqMUWjSjBVrP2I1o/SwSvwWGGqVY+nRaNs0FY/lQXxjvecRi+/tULcdq7D0Hf7hQDzTzSyCQRT+QpiC4f1Pp+ZeY6fPFLV2Hu/LUmfjqueHnysEFJws3d52+KF6KtNk6SSpMQ2KobO3IQvvLFD+K7F38UPXvUU5g1X19x63yKpPJW02MFn4dGNBoUr67Cg1On4fuX/h6rVigOSr+sMBcfe15ERH3w9jzdMTfuIAIC6mqBQw/eF1f84Cs49Z0HkmAzbPXqfpShbIQtcI3D8F70bAPvFZCjcMdjGsNhnsU1s40CHqPVRjHXS4C7EipP5ijOqWyrNQZEkt26dmGqnQgHyVi/5fQi63PPzsWzL8yxwfR4VQ2fYS2P1+GJJ2Zh2bLllme8g10vuN87Bld2XDjaekvh2GMPY8nWZJPi82u/SbT4/AqYM3shFsxfQsuZlKZJE7RU0rTkV63aREt6OhskHeH7ewhaPqa+oRpD99Iy77LIXV5pskSIygiFYxuQz+hFrBgLcpwFFSycIkOSNAuYCMv1m0ooXOFM57SejiqTK+iCDTAXnVpT9sYsK3BtHU1kVgQFpYFAt0ooyY7evPBomXFfqTsqTTnQP60NdT3pozhsO3GrmUoUpkiaZ7P28mKBFUTvVSjuKgL6xnldVRLjxvbDd797Hr721fdjr4G9Ec2zEsnaKmhWDysZg8/yWGtbFRYuTuOUd30E/73ldloojdZt43qtvHgUkLA3prMUEA0q1zGMJBLczWogmhZcn14xHHPc/jjqyENIZA2IkZTyUTezrBIsTxhvNx7C/KRVoTQpP9OgpUHiuPfe5/DJT1yEqY+/gNZUC/NMM8N4GTNZlqIZX7xWKwVrlhcziCKQpCC5mT5ViQgGD+yCT33iDAwf3p9nmZfpFKqT6sZgGGzBJ0xMKiMZ1fsVcWzaqI8YJY0Es2mKLDR9u3OrSqXL/jr4rR2e9KyM0I89c/u/jOcibOZc8bpkFUkxlzKyHDVqhB1z+dJh6fpytnFDE2bMWoq0BrwpgNloG8PhnaJ1WL8+h0WLaXUWb2t1gXmiqb72/MvER5ZbsU1VAe7+tuaZrD1WNgl/v359mIdeSERZEgzXUHHxzmL6c89TqJmvuobPK8q4qI2km7748ssWskuXE0h/raaSK+4D+ve1Rpu928LflEleEaISQuHYBkTipA6WeBFvPKF+VrZo9MfCqa4PzcAQBw/sMwiRKrWuWfBJEgn1jxPOCukosCqY1hdMQuvduzdqqhtsP5msLXZbqbmjPngNZkpE2ozcMxkSXExTf8pDsZHAuS6YNJobgbVrmrBhXSM2rqVr3GBjAowRBSHpbsOrNOVWldq+t0HyPvf0I/C+9xxmA+BZ8YGWP1dl5AVaDiUWS7EFSiEq9MC3LvsXvnTRr3H3w89j+bp1tqaTjR/kNPNGq+cyPhIvEo6ryIobqVqtfubpkD498IFzpmD/fWV16B6dj3FkKYz6oBK1nFnjCFiEoTCNVGN6WyaGV+atwZe+cRWuuPIveG7aAqzd0MJnSBFhGnyhl8Cq+057elTuHRk+GxuViWDfUXvhwvNPRQOToVasurfcPK0c46HnV1kAKJuMYwFVNXyetPzEyVqqxE3z9DEojw5xsI2lzZzoj/lon9u1ljadGi6KR2eMzIaCgRZdNF+PVJzPjhmo99q1xL8jVDdY7EVE25aWJvtqo8apclnmHYNJ8KoCc7g13Yz1GynyqgMWUUe0ZhUU46IVhONxvYXOZ5pkzimeLPd+XKwUFofiTCjFRXmmFxt795Oo04IuxlNOdcoInlvlZxvLTo6NkwLrp6ZRR1hX7L0jWqQbNxXTT+hah+IzYMbW1TWg34D+rp6alS3L0HUfhyiPzktwCMPGTU1oTrnBwLwIkLkmAXAVxrV+ZHUMGNybrUqJSBXJTfPhXX98xzfEVTH1Alaxe0BvJNsa4KzAsgAUmgTFHotrs+kea9esR4qErAXzsluxofVugS7Pkzxv/Pud+PE1f8EPf/IX/Phn/8IvfnUHbrv7ecxbuJyUSTJX5bCWsysGqlRqx4r433P2aRjYvwcFgKRK80ct6Aj39Q6YVpqN6h2HQpOt4/Tgg9Nw0Td/gcsuucHeup41fzHSPC+lkOUj64YpVJJIQLJAWKmL9Vf33HvYUIwYPpR5oRfpOk+fWuzKA+oDQb8kYk0uUHdbQoGSHJMkLC3Rvm4TcP1f7scXvnoNrv7Zv2mBLMTS5RvQxnzXSrxqCCj9HWSyJQ6efAD69NbLZiJY18pVAfDk/kagND66l5xrcOiDYm7BRQ3kSgA6i79gz5XXa6v4W5cjsbWy1NraijVr1lj51jpcrgvWpT0Ypg9XSFapkaQ999vFWe85aYq4vmei8l4eCk8wYeFztXjyWq00rZcgK0HX6RPIEi3dz8dLk1rMsrffzp+Pr7+Xh34Hz4foHI4xQnSKpUuXY6W+B84WjOa0i2u1MqdagWqqq79Yg9KDh/SzQUe1+FMkM308ieXYKoAqqSuYrgLomu5d69C/b19U10hU7LCdV1eGXkQSUbHG2qJvqoi6Pl7s960EXaNo0d7BAw9Pw9///Sj+au5h/OHP9+KSy6/FT3/xJ7y2ZLUjb41DMA26ToKh37pPj251OOm4d7hOFcZBy72ruLi3l2O2REdCJEEBktW1fmMB99z3Ei7+3u9x8aW/xx//dj9emb2QrW76Yetc+VCg4ASn3GpWmva7davHfvuPQV2N0u0IpxLitFTsGxqykiRGjJuIyeUt85pOs7NUslMkvGwkiWWrmnHjPx/El7/xE/zwyuvx71vvwcLla0kqzlLpDFp1d+L4fRm+Btr5DBi+7qWW/hsBhS3SNOfBSIrMrLHB8yJHlSk3Hsa8pd+tcp01EIrhE74cutJSHuaXWSxr1zJU/1NAdVwdoUECdvu6B38X4+JJ2OIY0TR1dQvJZqsMprAYpuwOPVeGK3N4K9B9XBw7ut10yAmHyq7SIyvNha/y6OHi7u8bYlsQyL4QlZDJRbB2XSNSbWo1dxQ6K3BWH3Ugj4EDepNkxnBXU0FV51xBVEtIFV2tLvWhCgX62WfUMAyj2NinSH2hVUXhvokGoTnzK1c0s8KSKIvE0Rli6griNm6VRzOjWGG1BhQrbppkt74xiwcefAnPPDMHuUzSrB+13hWu61OWIKrypXHwlH0kYRQhtugTJA8tLMjKnMvxHgwznWXrUQPtegeFxKSUNaVieOrZ1/DTq/+Ny37we1z/p9uwelUGWmZcXKsxCScizCbVZ3WSs3IPHtQHtXUa2OexTlCgIFsrlvmpuLrpuEprmvkdpcHBQDVOFON96JJ6gS/XbGt1rW3M4fZ7tQDlP3HZ96/HnXc9j+YWN/OqEgrZNPYfN4Zi5boIdS8lxJ598fnuTATjolupXKkLRVOy7Z66PdPv1plSH33UzrlyWBkKV3Tv8sodk8XSWdp132p9P58PxbrGWJ5sBeD2azpu6hoErhzr+TKHimdUZorbrYiA4qa0yW88nkAsrjfVaaVw6+NcDrquX/8+3DqLUP4FK88qnzHXqFDYvg7pGsXfxznLhp279+bPIER5+KcaohNoKuq8hUvRmkqzIKqVzQLKmmoF3TXcuB9HTU0Cn/joe1EVa2aZTLHkui4pQZVUpr8Kt8YONF129Kh+bNH2KhZq3wL0XSe8jmSsNYiee25GkaJUOStXPDerinSiisEr1K2kFriW9UCe9462WaVKsUE+Z9YSpFKusriK4u5r+7SYtK5P954iJFkMURvw16vVubwbJ1AD1qb1qs+cwVsDNqqBarX2C2hkWp98ZhGu/f1/ceNf/4e21gytDy0G6SumyxezrhjX6mTMrDUd6RS6Dy2XjN7mpniI3PSJ22RMay9pwUimR8tH0NKBPrikritGLlGlgVuKSLYay1ek8cijc/DTn/wZU5+cVrSmykOPpabavcdi91J3iOJY+ZLXBffsPdxT14SJhi71Vpb8M5K1obf/o8zrXj278rjzWx6B/C6Sp5y6UDtDdU0VunapsbDFqf7eKtIWT3WLFsPVI1XYwfhvnhaC4WxxLACFbeFrK8tblgrzfMOmRh6vfJ3CbGjQqgQsn3w+6lqTReW+Dx9H9+5dLX7y552gewnKy02bNm1xPERlhMKxDciQfJ6b9goLMFv+IjoVwmKFEVxhNTrBgROG4QPvPZH7KVb4jm4ltWjUKquqjpP0WjBh/Gic/M7D0KVL0lUWTSNk5VAF1fsTVtIpAhqAnProNJtposqjytQpLHLqu5adoK4yzZoi3/Iyrf+TbtN3KHK29lYs7uKkuCkO7RVLV5NMtfichpL1ElaCJPGOKePwqY+ehcEDqpCIbkSy0GTn9DEop4/0Z2lWS04zseJYva4ZL0x7GcuXr2TrUfGXUOgjR6rIrttDcXR5KJulMkE4ME1m+WgWmoSAxF4Vx7lnvxPvOetw1EQ2Ma6ayUQrSd0iEYoJ45HX+zXMT61jpRlVaZLLoqXrTDia7StO5aEZbWow+K4pTyrB578zESQ2QWNfGtvq0aMH8zjLclK0uJgFmj00Yu8h6N2rC6/pXMmCpOi7Tpcv13Ral5fl0FBbg959ulrDQ+tt6Vr/vOq7NKB375787cTDaa/KTkd4Pq8cJHoqm1vPNxG+rHOVdU2imDN7LvcrlwulbeSove37+PZhMsWTZV1x0hcuR48eaf50PJi3Pq8loKtXry6Jb4jOULnUhGhHIlmFefPmY97cBe2tNBU41wJkJmrglAVcXQfduiXx8QvOwXvOfpd1I6iVKqcKpncORI5jx47CF774SUycONb66lV5tUptOq19tmxJrir45Ai8+upMrCf5qqK71nXlwk1dsZVBswxDk3L1wp61vmgZaMw5mkugoaYO++47DJMnj0RNLQles6RoAtkXBlmnjcR5C63OmtKgPkk+wnvyzhg6oBs+8bEzcPNffoFrfvwtHDx5GBLVjRSLNBLq78rFkU0xrdkEkppaG2Ock1H06dfb1q5SnrnKW4xvsSIXeEMNmtuML1kxnaDdOhBzkliUV/pk76RJY/G9b38Ajz/6Z3zlC+/FmFF9UV3LdNTwZomIiYjm6OcLtLpqUsynVsSqkxg5Zh9ailrF2JGi6wf3Tq3fju6MjMSUz1kip7D0Hof5E3Eyf+T8dfpzs7SEIFkWCVR7el7teeHyg2etXGlf0PNQV9TAfn2NGH25Y5EjScZxzLFHupUFinFx9+qIs4VZvIeuVf55y2n5ilV2nL4Dzqchh169e2DSgRPQp28vW3pegkMlded6dDdClu6o3OmUYqzGjd758fBhubiou7XzAXkfZ2tI0KusgVdemcHnoLPKZxdP/e/iSiFjJPbbb1/07NndloyX0MrJyteHnfRtFZXvYL7atSZieZtsoBdxc1afi40nus7gn10lt6cj1rX3/pcU90NUgE37ZGs1zoJ21GFT7LsEWrtJA9D2Ni5LuHvXImpvjnfrWospBw7HxAkj0IUmtFbn7N2jHocfsh8+dt4p+PRH34X9xww21fYtNLXtYzFVCLWUHKE2U6N+c8MtmP7qPN6imqTFgh7RUhgxW9V00gS1pHh//tOVqhNqxRtNFRJ4+skXSPruRa8e3evQt0cdrxmEz37qbIwbu5fF1/yTdGzNOg1iW4XUS2I1ePzxBbjvvkdYSrRceQT7jB2Bw94xCr2712D0iME47Yzj8a4TD8OBE0ejd7daVFcVUF8XRx+2gBsaqjG4bxWOO/oACunZGDSgB6NZFAqSi1YztfWqom1I5+O494Fn8eiT09GSijEvg0S7OVTttaKqWttq3+odE01BPuGEAzBm+DDmdw0OPGA0znr30TjuqPGYOHYIulfnkahKklT04aNe6Nm1K/Ye2B3nvf8EnHryYaiv4fNVWCQOrQRr3/Xmb00dTpHA/vCHezB7wSLGVflPYSQxHjhlDEaP7O9ixDTZICzj5CYYMDzml1rq82bPQnWiHslEEn169sCAfg0YNawnWhsLaNac4kgb3nn8FIwePsiEXtaibNf2wWuGpfdB6quzWLNuLdau09cc8xjQpx5nn3EYPvTeE3ie11kx4rYI/817PePVaxrx0NTpmE+hiDPvalGFlnQjBvQfxHK0P69y7K/bF/QOBdOiYyLuvv17oKV5A5YtWo+qWBd0qa/G3kOq8Y2vfQDD9xrA9EroWfYYb1d6NdFDYRXw5NOz8dSzsxgJpceda2ioxfFHTcBeQwfytyPxjnirfESxduNaPPLIDCxett4s7WWLV+CUU45DdzbK8jnNlGL4mvKuVSmZP6p7VWZSRzBrzhKkMxrXAwb2rcEl3/okDpq4jxJmYVs+FYXb7htpwdz5G/DLX/4TG5o1vZi1Wo0RWrMRNU42g11srlAMwwuRg/Jc95EPn6Y9E+EXALcBGvZVyzuaTeNXP/86SWocqVt9xbIK8tZd4whRhaZY4VWg1IpXy4YVRoVOZS1m88PTLFayKlzrWlaBWoEqbqrw1n3EY/c//CJ+8ONrsWDRGpIQY+DmoBLlvwDomjrqxtD01wJWrm5CaxuJVbO7tKRHpAd69tAy4vRGUjOSYwtfy4ArnhENeosbaUG0Zgr40teuxj33vGqVV6J17jnH4GtfOIsioT5jtuCYbk3LzfLWmg6rd13Wrd2I5tZmazF26dYbXSkgah1rWXWl33W3iZS4jbPiMw7LVrTg0st/i7seeMYG8bU0eyUorpkUK3eS9zd/TBfT/MPLP4LT33mU9fuL+HQP5YXiJH7KUZhXrlmLtta0tUob6moocryXuvXyNYxvBlr9OK884J+RYDSNWQtX4v3vuxRrG5sYN6aX+U36wre/+SGc94ETae2oxUuLk1FRK9hZIbyW+2k+y8efmG7Tn7t3724rvA4Z1BcLFy7GNy/6MxauXINkvA0XffkjuOBDJ/MKEQ+flbpDi+VJYqZ0aDtr/gLMmLUQqbY0Bg8ZRMHe176zovtGRfyMmy+DSr+/fs6cxbjkihvwyLMzWIZpeancxtpwwH574xc//TLFrIuVI92TnGnXSbAsDJb9DU3NtkjjkkVr7QuU++8/AsP2Kk7qYFiyRPTCnvyry1W/FaerfnkLfvarf0uTCD1/CnffrrjikvNx1BGTLY8cfLl2aZ0xZza+/6N/YOpT86xhkGB9+diHT8HXvnQuy1K11RfBxMicnnEW6zdmcN9D0+wTsSoHB0/eBycceyivcdN0lZXqKmXyeA3vRjMmnc/gH/96CBddfA3LSoJlWh/T4nktSRMtWrcGH1cHa/wUn1HpOYtPe5ocnD8Hd/6tjc1TF6Is9KCt/z1eg5//9l+YPW8DiUhmLQs1Wzm+ALlK7ohDTgVQNCSiiYvM1M2iWU75OlawBAN2flXR1AJ3CySygLPaLVq2Cv+95QGsWtFklbqqSi0the/EphKMuOjPXpzqXo+hJKu9BvTE0H7uc61VJGt94EnTWjVjxQo07xvNFemSRJpjBX/xlYV49LFnrMIJ7t6+0JPidA+lO6u3ratZ0diepJfe3bpgGMlx2ODe6NGNaY9lzOJSXigIn1cSE03fzPG6l3mvOXNWmZDGROSdwBGAi4ugsLJZWWuO6KzS8x4iHEjwI3ohMY1kJGcvG44Y0heD+nRH97o6Hqsin6mbx3UpKlyGwOsZBv8kmPfc8xiaZPrZct2uNS1/GzZSlFuYj04VmQ6eJonatyyKz1Uke8ShB+Kj55+OU085BIdMGolBffU9CIo242pPms/psUems5XMiMt6KloKgsJw+e/evdh39BCc9a5D8f6zT8ARB+/P8HVr5adCcnHTuICukxN8ftvyL8obsTj9qGt02cpNeO4FionKMBs5erL2CWMTDffM9bs7rebDDt4X7zvnaJxx+mEYqbfpeV5h68uAvAHzWNYAc4/ZYY2YHYDFmcmXOOub6FpEU7mRZ9h33/Mk5s9fYc9En+BV/Pynb2Uhy1JQN/E5px2OH136CVx60YU45Z16iZX1zouhnKx53UZlnmEsWd6Gf918Dy3SBiSraumfDaskrftkgsWCImOOz5zPVU1AcyxLWrZFUB6UOg93T15BZwlrd299qFSG2BpI9mrpZiOteGX2Elxy6R/w2qImFiGXfVYxWWBUyX1h0W/XxaUZOSIXVkK2YEQqMgx0rZwVNnEGK4paZelsG1av34Cb/30vnnr6VbSm1UKKkFhajTxyGgeoBPU/xyhgDFPkL8lSaxg5vVtCwuJ9VaxFLuRaa7lZPzwrnVqPucImVpIUXluyHn+87na0tsYZHw0ck1CZNnWhKX1GsJZ0Ep/Sw7i7PmOGzfBkTanVrM8aWCtYXTeyC4zU1M2n6qcZasCipSvxv9sfwOLFay2+3mKrBPV52/fGCcVFhK88lIWjLiazNpgWPg36UFwktIpDkhfQL+Pj8lsfWOIO89S/o6LjWS0OqWXYeflTT83B7Xc8yZSpJSqxpAdCsV9AK2JD4wab6KBpv0qT8tJPN5U1pDWwYmZJ8ja0GC19WnqFVk1cX4ck0Uo458xbgpdnzGE6eFuXsZY273RMLWt9LlbliTJHS4fPgEVBb1prCnZM4lEsGq7subgKatk7K8aHrVVvc9iwKYUHHngSa9Y0Mf58Nkyj8lGtcpbWoiWqcFmOUMNESezYDLCXXF1+6r0euxfTbVa0CgGv3lEoKKtLDIsFzh1j/i9ZthG/+90t9ha4e3HTzSqzT/sWZO36BlWWjRm9rKuGA/eVFwxN0BNQPqonQKs9tLBOXXfDLcz7hZa3WYkJGwgxfRyL1yXjdbTyKSZ8Vs7V8hlXWYNr80kqvt67uuHyYHNYPafbU+ByNESnUIFQYRFp68M+zz4/E5d87zrMXbCBRKPzWlXTiUfQsZyydcLzrJDal5MprHWjEGPLiSSpAWG1Y7RURyGWQGNLDn/5++34+833Yc36JoabQVVNNQuxe2vczygqB8XT1tFi4dd0xkicFGdipfmyJDcKoH0GlAVbg9+Ko8IU1KLSPOHXlq/FL35xIx5+9GWSCcmCrSvfirWqZ8TutkwlyUVdYayoGhvQdFy2mmWNaVxECy6qT9pIXJeLwDwxUsXWbkwxrXfiYVo2GtC3ymeDLZWhii8BVQUVJCTa1aC1CbKF4YmH96aLqTUuUWVMdF6ta5GHxjPyNjlA+SBhJ7FT7VL5Nrw0ayF+f/0dmDt/jZ0Tharv28iHIT43bRYWLl5jq+Da+BTzWWXAkQbvx9tnCymKE/Ne5/URMF6pOEa02Ife+OaPZLwBK9c34tY7H0QLs1H56omnoyEii0a5SnLjs1D3SiTO62N6dyWNpctWsCGzxPyblaCyR1hala/8qVKmcI1GmUZN8dUigNOmL8DUp2dSSJgyhu0/tyvkSL55uwfLELNM+ayw1GU3Z+ESzJy7nKHJ7NH9GDt3W8uhHQafi31zn2EoPXo2WtpdInX/o6/gjzf+D81tDJ/3VDea3VrWIOsnKMzKeC0RpG3WuoJV5lVe5I//MfwM09iajuDa62/Cf265n8+QdYuiEddqz/SvKqHVcSP6TRfVZ331ESzWwXicQhKvN8tEH8XSJ30jehue/tzXQWl5Kf50thxMu8XCHKLzs/Pe6ui8loYwaCXZPAk8wYKiWVVpttaeeGoGvvP9X+PZFxZYqydWJNfNK66rbEaeBbXakqQcbUlyJEiRgbWe6T+RrMGiJZsY5u/wq9/cilWr2kwwRP5NTZtYoF34LIedQlMZWc/twbruGi1PoXcYSGLqrlAhNo+OPG1sha2tdIYt3zmNuOKKv+P2e55GY2sb40ihUuvTGEMhMs7SB+u24T7Dy2ZpjZEI1ZqWKKniOaFga1A34q4Rj5rHureCYkVeuzGKn171T9z4twewbpPGZLQgo7pqdJ/O4RfSs8rNvNMMGgmIWsISFd1UJGnOXWKEJ+gLcRrHKNCp9S5Z0eBqUc+Qy1Rj5sx1+L8r/4gHH3+J12tpDwm88oNUyvtoFt2yFetx880PYGMjCZh50damMSOTBgtLrXpZIEGRk8CwhNh5mwrNZ7++sYXUD9x13zO49X9P0oIh7TKumkbqy5Kcwolxy5jzmSkdslyjWLamFb9lq/nPN91m7wl5sdE1bnqz/LowPAo8LgtX4z0rVjTin/96GLPnLUVbJm0CJ9g12vJ+MYkPxSoWV+yBpbzmx1deR0vxEZYT3qMoxJni8ieyQHcEurZQ7KpUEK6RwjxgPsjKW9fYSuG4E7/+9X/sk8uyJDRIrhirrrVD4sGw9BKsoqb8MMuaPyRIWjHgml/ehN/+7i5sauRzZX2xmWZMo1muLNcm1LyvrtWztGAtXOc0S09C4p0ERXU4zjIZ1VTiiCxh51fl0bk9B+Gsqm0CCyG5Up8QLWRqjajS+U1YvHQtnnr8WTRvWo2BgwahmkQvYhc5q99Dc+ujatGywKoCqjIYQakgq0XCYpwmEW3c1Iib/303Lv7u1Xj+haUsyA30pG+QkwhiOVRXVSOdYos3oa4BVk6ePfwd4zBxwkjeQ+WclcFIi1WJN7HCygoTk+XBVlckoi4rtZ7Uwlb3EisFK4O6nlJtGaxYvga/uvZG/ODy6/HqK2vZUmagMa2iqzYuW1rqpiORRUhxiVgrenbvhupaWiMkM7XCFR+yEdPN+zNskZqsKKszJEvlRzqn759TQihQDz8wFZ/83KV46pn5SKXYaksm6LvVpi/bIogWYAUwnXGKo+Kvbh7dPEfCyhfWIcn79es7wEhAYSjv9AzULabuOFslV2kSoRTzK0cl1DRM5WtjUzNuuukuXPTtn2P2/LXI6Tkyj9RYSFapC0xdFMwLzQYghc+eOd/KxKSJ41BTzXtShFzcNV2Xv0lQambKYhMNk4+MkGbOXYipj0/DmjXrUNelF5pampAiAc+duQAN9VEMGTIAVdVqyeoqEZe6yVSWKGD2HIDWVAbLKRo/+LGWUHmW19Vjwrgh6N6jJ69gGdCzMGuogFWr1+NhiuAiWpMqfhKCLC2kJFvOsqKXLl+JNesWY+yYYehSX8d7SaicbRWluFoadA3zau3aNnzzGz/F1MdmYGNzE0aNHoJBA3spdbxGiqb0i/VjePKZmXzGenlVdUEMrs+1JnH8UeMxdMggK188xa1SqV01MfK8RyMeY/haFkeTGvS8NXaXYwMonYrixedexZpVqzFkcG906cqWP7NZIqH7araTyRt/WjXUMaZa66Vl2ZKZSUvyu5f+nKL3NFpaavlc3fTqHK0aWeFyNm4l0Va9VTmxNLkYOifxYZx9a4S/7f0kplmCYe+hMAytbuCOS7iZn3oeSjIvq+T4LwB6DtyzElTCvS9FNhieUq+sd6cqh7G9CGdVvW6QiFipe3Svx1FHTiaJjMK4ffdmRU6S8Nn+ZmtVUKFSF4paMW1taWxqaSM5rcQrr7yGW299gJW7EXlTFRUWtU/cdVtABMjW+fkfOhOnvetI+mq1MCUMVpArXGatUFogise6DZuwYUMb5i5chunTZuKJJ6ZRLLQEbDk4EVBXgRsbaUP/Pg046YRDMWbMEIwZOQQNXWpQqxlKtGL0sqGI2bqnWfFa2rJIpQs2EPvKy6/hnvsfx0svzuT93oAP5TBug4f0tW+qjxk1EHsP7UOiiqOuxk0EEBGo9ajuAvdteFAsWtmCXo9nnp+BBx94BnPnrSDBq5/btUDt+VbIVH3fPJko4JBDxuOMdx+LkaMGoEfXpC3LLpXwrf/mVJr3yWDR4tWY9sIruOue520cqRzI/zjqiEl418lHYviw3ujWwMYIn7i3nprbUli3rhX3PfAsLYW7sHp1Ey2gKnTrFsMnP342Jk2awN9MY7GVrOvmL1qD62+4FS+/NNMaEipdelFTH/CycbMMSZJlY8SIQTj9XcfiuGMOJCHHoNVGFP8UxX5TUw5PPz0Tf/v7HZg9ewmDoO0TacKpjOd7zjkRDbUiR6ab5URrukWi1fjHzXfipn/exfKpqeRxNpKa0a9fN3z2E+/E+PHjLWzdP8sHoa2RHy3T115biz/Sinrhhfk8pm6oYv4XNKnAveCXzbVYOTzu6INx7LGHYMiA7qir1wuArEMUJLNeGI8UBbapqYC5C5bi0UefxwMPPoU161v4bOVPRL9r6c+sT1UONa6YDjUItLVuNIJFVL7smH+Gdo75Won4JRwepX4Ujgtzy3OvB6FwvE5Ya4Yt0CStAa1nFI1kUFOVxPARQ9G/bw+Sap17eGa6RtDc3IoVK1bRWllKsViHKE3bvD4OxJC0XLi6F8y/KkwZyLrQMt26T7Sg+/FKlcWCa9n4AlgOqiPyo5aeCEUTeWKs4Op2si8HloVixqLJSqi3eVXw87QeaqtJPKk2W+hw0OABbP0NQLcuNNdJSLqP1Q+mY/W69Vi6ZDkWavVSEnAsVmOEbS3QnQx1oelbExGNKVBgu3erx4AB/TGwf1/U19aR6yhotCxEUs2tJOC1m0iCc9z3RJgfWq5E3VcMyFprSruFW1HEaflQPGTJxONZ9OvVHaNGjUSvHpre6rpHRIoag1jw2lKs1YuczPSCWuYMtRLURZhk63rYXgOw7z4jUJUsLqPO57Zw0SK2mhcw/rKyWKZE4Gpak9yVpdb2YNnQfRMJzXTS4xUB5RnHpFmu2tpzVFckW8Z8tEwh4yohIctoVeRRI4eib+8edt/1tIjnz3vNZvplMmxA0PLSYLI+ratyiBzLAfM2k2Z4MR5jdulTwJreqjf3lbcqd8ony38NsjOiioPKi7r5ZCWKKO39KJVTGzuhqFG840n3lUp9K8WPJZrQ6NPFVgcK9o7M6DGj0LNnV17nZqGlU1kK61osWroEy1esNgHUM9MaWK1pt9p0sWdsl8IVfVevBDcxRs9d9dLVC51zv92zE9StatcV/Vh9b4cefPm6b43W4jUe5cPYdoTC8TohglHlUkE1Aibyxd85khitU9tXBZY/67Yw8nYPVIWDG2u96ryNORjKE4uRPomx+IP/kdZYGbSrwqDwKkEEaN1PGrOhP82AUteH4lSRHIuFUWFrqqnFnUwjE1wtVU3t0QCmEqjC7jo4lC5eRELTfZR+dRW4bh4RWhX97/xip5yx+DGu2qqCirQEm/Fk3VJujMLy2pZfl3Xk/CvL+cuud3Bp13MqBxuxUPp4rcaqNJVW6TYLwZ6HIwYrGzyqWVzWZcFzuk85yI8vA8orm+5KdrM06flZetQFxWfH8CUUzpLiEeapiLi1rclIUZFwA/bq3lM6XX5UVdWwJa7xEPNiwqGw7TszbARJh3TOyrW6VFlmlE75NcLn/e29DTUFrNxLIJUPLEfMW70EG1OeSYA9KaqLVfsKnFCcvHgo750FVJzAwTtorEUrAsifq0vqZlR4ioQLQ3HW/ypLjCbDkogzXB62+DJhnjQlsApH91B5zRStyYQG1HchFJcOBMoA89j4Q1tC/nzeqRxpir0vT/Zb4RT96jovKuXBcA0d5308KpXtrSEc43idMLLkA8yx0KoOpfW9YrbCbWCahViFXS1vVj3+Jmmo0PO49euyEmjYTyu7xrWiKyuAWvVWJsQuZaCQHNxAtM1C0j3YmrOv2mlmh2pRiRPRKET1vyp8R+gMg5WdHopnt4QrX86a0b0VLZEKL0dE3XBq8Ym4dNYi7vzLoxM5OUcSckqxxNQR4M6F8QnjoEqmMRDdV8m3/OZ9dX9741eJoNOzyErM1YeuRLH17OLLdLKyKW8qPQeHIrHTf1Yzf0RazAvrG7fwlGfu3qrkWjJeh+W/Un5rplfBTytW/zgvUNlSvB0JyjkxSpJsmVg6lj36dV2JEpMELYAq66aROCotEkdGAslktSNo3l59+conFwbLHvMjbzMalDc65/JKFopsYD0zjZvYGJF8KX15lVuRTwwJWkYpWh+6kzUylHKWD/8inYhecbMZfCIspUchcZuh8GgboUjKIJOFoXzTwHM2LeGj5S7fjKPlp+0rTKaNx5TvNm5XJFXlm5y7xllYdpxxVggacI8rDvy166Hcc8+jw3kwfso7Oo1pKb3WsKPlpk8qqEyq90LWtcqDTbfXNcVrvdgIPr0d4eueDpYPm53bPoQWx+uEEbDIlw/YEQiJlBVS+6poem9AhCV4ldfWteLU+pZQ8Ded2g0a8HUPtfxj0TUiXqt4qjQmPGpp6f0GdZ24e5XC7i1CU9iMk6tIOuH8q3CWg2jUug1YILVwocIwS4Wt4YgGASlcrgC6MAUfVjrbjCqb+aR+bJKltQBF1mz1FWfv7EyIA11FIrjxZr40Si1vLd0h+Hi6fGbrM0dyM9L3z8nlkW2NsCtXLgWlvFXe63I9fwmHexnOPXvLezb3FY5/1pVaepq+K8pVd4rur7grDLW49YKgESeDyzL/jUB4TuGqRa9wVZ4E3/2jacr+fhYe99UdqsUAtZUAWbeI8k4JkNjrBoRIyMJWg0YNEsZM91WeqAwqH9WSVx7EkzG0tjbz/m62W5rlokAxNY1gGPoAF3OJ19NKoZD4Z2D35/0kZlozTDMWXZ67fFectFKA6pfyVBModM4t+unyUhZTXN1ihM9vb6EoDzLZVlfP6NHyjbHROXdB5We7K+HzXPBxc8d8WZVQuPQGj+t5aZyEBcCeoztftEjMD8uIBV303771cGV+exEKx+sGM151ms9ahKguAhG5e3B64G7wT79VSToKrKsgqsyqRCK2pKZu8cGq8Bfr1RbQ9bpGFcO1CF0/MdRiK54vB8VP99M0T/nRPUTwurerbCLZLSHhkB/FXcSr+2r+fJZpVKUspF1FtdYPBVNha6aO0hwniVhrz1q7jANvoTiItDJaAXgnQ/GIFmRRMV+ZXtcydfdUXNUC1zndX+Rs3RZ6JglHZI7MSCtkO/dcRJISj/IkLzhCZpW1BSqZr+oSs/uLdF1XpHLRrfbqBdv5LQf7KBjzKStipBddrvCstSlisMm7jhA9Eeo+MY1n0LM9H/pXmVD8PYFqq7TadTwvv7pWCyVqVpriJn8iH/l15UPxVblQZrryYmMiVr4pBoyTLfrJ6+x9i1QKXWrrbVqwFttM8F6CwtVkBDU07DfLg+KhOLj8cVB6NZXV8o/xUPy0PI4so1SmjYJUZ+VXXVhKi3WRFvMxl1J83LMQtC/YM066tCq/dF89Y8VJLnj/XQkfzyAUnyDK+fHo8OvE3ft14uHSZAKixycrsr1B0LEVOivbnSEUjteJnJnizMh25e4gfdY7wj1YX0j9AzayZgtKXU06p2mB6XQLw3KVSQOQ5SALQ9CAqC8was9pRNFa2xF3vhTyp8qu+6oJ4oiExGOWhN6NLt/XKwLUOx/5DIVPA528T6z4SU57A1z3VzxYKT0RGEHRotA9RDiWHqW3vVArfTXuBjsRhUiLtZxjehmL8fH3FDTl1ltCmhasOFq/ezHuem46b9Gj0DBDmT62dK0l65/t5tCLj0qbEbdm+/BWPq261j9r5lhx3z1rwW5RBrpe0GNyg9pMD8N3b0gXn1+x0luYZoHo2boAffhKn00jpjAoTAmS66JyIlJTozfYc7S21MXqxhDUapXgqBFj1xjJqny4MH1DRfCtX2WdwrT7ynpl+VAe6h0VixPDLDZ5ATYkdJ8kW88+Li49PMX7tqVaGBeli/nEEqk8FeGrq04WTRatLIq0ojS1PM/05NUQcOXYrDw9i6I1YekhFL5mUKk8Wnwtf12dlB8tvbNr4fKvA+XL1hbwo/jK4xL45yPYc/D3UOOlmPUu7ax/Vgf17Py26CEAHfOPzIXn4ePO5xMKR4gQIUK8/aDGn1o7TkDYQCgRFYmHFw79VmPBgY2s4l6IECFChHgbQdaYxq601Io+1autJlVoAoVNqlDXeYxWOK1VuRztOecoKsUwQoQIESLE2wpRuNWcKQORGDQjMxJz21iCQpJw63NpokY8UUVXXLOLfkLhCBEiRIi3LbwEFLcaQ7ExJgoInS2hEtWSRRQTWh+yTGLxmlA4QoQIEeLtCo1bdAyASw4qOaIoKnqnpHgkRIgQIUK83eAGw7d0DkHhCDr/f4gQIUKEeNtCVkfQOQHR7Crnguc0LTcUjhAhQoQIsRmCQuHEIohwOm6IECFChNhOhMIRIkSIECG2C6FwhAgRIkSI7UIoHCFChAgRYjsA/H92FQUglxGzIAAAAABJRU5ErkJggg==;" parent="1" vertex="1">
          <mxGeometry x="159.99999999999994" y="160" width="136.16" height="65" as="geometry" />
        </mxCell>
        <mxCell id="TbkNwsjUBg2xAuDk_8zu-28" style="edgeStyle=orthogonalEdgeStyle;rounded=0;orthogonalLoop=1;jettySize=auto;html=1;entryX=0;entryY=0.5;entryDx=0;entryDy=0;entryPerimeter=0;exitX=1;exitY=0.5;exitDx=0;exitDy=0;" parent="1" source="TbkNwsjUBg2xAuDk_8zu-29" target="TbkNwsjUBg2xAuDk_8zu-37" edge="1">
          <mxGeometry relative="1" as="geometry">
            <mxPoint x="368.0799999999999" y="340" as="sourcePoint" />
          </mxGeometry>
        </mxCell>
        <mxCell id="TbkNwsjUBg2xAuDk_8zu-29" value="Encoder&#xa;FFmpeg" style="shape=image;verticalLabelPosition=bottom;labelBackgroundColor=default;verticalAlign=top;aspect=fixed;imageAspect=0;image=data:image/png,iVBORw0KGgoAAAANSUhEUgAAARQAAAEQCAYAAABx4YtvAAAAAXNSR0IArs4c6QAAAARnQU1BAACxjwv8YQUAAAAJcEhZcwAADsMAAA7DAcdvqGQAAP6ASURBVHhe7P1nl1xJlh0KbtfuIaG1SmgtM6FSV2ZVVlVXdTXZJJtNcsSbL7PW/AeuNT9jhvP4yHlrzQwXu1ns6u7qUqkTQEJrrRJaA6HDtfvsfeya+w0PDwEgEEBmYwcMrq6yY8e2nWN27rmRQqFQxWu8xmu8xgQgGry+xmu8xms8N14Tymu8xmtMGF4Tymu8xmtMGF4Tymu8xmtMGF4Tymu8xmtMGF4Tymu8xmtMGF4Tymu8xmtMGF4Tymu8xmtMGF4Htr3Ga/xzRqQSvBkD1fHZHq8tlNd4jdeYMDyVhVKNDmezSOU1J73Ga7xyaGZ5hKyMpn15NCZ4baG8xmu8xmTjNaG8xguA1MqX1/jnhPG5PIH5VI3Yi6HiTSqaQlWUEQ2OEolE6qYTtynpV+pVObQvtwjeCU1MsxqG/1bl36uHp+s4qr8kEC3HKLeoyUyoVqs1OUaD70bFOM3QyYe7Ll8XoWLVcd9XqRfSH/9a5p/eq20jVhp15EVhouQ3mg4/D8ZzfUO3iVCHYrwcyd7rVR3RoB3qkP6NB+Od2nguQolEY6hUiyhXqAzVMuKRKOI8byIS5xYRirmMvnIOg9Eyitw3xj9d1nBl0fEbG6V5I4m8ng5jCaL5eUbG+ATroU7i/wQnA8oJSVQrVaQjKcotwauoIl/IIxGNI0ZFiFPYQztkk/O+woTirt2/sr35GkkCxSK/Tek7IMe2zCPL1xx/JrlY21YomwilQ6IdpicvErHgdbx4Wj18XjRen5NPhN877Yrwisr8VEGiXKX8qEcxSVLfU7okGjWFIxkaAfwcof68UoQSo/IXqAzFUonflBCPO8IgD+Jx1xPcuXsL9wd6cPXxbfRVRDxlVCollnAn1vvQ5+BcDuH3Afj70P3HwliCeJpjCc2ON7awRR6pVAqtra3IZDLoSHZiTvscLJ27DNNap9g2pVKRakCyISEnRChDlKjJOV4pQqlfS5gIzQJjXajjptDxjIgEGKjkMFDux8P+B7j16AZuP76FRwMPUcoXECtzcGKzRKIviFCayu1pZdlcNycEY10ffxchVCjXKk0OkYT6YjQW4wAVw7JZC7FoxmzMmjUHHW0d3CGKkhqA8pRueRKKVbiP2mcUa1jnESaFUKKsRAlFFGml5Ks5ZEt53Ht8F7cf3MStB3fsfVd/N+71PuHvRbtwf4Ee9cqEG0MX37xx3P7jbbjxKsnzHG/0c4hIqlV3/Fg8bqSSTCaRSWQwrX065s6Yg2VzlmDJ3EWY3TEdyTLJBCk2ecwaXtaK65R2iKFoqngvC+FrcfWVvvjrLvFNXt/ThH3Q9wBXb13Frcc3cK/rjhHJo95H6Ml3oVqmnVIu8BDhCr+geo7VcZuiia5MFJE0YjzXV9tGrxUkae3OmT4Ts6bOwNzp8/h+NmZ2zsKyhctotSQRq0q/YkjRXKxQL8eyUF4oochsCkOmVCQR42gzgLtd9/Ddg+9w+vpZnL15EY/6H/P7fuSLHI+4v4gjShcpFnOM6IhkhIscs5LjNTfHJ4SmStIUzY439jnUKCIWMzsDclFni8Zo2seSWD5tITYtWYONb2zAginz0ZlsRyKWoRgStFQoM+6icWUYxpDT5KJ+LX5uxMBXfc5x6Hlc6Mbdnge4fO0yzl06g+/uXUVvrheFWJ67Uz4xtmusilK1RIumLqvxyPiZMJ4OOwxNdMXXdaIxxvVF6Ab7AblC699NPbCPcr9kPIX2eAdmtU7HsrlvYPeGnVg4bQGmpaagjYNZSyRjhkAksHDsGCRzWYX+s/DCCEWThHbB7Bg6aYFaPljJoxSv4vaj2zhy9hgOnjmIhwP3MRgZRDlJxYiVkC9kkSLpWKcKCi1ad9jQhQ9pyFE6iq/g2CQwPgHU8SzHe9pzqNHk9rmJyGgigpZUGol8FKlCDAtJJj979+dYtWAVprZNQzqa4miSRIKNGa8kgiO8Smisv8hDAw3rSJ0xguB3Jf49Kfbg1LUz+PbkQVy9eQXdfd0oR4uo0LfRdlUSSX2SVm2s9nh6+T4VvseE4vpScF5up8FJfbSqvlkoIM6BKlokORSjmJqciunpmXhny9vYsmYzFpBYMt4OLsnTcMcsFIpIJDT/Ofy8QyzkUfrnuAglytEjxgvU/EeprPkSIJso4REGcPLGWRw4uh9nL59xE2y0VsqxApWFowxfVXF3MU0ukhUajvB2w/cZv3USYJTKG55WGZ5JCeuoWyiUI4vmWmPlJC8jjkwljRmpaTaa7Fr/FlbOWoY0WuwStc2rB1dvP2diZBAlgZAoCnR/owmtAFbxKPsQe0/uxZ8OfY5H+SccUMrOCqGOeCKJUEm0f33AqGP80n0KPFc7NtGZp9WjsTDG9dW8BW5nrqU1ggjZ/RaJxGwVUZZFopqiHtEqibdj9RvrsG3zTry5ZC2m8bs01dATSi6Xozuetn0bMV5Cif3H//gf/+/BewcJhntXdYF6ZQcocUQ1U4gXLKtCTNgTzeHIjVP4w9HPcfb6eXQXelCo0jKJFakkHKGoLJEIO791IF2NrBG9+iLTSi/uPLVi0KuK9h1atM/TFQl3tNJsn9FKeF9Xh6HfDS927SZX13HsO8q3SiuvShlVeBAtrauGxXIRXd3drH4FUzrbMDXTSUlxBCLh1KCOF7QP/7N/vuhlImHzZg1FLw6a39GrFEzE4EopIAptdy93B4fPHMI3x/bg7sBdDEQH7fdynNtw50qUOsLdRSqN0FHr55poNDvyeM9mlR4Ka4uJxOjX53TP6R+1g7842auP2mYmT1kskq3cSVouHIy7BvvRTTeztTWDRR3zkIlSr0RO0iluH+UI5+SuT740Xkuza3MYbqEEDWuKpNfA99f3miYUexVpGl3svYa/2f9rkspx9A/2UYHAUadI00sV8wpfH3GiIR9My1VC01gLnV+/B9fxymMUtvZonHsSbCQnoWhEsUlXjSTlOM3QOCJ5YNGMeXhzw1Z8tPUjLEgtQEuxNdiTkFy96BrOP9F6XTtPCOFz6Nr9xF5JdYoXUKLlVUYR97L3cIKu8P7j3+L8nUvIJQoopIrD2ldmukfYQpEKNcZNTBga5OYwdls6NNHNidbXp7g+JyN//rpu1PoZXzUg6XOEVktLSxu2zV+P//DRX+GNlvl0j9h5g35X5c7DdajhvE2vzWFMQhFEKuVqwRpYB3/8uAufnv4C/3Di73GvepfWC08Qk3krUnGdxM+PSEH8frrQ8Kyy38YhEEitYfzr9wEjC1iQ/BpRZBsWWGSZaNI1wcKB25aNI7QIFakyd84c/HTbT/GT1R9jZnmmyctcSApU7eMkVD+3cfjwUz0XvB74jt14DkcoHGr4XZGWqQglF8nh4eB9HKFlcujEIVy5fRmDsSzySbpEiZDLGuiC0wMXdNXM5QmTysRWr1m7jd6WzfXyRenqaNc3zutQf6L+RTXhGtLDGaVp+Kvd/wYfrfsQM6ZPN9dbqJSfj1CG/SIFckpUvziNPHmOOflkGb2JAZx7cgF/OvInDPCvolGpomilKpKZtPljQ4lCqJ+mNvs/Jka+6B8KfOfUq4GyYZcku0TZOUu49eg2vjz0JW7338RgvJduQo4drmydzl41fcnX4J2ViUJdD9Rm9c8W9RwqIsZ8vEzro2gWyADJ5HHhEfad2o8vj3yJc3cvoJ86gxYSRlzzJO54osw6UbyMth7pnNLP0cpkYbTr0zxm43WpDIcnB2s/WoKa11LpK/bjd/t+j7MPz6M32k97sowCj2HaZPo1tBiJ+DIKmsyh6Ar8xem9/Hv6+fEo8vT3zz06j6/Ofo1z9y+gGM/TN5MfTM+NJy2TBf1eHiIXhQPbtzo2i7lEKuxJtff2vQq39MV+D31+VQtl1PT7oIQ7ZLjwn5EJ+6SJhlTMY0lG+tEdE6USEvR/586bifZYBz/TAixSoWgRahvNv3gv145n/08AQoex62CxevAMZbV3cG65bmqnfLSILP/uZm9jz8m9+PTwp7hHKyWbyKNIsilRh+z2C1PI+sHdsd3E4kgI/2abT0jx8wMqZRaO4ENKiUXf6/fG3xqLa4Hm53nWMtr1NX7nt9d3Q/f1sD7IH9V++kVBcBUOBPGWGDIdHWhvnUIvxMWlxIaRhuo2OpF4jLiVLfvxAtyrLi1mDHb1yTUcv3cSfRwxc1SSaoTmblA8NNfiizqMkUqTMiY8I4bL06LZMcLlafEMx2hWd8lG4fVJFr3qs6BYHcFvN1AexKmrJ3Gz9zpytAhjcW4bV4SjbWZwHf35oY7ri0fdiiBY10Zy5FBDGsnz2vK4kb2FfWcOYO+pvXiUe4yBWM7IJJ9iiWs5gVep+ZKgNOrNSLDdXkhRB1Lhe9bDlVJQwp/9+1BpeqzG75636JjBcWvnbry+cAlt13Asg+mqK0X62X3RLI7ePIGrj65a34baQm3zHBi7N9RQQVfpMe7fv4/e3l7EY/VVB6/8r/F88DIMy1Lm5pOeLtx78AC9+T77LmZupeammpu5EwE3mAQfCFlQMZ4vUfGFlhNLhKqoO3JuZm/g6OkjOHLiEG4/uIsC3WBZnoKbZ3kKVXuNCYcFwQXLwx5aFOnupm7du4vu/BOSwdjkPhZGaOWhiirvPM+/O3du4dGjRxaYFQ0iXl/jxUKEUqDbc/v+XTx68gTlkpvUNL82QG0EmiA0WiGCziFCUYmTSOJVlQJ1QxOw93DkzBEcJplcv3MdxQq/D8hECK/w1SfdX+NVgILgHj58iLt377KXF4Jvnx3jGjY0PzJY6MOjx4/Q19eDYrFoYbp+wqaxvFBopHuaMhaa7TNamWRoonWgkMOd+/fMUlFnV8SyIKvBbqLj+xjfvwhiqVkpRgQyp5WQgu3Pko/k0JV9jAOnv7Wl4RsPrqMQJZkkNK/mXGaP5tfmjvl8ZSw028eXf75QfFk+n2dfLrFP9+MxB6tcKResSDo9fxZ9GlcPkWmUTmZonTw0UlGk42tMDtSmUv1HPd3IFQuIpxIWvm83DfJ79dk4LYCJdClqisRjOs9c5OV880hc9mqRPngBD/of4YsjX+HzA1/gTs8N5BMkkxSJJK65NddpvYUzTlV7BfF9ve7RIRcokUyalyG35/GjB0jE+TmYQ/E68LSkMm5pRfhXomViUbO8CFkt47FGtO1Eln+O0PJsrpy3u7mLITKXPPzkrlZ3nA+sJh2tjAxZPOEiC8O5PW40F5Hky1m7peL6o1v4+uRe7D35LR7nHiIXzaGcyBuZ2L051MThZMKrJPn547+aaCKvsIXqy0uDzt1YRkdjH1Kx+37Yf3WzrpaKi6UitccdSzrlJszr248XI1yNRrzgbQCpqvnGvAjFmtTvBH2NFwnvduTL7My0UIpluhxqXyq1m5sYW6EmBCQVEUuZvtX1J7dx8OIx7L1wDDcHHmAwxoGGJFNRhKzC7oNtX+PVhTcI/Kqi7q2ypeanII9mGJc26kRauy5RqWXGxrSGHfjxrzEJoBmaJ5FkC3mboJW5GvwQen1BxFIbjSsoRsp40PsQh84dxT6WSz23MJAsoRAv2Z3lZRbdw6X5k+F4Qdf3Gs8MpTxwxkGV74uyS/St+7GGp2u3qA4WLgrT1ZBYSw8XKJT8Z9tGM8ERzQb7aL3XeNGQ3Cvlqlknul9KFovgM3ZpmlQjDlvIrJfxlGbwy7t+PsYsElodeZJEXzSPB/kufHlqL748vgfXHl+3PCb5ap5nLSNSdteiogg2XY/TJadP/r0mmetl+J+Le3oavdK2o5VRoPP4MiHw55yoMtGoH1t3u1c0gc4iy7JUUX928Pr1LIPAKHs4X1cbOA/dkm1xdOQJqVxQrosJa4jXGA1242A0jtaWVrS0ZqzD6SYuuTw2Vao2UQm2fxZ4EqkTCl/5p9v8chxEbtG1+ePRb/Cnw1/j9sBDZGOD/K2fF0dF5PaRilIwJBFjQVV3sPq8Gu64r/GKQTpEMinpdg6+Os8nrEG+7VgC3RgPhm+pnUPFTaK5MN6Otna0ZlL8XKQVrsnBySeU8ETRRJRXHdbB+TqlfQrJpIXvgmtW+wTN5wnlWeHJxMNNmGphuEjSKOJa/y18fWY/9p05hAeFbpJJ0eZKNMLFqAfaPl6JW9FdrTVSalZe49kwmvzC8h1tuyHQ4opcnTwyLSm0t7ezh9M61E/j2r85xrmnNotYfkplEosVlZowQUV69hO/xvhgnZVGwNxpszG9fap9Fw2W9uokIjV4dnL3bobmQJSrpBgv2LKwghmv91+zCNhjJ47i7uO7NnlXf+rc6/b/vkJ9N84+nCglMbV1mvVt9XE3fNXxtFo1Lo2QUnM8x+wZIpQpiJa0wETz1tZ+XuNFQqtt0VIE84zMlcHczcR7MlHnrq2qqDwDdAybUDVSoRnMkkMW9wZu49Dpgzhy8jBu3LuBYlVppgPLlNs+bYzCa7wasLlS9uA43VJldZORoL5tTu5ztumohOJNVxWl3J/ROhPTMtPRUm0zZjOz9jUmFCILP0GuopGkBWnMa5uJKRmSOT/bxCehzl1RSky6oNAroeTOvvhjeNjAwP29ZWkTtBbR6gipSBdGRflMnuSfYN+JvThwYj9uPb5pVkspUrBVnPq45Y6lo3krR8XrTHNoX19GAY8zrjIWmu3jyz8TNLr4CvnQjEW8nESm3Gp9embbbJoHcTUkReMm18M6NN4yJiMYmZTjVqa0TMXiGUuwcOoiIxSvmK8xcdBjNgSFRWezg4iUqli9aDlWL1iFWelZSEU0h+WW+qxTRtzdp3odNd+utZUvgns1q0QkIXLhX4F/d/tu45sjX1ouljs9d5CN5mi1KFWFX4WxXal4PMYPXQd+IPUbSigcqDQu5Gj5di5gn15sVorSVvvMbrYd27pm/Y4Tw6TV7AAiFT3TQ4luly9YiQ0rNtnnmPI+vsaEQjdr2b1SlTIVIIq2ZMYylc/KTGNjl1HI6TfXPurYuuNYC8dN7zyWYvgSQqP1QIqwCVhFwt7qu4n9p/Zh/8l96Mo9Qj6qPMEFlOPUC8uB6wjFheQHlkjj8Wybp1PCxvLS4OszpF569eUlo/H6atc4Ntwg5MhF0xWpahIbVm5kn15hfVt9+nmNhBH3rk+8OehEemTm/BnzsXbFWsybOR9xJbh9jQmDGlz3Sek1Hk+go6MDSxYuwfoVazA12WGPRFAaPz/SqFs7yPXQKz+P0pHrzg/3CBTHBhAjlDxu9F23+ZIjJzUBe8du/tPkrIt+dRGwT0MUr/HyIV2yx7ZQr/xApOjYRIJu9OyFWLtsg+vLymVMPXqhcygeZmLTmtY8Spoj5qJZS7Bt41ZkMm0WaTcSVJlweY3xIZFIoKUlg7nz5mLbljcxf8p8jiBpjh9xJGN0eWqEEiAgB/ft6KRiUAxLrTmcdXK/764jk1OHcf3ONQxWsijp/hy6OrJQ7O7hhkHmNb4f0JyJLF4VQX22Nd2KNze+ZX05HW2xyVmbb39OK2zUvb3paqOYRkbausXBEloTbfhw54+xeOYbaEtMQbxKv18XFDjXinjUs1lK0byNfPo8MdDl1otGWVf4KVSsQzUrrxJ4PZZ5K1KwVzm1Sj6tOz5b0+2Y2zYPW+ZvxkcrfkQiSRmhJ2L0clMZ93zaGqkEbofJJCQHTywN9dZEboEWx2C8iBzJoj+Sx6N8N/adOmjl2uMbGEjkkbdYE+3h3FqJtSn8ORrLBENH9PpYK/pB5xqt/DPEUB1wulVWJCz7cLISQ0es3R4q9+H2D9iXW1HMUffYd/XMLctVTLlJvs+CSD6fH6IrOphgz+GpOGWVdWFPDeRvuotUd5T2cfS6NHAD/7jvn3DyzEl09T1ELB01AimSSGQilyNFKn8SiWrGxa00jqwBAh4aFd5EN/B9bTR2alW7bkPo/ZBjh48R4GVZTiKRmN2QxS7OayzrnopygvJKY3bHfHy86QO8v+FdzEvNQrJEd1N3PChFn6VMVHSsryNfg/eqaz3rlq8rZUW5e99Yka8DkCtDu4TE8qjvPg6ePogvDn2O7twj5EhwGgiUK1bHk3QkQnsNjhFO22hKOxKayLuZog7fajhsr2b7Nm2+cRwxuLbG/Yeoi/3vIpGHYpQ6v2SoPsqNIxdYrmopSsWhgmm6QlaIVmo3Ld+Cn7/zMyxsWYjWsqwTOTv8PZCJ7jZWO4X71HjnVoZtpR2taAafsJGAxdJNUuk1mZMspzhmprGwdSF+9OYneG/ze7byE8lHkYwmzSyPcaSNxnlpE5nZTZWyitVfvRBqym7vXXmVoeXeqtIklnK0SiIstDpKVczqmI0f7fgI21fswJzqTKQKaURLJGM2uMLZfT1VbxuF9EpXVPIYkhmtpvR6dUUTt4o3KdA6yUfLuNl7G/vOHsR+FlkpA3RtdKNfPknrMu7matTimsKzVxGTvrPzulI/+vDSDO66hxab4OXrSKV2LH1uwHgGI0PDMR306otH45VLbq6urrjPrzKk+/56df0xfhEplTE1047tq7fhx299hAUkk0yVbnSFRMK2dXAt50m/xgU1eY2NYRaKx1gkUIhX7In6PejDrQc3cfbqWZy+chrXH91AX6UXuXIOeZrT8TgVglZA04d6NcHYRBDcJ6JKmjnnhCDUVjpCzPoqWyhxdu4qzcxohKNErAXt0U58sv1j7Fi1ky7PbGRKJG66kyLxWIgsmt3c55SApSHJsOpvj6k0eVWMSHpoo9zsvYsTZ49bufH4JgarA/ZMHUtBQGIRTJGayEwk4OGVrxnC242GRlJorN/IOsFz8/yqno7hOlCTcza9Dmd5+H3tWO5be/XwndJfQzW409tI8BWErt+SYel6KRvVLVGKoz3Rge3rdmLXurexZt5atKGT21TsNwdXn7H73+h4ZkJRo0uZ8lXlwqjQXO7DhVsXcfT8MdzquYuHdIG6cj0kHZrXkUG7vb0RrrGGIvxdY+XsnEYoSfcqQrGmdQKUIA2BkglDlLWJYr20yWJee5xWgCZHoiU2b9scbF+yBX/5zi8xOzbNWQLRBBIcQRQiLbPUoxmhCNa5QwJ0aRgpCx7LE46ewHK7755ZJqfoqt68fwMFujiFaNFNvnI7Ba/pHCb/SSQUp1N8dR8N+kmWl23C49WqF9Sndn69Nj3fyN+Fz1OfcK53Rt8xXSd1r9I7hW+Z/r2KsEHWhRFEFAlL2bWSPrYs24KPd3yC5bNWor3aiTQ9Cc2phNSFcHJ5HlJ5KkLxiuw74WA+Z6/RFIWciGj2BE8Gn+Dqne9w5cZVXL97Dfd77qG/3A0Fcwvad7ydeGhlWX+e35RPihONmTIVKzmUSuoItkXtVZB4htSjicJNBqGEz+GvR/knSuUyMvE0ZmfmYuPSrfjVe7/AgswctJTcg9E1X2VzTwo2Kg2/9jBqE2mB0DyZuO81KU6Lkn8PC1344uge7D9zGA8eP0ShKsIXmdAyIZGoIw0hiZDMmhHEkG2HYfj2jW3qYUTC4l5dO5oLxzfxaszSXMpK04R0IhaXAxbs6fbh//a+2TmbfheqS5hMNCnpnsxI97CSD3SLv1s9JU8bvrj/yyeURr2yz8EgG2M9UtUM0pFWWrtz8X/41f8Ji6YtxdT4VKSKaRRyeSQzsn3rcvRymnRCUS4LNYjLaRHsLlObDaEHpBcqBeTzWSv95QFce3gV3fkeZAez9oR3BW/Fo5pbidaUqBE6avhrf5EVUlOVip9Ix+hWlXDj3nWcvXie7Rsxv1/H0oSioEd8KvdqDS+RUBSspuVgJacSigW5O8D8aQvw8eYf4Udr38aU9Ay0xVpteV4dz3xfXrN15HJs1Gv1E2gu9aKemxwQRCA5re7cz9/F3hMH8McDX+Bxvtdu9JM1olU414kDMgmO1SivF0koHu5phBxdNfdW5KWUqshEMmilS6jJ6VlTZ2LhnPmYPmUWygUthTZRnjEIpA59F1w/65GMRTCYHUCcHS2SiuBe9z0cPXvU3HebpFZxWzeVxWRD+pDLZS1mSbqlzxUSoPRGaUFntMzCZlomP3vnF5iZnEWXmmRCF1pzcqJFZTiPDmEPV6eXQihiaX3295Xof+3DarGNyPI0p6pldv9oAX2VPmR1Y1mFFgU7VplE4KHdwxfQVD9CqMRo6SSKiCSLOHP5PL49dgBXb99Elh2jQEX0CmkdUjIL01ITJZgsQhFU92QyycaPszMAnclp+NGOj/H+yp1Y2baA7UvLRKZohMRDk1XXL2hJL4xmk2SubRwhiHDtweWUvVqqqHD6wTs4cuogPj3wjSVKysX03Jz6PkJjMKPgJ+dHQrN9amjW6UIE5I8dJhk92jSSiaNQKiJa0APko0iXE8gghY1L1mLz6k14Y94bNNkz3NqlSxiOJucdiwB4XTENSBWSbLKEu1338NnBL3Dq6hkMYNAIRY+HtU15vWMR42RAelUqyXV2YQSKM9GcnJaGZ7RPxfbVu7B7/TtYPGMZ3Zw2pEotJi+zS1gBpZ94JQjFmNC/D974TmMXo8YJOrIaQqUaI8nwjzRT29Y/RDzcX/w5wghXMB/Vomcfzjw8g0PHD+P0xbN4PNCNImUhC0WEovO9SoQiaIVMhBqP03xXFCz/3l37Ad7d8C4WTZ2DTHC/VDyme3lolVhH0fU6/10y9Uo8HkKR8hctxiWCK32XcfzMURw7cwwX715CLl1FIenymDSTdxgTRSi+jW1kDEHXEF6dstiXpB6qWUYsRy3KV9BayWDNghX4YNt7WL94DWa0Tacs4jySapdwOw5Bs2sevR7KTMerIXUM4uqj73Ds7GEcOnsID3rvG/nK2pNbKPhwipeNsO76/ioymZJsx46127FjzS4sm7mCZNyGlirJRKuF2i4mT4L7mk6F28PVKdzfnhbPMYdCRdf7gBREF3qv3/RQZmXT1jFUlClfF994zPDT4D3C5NJsFOiLd+PE/ZP449E/4NK179Db32MZxarsqPacZe7/MgmlWSMLtuROmcTo/yuZzaa5G/Ev3vyXWNG2lL/SmqDJkoyQbCLufopqNa05Mx5ERV3HEYvqNRqhCJpcVch8NkLqLXfh84Of4dipY7j98DayyQIG43nkEpq4Cx+neSeZaELx1+jl5J8npKVpochKlmnNxmnCx/NxjqpxLOqcj5/t+jG2Ld+M2S3T7TsRibV1Lb+u0Oxam3zXpJ5aLu+nHp1/eAnfHt1L8j2M3kIPrd6suY/mGrLoeOaGNrWMJhdehoqEVTi9BqspyanYvGQjPtr8Ad6YvgwtJVomkRZaepKZe56xbvK0/sjd9VynOpxcXgihjAlekOAJRZUrU6vlzqhy0QQNK02esSMpKM7MMW0TPFBd0PyG73Tehxek2L7T+LkBTRwq6/7NgVv4T3//v+JKz3eWX5Uns0dMyA1zxxhKKFLYGpoo0kTCNTBPqoA1XocSIYkKZMVVyhGL0ZneMg2bVm3EX7z9K8yLzceM6DTzzWm80qhPoUB/3eZLSIXa18B6eUIRHNFKRvbRoLqr3nJ1RCh62vDj/GN8c/hL7D3+DR52PzCrpZSqkGicBVMnkECRQuRRezeGzMY7h+LbJgzJS3WR2S0zXFB0eLFYRkuiFRm6gAunzcOPtsmS24WpkVakyikkixHbJpJOs8622xA0Dlz+vKZXrKPOKwLWtavI8hhAlpbcTfz9F/+IcxfPoK/QhyiNRS0mlKh71kZBXaWb/noNL1ivPFy7S8PcnJdQKknX6RbyYjvapmL5rKX49z/9a8xKzqRVQnlVM2b5aptolDpFMlF9pTsm+5AOeTQ0k8M46zhhhCKYU8PGVIPptTH2xBIXjwAzKdloamBLJ0ghaKI3GlfERp4jrZalz+M3X/8WZx5cQG9kkHsFSsp9wgqr915gk04o1QL0iE51kkgiiSKpoVzSiNZCU302Pt74IX604X2OtGzwSMYmyWxf1tJea71OFOKvt/7Ok4hThIBUWK8SR9gyrX+lHxCZ3O27a3cNf3XoCzzJPraE0mX6zGWyrNFTo9Y0yKb2aQyZueOMRCr1fX37hK1cXxdNImqyWhZrOQtkYh1IljNYtXAFdm3cjp1rtmFKpB0ZmuwpyVKxE9ynFOMAFvcVqV9DOJJX+iQrSr9qsltFOlvUKhuJoqSHuccGOVDdsajv49+dRk9vF61qzQjrmrknq+GunXrlDjvphOJ1WTKz61aieF4Uxy6kSCadtEw2LN2IX334F1jUPh+t1TbW1VlS2qY2eGuQU52CYzaDr+MQjLOOz04oDbDOFELjKDEWbPRkUVUTQcOrEcWoIpTDlw/i08N/wplbl9BNP1cmqkOgSNb47q2HLJRmQgt/17jP88A6CTt0QhPQtJqiCZJFKo1qPoFpLfPwzsb38O6y3Vg7ZSVa4q22vb+WCs1WL0Pf6YYiqCcRdnmcNedM9rwKpXWj97plWjt4cj/u9txFLkhBoCRJBsUnNFOQcXeM8Hb162qEV1xBdQpbE76uvHp7gFySFm2CBBEZiKOtOgObV7yJLas2YdXi5ZjbNgtpkkgLCSXOg5glxeNpAreiWJ4GhHXPD1KCEQqtP9FLrpJDNB2hZdKH84/O4A/7/4Szd87hUZZkUtLjYurQ/vVHlziMtXo40ZCe2GNnSYYiEw0QtoxeSaAjOQU71+7G+3Rzls7SBKzINxioQh6E5OKfDPjUGGcdJ0wSdrGh8rSQgluD2/q+RlCa7xFaJpUeI5NvTnyFs7fOoL/cQ0toaIOLTAQJPVwmG6q33BxZJiKTeLwNSXRgVnoePlpPs335dizonMMtqaBRFxvSDBUqQWMJQyOlirPqRMRuziRPMhOZ6I7h46eO4e7j+y4HrG8OKcUkKP94ICLR0mYqkkBrJGXuTVKkQZdmzbzl2L5iE9YuXI5ZNON1l7WsXYXiiJQqHCkUTFmPHxkZ5p4EA5Qmf6tm2dDlS+Ydmdw/iz0nvsb56+fQJcukgUw8XvaD7eTmeMtEt22ISFqibZianG5k8u6m97Fq1lq0VJxl4uEJ5Fn65LPg1dAuokYoLIJGlhwtEbk5skyOfXcM3ZXHpgiaWHKdceRG1qg9WRD7+xFXVyQ3J5JMWzj9lNY52LRsGz6im7N2ylJ0RNNsXG3LEimbZaLyNDCyJZHYa2B55CJZy7Qmy0RJpW/cvUEyoYvDPy+nl0GyzaDq61pshC1FkCappOivaSVi6ZwleHfjW1i/YDlmtypuIkEiIKlKxqyvQgLyHKq1qjceqdl5aJWoCJo/sJy5tNpkmXx96kscungQ/dVecxZfRZh+qa1JJrrxVm5LMp5CR8q5ObJM1sxehza0I1HmYBb0IQ+70TcoLxqvDKGYwqhQeTQBq9Hjdt8d/MPXv8H5m+domfShkmQHrD2IezikqL5MFsLM764/hlKBvn0+jo7qFGycux7/8r2/wOy22WhNdJir05JI0wN3je7JKFzUKI3FQySionkBdQzFmigR0pPcE5szkZtz8+ENI5lyVJOJWqGQReP2f2nWG0/qYh5onbGN7Q5XlmqOFtSAlogjWNg5H5/s+gQ71m3H7I5ZtFwytgxazheC1QhnmVlhvWxuJJCHSiPqMuXv/CtSHrrNoF/3n/XfwJ/2/QHHzh9BtjxoYQ0jr1g1aRFv7b1gi0/X715ZZzaiBt5MNIOpielYMn0JfvXhv8Qbs1YgUaGLo5tz+TdkfmeSMWFzKM+LEkdrPWozohD+RA4X71zA3332a1x7dBW96Hb3m9Bv1G3WZY5aZJdgT4LKNBKJNOs84e+edw5Fy8Euy5oa3LknxVwZ86bNxSebfowP17+PaRxJOtIabTl6qEOZReJWf0w5A3jlaQYRl41ScnM4ykb5V7Ip2AIe9N7Ftyc1x/Q1iaXbRcDKNFYnk87H2KmGdbomHWHcnSO83UidULIN/cZrsDmxcoVEArNMtJTZFm1BrBjDykUrsGvbDuxctwudlU4ki7Tk2FBavXNwxzJirF0nHScjdPfZzwt5kpc8LWSBbSJPukC9GiSdPCzex9/+7r/jzM1T6M3RMlG6Bh7YztAkpN7rSHgexcdZvWh4ndDVaf65QnKVm7N5xVb88r0/JwkvRiZIGq+HrGl90N3PM3K7PBPGqRuvEKEUkaeJrpvUjl4+jK9OfIULt885MqEi1MLDrYfQnaBZN9qqUTNM5Mhca2gqr3V2flZRHEl7fAo+3vFjfLByJ1a1L0aimpI6cGMXAWtrowGkyB4jNZn5/gEpiFBkmbB7klCKuNF7wyJg95NQbvXcQ1bRsXbIEIGElrpGJdBxE0od9eMNV+Dw0XQttCksVFwk0hpLI84RtQUZrFm0Btvl5ixfi9mZOUiVUkiyg+jYqnOtLiyqmzuTjh6cwa6bFNuEUKQ3RirJKgYj/bjw+Bz+uPd3RiY9+W4LRZBMtb+W6j2hNE7CNsKf40XC6VRQW54umq9YBOyONbvxzoZ3zTJpq7YjXcpY3d1kvZNTs/YYAtvmKTBO3RjfVpMAzZkUaKaLTPac/NoaXAqgziNlUqey7PuaXHtGYhi1Mz0jfHyNXqVkcztm45OtH+ODFe9g0ZRFiEV5vQpqowllZMKGqdIstTKG0obhO4szy9U5CySQGzh+6giOnj6GO4/u0OLNmatjz6rViplcghHN+MmFZBRhx04l4vT/lUgqilQ0gVVLV2L31t1Yt2wdpmem0/50nVoBa+FmVu3V7lq5S7DoNcbj6buR9EHtoWDHcqqI/kgPzt49ja+OfYFjl46iK9fFAczdsKrRPcHRPRq4oWORyYuGI5IQmURjSEfTmJKeVgunXzlrDToxjS5hqqYb6kMqjoRfDl6u5ELQSCE3R5bJyRsn0RvpRj6VtQ4i60WwSVtF/I2TLZthokglPAqqqNGnTZtqGerl5qxqX8bRIwMXx+fcHCMUGa/sAHonaytkoIyKuktXQbFaxD26OVrN8Tlgs9Us5aSb2Gi+y4Kx0XxylEt18IVntGJyUUXDqJaRSaWQoKwU5Dd/1nxs3yDLZDXmtMx0yX5KMcpHBr5W+uqxOKq/iohEc/IJkUnwfSN0bg+Rqx5aduHhOXx18nPsO70H3eUntIRz/M3JJm6uKK1HOTKvAJmE4SNgW9Md2LhiC97d+B5Wz16LDkyhbZeuPc5Geu1vD6hZpi8BL1x6UmhVUnEmjj2d4ul7zZvkLa9pH27238LfffZ3OH/7AnLsFLEUTV5uqElOZ4Y65dLElIT+tO5OGBJ+YxkL9swbe6CW5nFkvIvk2HBszEQ0RV92Id5Z+Q7+YvdfYEZymqUd0G33CeU0sRvZdP0BGs4neQj63RcPvVf0q3K8KgfsYCSPxzTVNWdy4NQhywE7GFNKR1ol1ppK68D9QvVq/DwipIjjKOHjqR2lwOHvFDkkG8ospOB3uaixSgaRbAbxYgZzOxfh/e0fY+Wi9UhXOxC1h061cGRxrovmToyUrIiEeWDJUJaLncfJU+/VoSxfDIsts/N8mtjPxbIYiAzgdvYWPj38OQ6fPYaeXB/VyZGWpr+rEUWPan6KxzIhTD68lWU1svkPuWDS9qitgHUmppi1++fv/QJLZ65AKx1FShPVkqxj7z67tmlGsJOJFz6HYmQSmGGKflUUrCCOKFby6KvSr711Dr/9+ne4+uQKeqp9ZpEUSTYSlikjrQFTmkDRBDc+TRxGMptrIJmUcwMu+CqZ4DXy+gsyktOYP22RRcC+v/FdexiX4inS1TR3ksqrOKWXVSM3p2zPM3K/+RGpURHCZuygrA8jjBIe9N3HoTOH8NXBz/Ek/4i05oKcRDquo9ludQTnFSZKYl727nyufnpvr0b2CutnnVjXhEXAsh0LcbQmpqPcD6x7Yw1+tON9bFu2BS3Uh0xJqQhptZARJR/JVp3cncnJSa++Ho7I3KvqJ8s1EiwL63qkc276tR8PCvfxmz1/j+PXTqKnr9tWCZUaoVQu2rWqXWSZSPx23KA9xoK/lueF5KQpLrW/xRRFC5SXLJJWlLNltMbasf6NDfj5u3+GpVOXoq1CMtFSutqVxV5Nr1zd/THHJJZg23GD5xkPXjihNIuAtUdl6nuOtocuHsBnRz7F2ZvnkY3nLdrTjUpDL8s34Hgb3Hcsr+hhjJfFh5CMLJMiXYpSFtFUGpFUCyLFJNrZST5558/w7tJdWJKcZysXieQIS3dBHIApbqM70ACnMDDLpI+jbClWxu2uWzhx/pjFmtx6ciuIgCVhx3NBg7M0bfjwd4HS2f/PBq+KvlM7GetbWZCqlxspdV+X5ktEwtWBJFojM7Bp2VvYvv5NrF6yAtOTUywCViH1SlOQIKEoJkuxJpr7qF+rXnlMys9LTedVkZzsXhXub0FrmmBNVNBVeYILd8/gc7nQt87gQfaRzXPJhbAOGOjYRBHDs0I6piVxvdpAyj6gZw7LwtWcybYVb1naRt01PCXaQVnJ2h2K8K0GXmbjxniJZZyE8jx6NS5Yg4tIvNtiI0jBAolEJn4CVhGxihPwDd2IZt9NLiiqRMzIJMFRIxOdgtmt8/Aj+rS7l2zFvI4ZiMVJAomxRTqEqAL4DuInUi2ak+SqSWmNXCKTk+dO2BMG7j95ODwC9qXBdXYPSsBcPU24KgK2paoVG1ontNjWzF2Ot9e8aRGwU5JtZrarQyv6VZZYUQFrJJPGeR8nGxKGqasr0itZu/7GN30tMslG+41Mzt8+g72nqFtXTqB7oMvIxI4la6niLMOXTSYG9QdZJpon5Hs9DjTDP+UXFpkoCnbF7FXoiHVYP3rVodZ5oagRSiAMKY6LgD1nlsnRq0fQTQUoJWi2m5vTnFBeNtR59aiLGAklnmjD1Pa5eHPldnyy5WOsaFuItiqtEg4UiZRuihz7+n3XCEMdyRUXUq+b+RS09rDnIS2TE5ZQWjlglfbSrd64jmcd6sU3ZR3q8L6EQatLQWuKgI0pApadQ25MK/+Wz16C9zfvwvpFKzAj3UkjQkFY7po1yIhILPE5X0Uwvm4jQWkx3aqfO4ZZvHEOVPyTZbLvzNe2YqjkSNzQLBPB6Zc79svWM53flrXZznp2NOiKac5NAZDrl2wwy2TlnNWWA9YiYF/qwDE+vPArHCkC9h+/+QecvaF7c/pQSZFIEjJDHaEIruGHkkv4/YtEs3PLCtCcSSWfwrT4VGxduAF/8f6fY1HHQsseJsLU6KzhdKQQZ/GML2FoBLbJTZKEjdQkEyVHykcG0ZPvwqGzB5yb8/imBWHpIWpavdD2jaP5UKh5x9/EOlJjeRrI8lIH1wRpJEf5WQRszB4q9Wfv/hS71+/A3NbZdt9OokzrpOSz0rmzWZ2CCUkRuBURpzpSjTSH1knbSK8sAjbWi/vZu/jy6Jc4cekEBsqDdE0p70TcrBHN6XirxJPKZKKZXtl10KITWaQ5KHXGplJeC/Hzd3+JN+jmtEV053UK5azcSFn4lE5DqQ9Edbm9LLzwOZRwBGwunsXF2xfwd5//D1x/fA1dJd1Wn7NbyG2W1u7bCEXABngW01SCFpoJdywDQg1ud8DS/w/ngNVBZ3fOxU82f4SPN7yHGewcGoX1ACV1Jvn67lqp8MEkYRjherDpg1eWgBhkldS/L+Fh/h72nfgWn+7/Ak/y3SgpPaEsF01Nc3u/n5+MGz5R3fhZcNuO/MtQNN0uOJ8my5VMSxPlioAVmWguJFaMIFGMWX7clYtXYscWzQO8R/enDaliCwXBuvpOFRxrCNhxwnfz+jwtuvEyDH0fiUcsXkku852BW/ivf/NfcKv3BvKVbEC+PBxroYlw35HVif3y8LPo1rNC52+WAzaTSqCcK6AjPgUbl27GL4IIWLk9IhNFwFpmtVBbh9GYJkQYh5Hs0Ez+zWCEPjYmgVBcBGyeI+6xK0fwxbHPjVR6ql0kmMF6x2CjRxSkM05CGWkewiP8/mnhFa9cqOeArbCTTM3MxPtK9rPsLazqWIRUJMNOSCJsyAErhIPWmjWuEZ1GnBopyCpxZKGgNZ8D9vMDX+FRjsRrVon2dPIStJ+HfvPHHBXBPiNe0zAMV7jwvtqHBjvyuSJaI2m0xWmt5SKWCGnrqi1400/ApmcbmaiD6FqtY7C4Oqj+fNF7u37NkejoQadvQii+Y2k+UmEHF+6fxj8qV87NU8hWB+x36Z7mXixITuEHhNrWE8pkkomgc5ea5IAVCU9vnYK3Vu/E2xvexdLZKy1FqCJg6ys5FEhNXmPjZRHK+LZ6DsiEV6yJyOTrY19Ygw9QAWSZSDi2bGe+cDC59gpAjR2nZSIyUVCRMs/Napthlsm7y3ZhbvsclGmua3LPLBMqhpYtK7SwKhwJWavgSF6BRy4+n6oRAvekI4BbfTdx+OQhHDlzFA9672lh2AL8lFRYcwWS23gV61mho491Bl2/svFJBsk4TfaEVrciSMeSWLNslQX56R4dRcBGSMhSylJ0aBtbP+GrFnVEyPaqDq/vWUaCCEMpGzQwnb1zGl8f/wpnr5+mZTJASnaT+zbvUOIVOSau4WUGr4lMPFwEbAYdyU68uWq7i4CdsxpTLDt92vqGrA9Lbaq8L81G0VcML1yyPgJWlsnJmyft3hxFwJYSHI3ZOQTldoiVEybAyUa4czdClonM087OTsu2/uHG97CqfSlay2mUytqePaBatg4gUWol2EVMOF93NPgO4zcTmcgyeVh5iKOnSSa0TjQBG01FzCXUypi5RME8QzPTd7QO+Kxw1kS9eAyRF0lFEbAxdtR0LIUFcxZg97bdZplMS3UiTvfHnu5PuVRZY1kNem9kbEVZ+ipa7bVXv4w6GmR9aGA6f/cMyeQzHDz/LQagHLDuucx2XJKJVoJehl6NBj9/o8FKaRvXL9+Mdza+j1Vz16AzMhUZtFJmLtbE5B6n3WptP7zNXzVEcrlc06YbyxzUCOmVTBW3yqtHqdJsTTVqoZzFzf47+H//5r/i0qNLNiGrRxRIOIUKzVF2IQW7RUko3MmO5ZYGh+JZTNOw8o8E1yk4GmqUlZLTpFaT6XtVQ0t4M9unGZn85bv/ErMwB52ldrt2rcS0JdtQLOVtvkSujzKjChG5JPxdcB2DJitfw53QVEOPaeW2moBVeHhX4Qm+OvwFvj22F/d67tnScZW9TO6i3nuzs27JDZeVyGx02JmbbuV+cZAr42QY/tbt5++Wts+8ljK95lQ0aRGci+csxsfbf4S3Vm7FtEinzadUs7wqPR4krvkT2TDa32g3kJMjAA8jHKuj5tWCK7W4FLc0XKEN0h/tx7Wea/jt1/+Ak5dOoLfcjTjJV0+ylJxl9YpMNIciXVQgrRBugxft8vg66Xq9RVnhQCSCUw7Ydro5K2YsxV/+6F9hYccCTI1PQ5KWSTlHbYrQaqekLM6IRfpjJFm//BACGYUw5uAyTnKqx0sNP0czPDOh2GoEbVQpXrxE14Cmu1Z0iiSJaKKKPM3zC3fO4e8+/zXO3b1Ay6TXhKP9JGKxrRpXCikB1y+iiXBeIKFE6cPG2UHknkcSMaeA7ATpRDs6aYq+t3Y3Ptr4Dua1z7PbxHUzlgv79w0SXK/qUDOlSVJBy7uX4Hs1DrfTdxa8lYyYvPL8uzdw2yZgRShPsg9tzsRZJYEihuoz5JgNGJtQhOZbhVXME0qjayVF1VMPZY3onpxoKYV8r55S12oRsO9uexu71u1AJz8rYC1ZZn0LOg6Jh+Z+WZGzOpMnEjtr/RzOeiGqLq9wxKKKqWMpyoxakosNknoHcb3vhuWAPXHtJLr6u83NMcEEeiU5e8vEy1CYLELRpYgDJS9ZUz4HbEtKka5JtMXasWbROvzZu7/AkvbFaK20IWGrPXpSpFakgmuTuxNqg6GPvfAY3povi1DGt1UTOGVzKuGUL5j84qib4yhx9OJR/OPef8KVx1dt0kw5T22UUCNTWTT5GqumqFy0TjRq1YoTZrg8C9SgruMNh/9NJUKfXmRSKdEaKHNkoP+voKwp6Q68vXEXdq3cjiXphZhGv1Y3r0lJFQWr58K4ovp4MbKR1FFCjRUmgnAT2hyAkUnROsfek99i/8n9ls9E0bGKqdDd187U1bU6K9DO55vNnztUwnWrl/q+/nOzfRuhdm2EHgUid096reVxLRGnK614a9UufLDlY6xfssmWOhPlFAmBbazCTuIjh711MhSyTl3h5Tkr1a7HXa8gDzMW04pSCZfuncf//OzXRia6r6kQoUsg/dOIbnNYykfMzzyEi2lxx1IJ69iLhjq14nJkASvixD3RL4r2RAveXLUVP9n+sYUdiEwyxUxtYBblWr2pIzqGLcXz1cviVYaJ+1kgpfSTqTqMOohGVLk1ioD94shnOHXtBPqrAzTp/Q1MrxakVHafUIL+qnLAxtro5LRjdmY+3l/1Nt5+YxsWTJnJDUmGZeXybN6iGvVUwqOC/05FKze2ekOrQ6OV/HwV/V3vu4Zjp49YDth7T1wO2DoJ+Y7wsuFcNim2omA7YhnLaaIIWCVD3rRkjUXArl+yErOUtlGDBKEBxNwNWqx6CJuzdsREdVJRXcOka4RNnXJzH5pv0THKdqNfL3pw5s4pfHnsc5y+ctruzSmVhutWWPa+TDbk5njLxOeAzURaKbtObF3+pk3Arpq9xpbSfXBeM7yMa38ePB+hsNFFKoIUR8t1526cwadHPsXx60EOWJnt8v9fIYSVTApb4mgWsRWdVkxpm4stK97CjzZ8gHXTlqEj0mKJi/OlbNARRoeNSg06YGQbTKoplN4SSisHbP8tHD590FIQNMsB2+xYkwEvH190DWbdKGCt4J41TDpBR7Qdb8xeTMvkbWxcvNJywKYjWulxUF3k2lkOWLl4cj1CZNIM9YHKsYzIROQ7EOnHmXsn8eWJz3Dg3H6bM1FAWxj+el827DrU1iSTxhywqxeusacfrJ6zFm3oQKxAa9cG5R8Gnnv40/irhtW9OYqA/fWn/wMXb52hEmTBvlhLYvOqIBwEZA1PxVUO2EohhSmxKdiyYCP+xft/jrkd89CWnIJMLE1liCMVpxUzgpnszVETJjtE2H0QibgJbEcmcmXy0Sye5Lvw7cl9OHBiP26EcsBarlTbPjjAS0KVlhL9QHuvurkIWHbwfn43UEaikMCiqQvwya4f25zJ7HY9jLsFKbqB1UKJnYQ7BXUfXnh8vhq8vILiScERfcmRSbTXgtX+sPf3OHLmMAYK/fSS3bFeNXhC00qOzwGbjqQtB+ziaYvxZ+/+OZbOWoFkOY3KoJs8DrsysoJ98TB5+EK5NBb+P6wMlbcrRua+vCDUNf8poQ6iUqTi6ZGNp747jv/tb/9X3Oq6hsFElqMS2Rk090g42u5Vgfed1eB2o5hG3UoG01rn4L0N7+NXb32CGRGa7VSColnTJJOoS2IzHmvBC9QHY6khtTKhEHK916Mu7vXdxd4jX+HLQ1/iTs8di9MpssiSGyorHeOZm2hCoDoralUTjOQ7C15r5Uixev5qvL/lfWxetoGfW5FSoh/FSOZdxKwmD90E4kilOdRB5PbJMlFu4a7SI1zvvoY/kkyuPryEQQWtaRnVZlteXSixhR7ApaXrFspnLS2Tv/rZX1sErE3Aar6EzmE86lY4fyh45lUehdRrwksTYgcv7McfD/4R52+ddlnWFDehJjczn8olf5jFs/fLgD+3n5DTZ5U4jffpmXl4d7Oem7MNa9jgCsxSaLiUO07lpg3DPVnZqlI3hszT2gx4AzTaBrPzcnWKUUesItibvTdx7PQhS5CkHLA5LYEQjkgCyyRYIh0TOs9Two1owvBO7Y+mmX25J5oDKdLda9X9rxEq/mDFHnWx/o11tQjYqclpLnaCpKxje5fNj4gKzbf3wdFNr4Lr9qswjVDaTBGGYpb03JxPv/0jrpBMunNdKJRJvrSINXFbVnIk6tfoGJm8JhpOp9z5NNGvHLCKgN2xdreLgKVlIjIJR8A6aJ/h11m/JyxksTaZmW3yVVP4Q4yIJu3xtH12lNbQT74Mh+ZMBiODdkfn3lPf4MLdszYhqzVzKaP2shl+W/ob5TSTDAt3FlkoupXKPbdzNj7a9L5FwM5rm2Oh0cWi1jnLtpys+otEXBl/PbyFIqKQW6igtds9N10OWD2ESzlgI8q0RjdIxGsl6IgvGVJkySYejdLViyEZ0xpNBJl4GivfWGEJpVcvWYUZLTPQGmvhtnGbh5LSe8KWe0ibjtYKSZlF+V/13uaFgvM0g/SqGC9iMNaPyw8uWsrGk1eO4/HAQ+QqWTcI2IQtS7DPy4YjkhCZWARsGp2pqdi+xuWA1QRsR2SK3Xrg+4PqOlKQ4vcVI/SQxq+Hb6Zb6C/evoTPjn6GE9dPoC/Sg0orzftgqVNsZ5O2LD68/GXCRkbCN74aXTlgt67dYtnW1nRo9GhFWUuigbnuImA1PnAktOKiJsZCbT5FoLKU+KccsHoAl8r1u3QLlYUtmqObMzQHrLZ/0XBzGEOLh6yTWuwBSddiTdh1WxIZLFu4FO9se9uy08/pmEm7JYWMCAUJHiNY8g2OZS6PpMbXBI0WRcFqyXis0VQrI8q1dunxBew7+w0OXzzg7vsi+eo3QYOUllefxUKbaEiXwpBe1XPAKgL2Payas9omYNO07nwaAslJA4nc3JEHEX3/4vVhIjGCy2NjS/DOmbE20rJoJNW8yZ3+O/jff/v/saA13empCFhFdeqO2DLdoETJjSLWgXmMuqk9OVAqBB/zEI3E7PyagNWciWbclZ1eZPIXu/4lZpZnoaPSbua9HJOWdNLuArXjqFvIrG5QXn2yyOAA/ledUcoieWmiVVZId+4Jvj7yJQ6eOoDbj29hoDJoka+VFG0XelBubkYmsF75mdc7kVDX9rA2bGgLewiXNRItt7JNHPEakigV3XJnZ6wVq+Ytx8/f+QRbFm9G0tIPxC1to7tL3LkeNmfC41skLUdeOyY/61XntDglEZQNMM519HolHdNAlI1lcTd7H7/5/Dc4efE4uktdSKRjyJZypktuSVn3BOl4bpSfbPh2Ut2ciyd5uXollc+EZKIcsP/hZ/8WC9sXoTPagWQ1hTK7mshEg5uuW4QiSWi/Zl6u3MU6XD3t3p7Q117GHo1t66HthngK4yTjRsIcC6MSivfxJDSF0ZeTVLhEATee3MQfDvwRBy8ewpOiW76zhmXFpCAW28F9JaiXNnmmEOxCFskE65JwJrlWcxLRFks7oMz0P9r0Hha2LkTMHsIt8qNy8PrNZGencCkHNc4OF76+GUIoXlaUwwCy5vqpgzzovY9DZ+s5YHWjn1YuXEdyCuA7nCkHjzNSPpVnhb9+T3T+vYfuZNVHpSBQEJaIuFxMINcfwZTMTGxdshbvb9yJXWu3o512SbLoRtlanXkwp8g6k47vjqFXwZGYLBh1JrpPZrXWCUWjtIhXLvP9wkP8jy/+Die/O4Ge/h77LWIpJNyxhLrLoP/r308G1Ebq/BoE1L5KjqSnQLa3cEAaKKEt3o4Nb2zCz9/9uZFJOAesMaDJwM0r2dSAHas+mIQxEqE0QrL27Sl5+rbw8G01GYQy4lEbfxAxaBmvu9SH611XcfbWWXRx9FAm9toooQuXouhGML4fiS0nBxUjk3KRI5vC62mGag5AeTrff/ND7Fy9E3Mjs5HIUsHp5qgj2GpGjUjdvMlIIrIaq8FDxY88IpNCrIybPbdx4NwhHDhzEI/y3fYQLkUM26R1nJ04OJ91suDVok9JxL5MDHS1vrBpGhROSiMyUa4OLU0m4glzZaa2zMKmFduxa+P7WLd4E9oj7pb6tKJg7XkwCe5MOVn9WR+Wql6l9IFMLKM8rRJFQ9trYNG4O4AdEUXjcRJKHpfvXbInH4hMHuV7LINbJepdTWcFqbgI2Hp9DCLK0coEQmRiRGADCsmTg08pm8e0lk5bQlcE7AJl8SOZKAesrDmtfNnclNvRCNy+s/7qBuLG0gxOakOL4I7joFOMH9Kx0crTYVx7qNEjSXa0eBT3Ht/HuSsX7P6JkkzbEfC0zDbRkJsjy8RSNsbaLAfsrNb5+GCdi4BdNHUO4gm6Qp4MR0EzIUkmVri/SjgHrAjlTvfwHLDWhwiNFGEFmFyovqE6s1NESiRUGmdtUS0JK2gtTTO91SyTd9Zs44i7GjPbptkIq4FFDypXh1a6Rpdtn8cLdYCabNj5vWKqzi5gTXEXIhnQsi3ZvTkKgDx3+6zlgD373Wl0D9CFtklz7kdymmiL7bnAepplovkcvtcNpC2RFrvdQDlgtaKjR120R9vNMpkcUJgiacmY8lXRXI0v+lyzTvzrC0LTow9jOH4R52gvc/3G3es4f/UisnQnpJgijpdNHs0ghZabE9WDpZJtmNo2zxpcE7Ar2xejkx0nIXdISxCqR8h9aQYJqlFY6kiuOPfG54B91PMQx8+fwPFwDljrcK7TOQvoxTbsEOjcvoTgR1qNlHrWsFZslFhanWHprMV4b8MObFm8GnNbpumRUnbFlqGNJKLIVxW993VzsrBDD4Pq7JJKuw1KZDCtcMnNUQqCfWe+shXD/mofqjyuJjc9mYxKKk3q9aIgPZf7PzwHbCfWv7EROzlYKaF0W6WD8iSZ+BHkGTFmv5IeBcXcGpOvK/asY1tldSut+k0Wr/XXMXT9eTCCVsskK7GhVIIRmN896H2Emw9v4z5fsxW6OhytPDyxhIUwpkAmCE3PzcbUnEm1kMLU2LRaDtj5U+bTnM/QgKagWctIoODNoA7nSxjSE+8DW+cimfgcsF2FUA7YR/UcsD4C1it/M7P0ad0c142HlqeBTHbdm6PHNsRKMUvbmC6lLAfsj3f+CLvWvon5bTORpELq7jw9UtUmBVlnV4+gBHVyCN6HlN1KAL0VmUguA7Fe3B24Yzlgj188joFy1nLASjg118CE7881uWiqV7LK7a7goTlg/+zdX2LJzOVoRbt15tJg+anaMgyRsivUMfYyFa87Nnnt/8xKcv3UhR0ogNLpmb3n93pv+4bk5x+WN1J5HjSpsbtw34haJ9eFscvg5oNbuNt1Dzndip2UL1u/yJeNfJ4dt6QANAe9jVbTmNY6F+9tfh+/fPMnmAaXPVzpYYsF1o2DTCNZjAuSjzWUO59r9iIeDj7E/hN78eXhL3C766bF6fhldO8TDx20nk3hnhUiUM0TKb7EE6UmGFuiSbTTbG+pZrBq3ip8+OaH2Lp0C7tGK9JFms0iOu6tTqR6eAW1iVfKYGhEbHOo3trXLJNkHoNxzcV9h//83/4Tjlw8hG7NMZUHMZAdCPZwmAglfx5oXimsV/Rc7W70CP2+FOWlCNh/+/N/hwUdi9BepZtTVPqBONKJtMnr2eCINBanhKuUV4lES4Ll0MVryaJYpF6VKCf2wwjdbBXQYqrSclIIQtxWD4sWUYwkdVMT2xwTNBBIlqqP+osG3YlGk1UeF39hE2xUI/nB2VgRg7zY3x/+A7489RUuPr5sF6tVkWYjrU3KvSgEHTMMs0YopHK5jGQyYakbq6Uo/f45eHfr+3hn6Zu1HLBFWiSa4FNmMF2lrt/kysb31+3VIFwPkrpto05hDcOOJMtEHW0Avbjx5DpOnj+GfccP4G4/SZcyc+3lO6Br0EaMNYo128fDrmlUuH09aZoyVUR9VLAIrZEK3cEyR9qynqHTgi0rt1raxhUL38DMlnloKbXZBKyfM3H11jEpOx5TU6Vefk4Pgro06UjaRuekmYOe6hNcuHcWnx38zNwc3VRqIy4VXxOwelyJTfaGiGS4TgVyaaIPzc7/LPCdb6QcsApaU5xJ8whYJ6fw9Tl94HHdi8FI2VDfTu2qh8Up74yuQalG87TeJHvJiX0W/f29GBjoJ9mQVHht0SivMcY2TSQwa9ZsJBPKoJewqONEJGknrZT4H7nHxVopzanq5VxLQ3Ctzip00HbDUb/WRjQnFFM4mkXWuGRpMiB5Ef/fz/8bvjq7B7cLdyicko1uHLeC/eoY3vgTiFEUSA2ulI0ilKnxqfjRxh9j+8rtmNM2HW1Vt3JRUYVse6028NWOJzWuX7OvUbgeJtfgPJqAldUhN0dfX+m5jONnjuLouSO4dOcSimlaQMlinaxGwUQRit9q6NHct2FC0fVILYVEQZN3UXRE2rBm0Rq8u/k9kskyTEtNodXSQdM9bas5fs7EyIRFqxoKVNMDy3U8eY3uWoKzB3IKQyksdLuGnoCoHLB7Tn6Jw+cOo6/UbbLUoKCOqPgSFVtmDhGKMFSvghqPog/Pi2aEJnnpfqa3N+62CNg1c9ehhbZctOAmRAUnCw1YjnA9JKuhNeJxfT1qr27/eCKOcpCaQdbErd5buNF7E4/zT9DX24telkFac9rGR+gKCZLEzOnTMHPKVExrn44ZU2dj0czFbEc9ndHn2HXXaStx0nwv16AvDNH7sJLV0ETmAYYTihGFDkoWY6NKWUQoNJDw//yn/4Svzu/Fw8gT+13zmfEGFRaGNvzEwmJFAtQm6gIF0tKwzwG7deEW/OVb/woL4vNcLpNKCZk4mbrslmjLSKu5bT9Kmd/Qbw8k4Ws0rB7Befxqjh5Y9jArN2ePrehcu38d3eVeVDJVRyhDyEJuRvizw0QTyhBQQUyhg0k4qw9lptXbgjL6k1A64u1YMmMRPn7rY5rvq0gm02jKJ5GJtCOiPL9URE2hiFA0vFkn4WuaIx35gf/xW/7upqKCujSpZy6eR1+Zbs6j7/DNya8tB2xXtsuZ5bymOBVdE4g6jtIdGO+/IoRikdMUmvRrSnIq1s1bjU/e+rFFwHZiKvtLihV024p8FbCm61NeaU14e0hy9TZz192MUPzcpB7l2tfXh/v37+Pk/XM48egkbubu0DrpNytF16d5Lb1qMC2XeQZaNRmS0cyODsybuhBvzF2KVfPXYOH0xZiZmonWaJutPskyIY3beWp4UYTiIx4lAEU35hPuvuH/x2//E/ac24tH0S622eQTimtg+YGsNE8roahqimmgHC2D+Oy2GWa2//l7v8KsiCJg2yjsgi3bKg1BpahjKMiKJqWsFEEkar2Db/UzFVK1GiJYvtVDvDVKa3XCcsBytPji4Kc4ePKABbApbWPBsq2xcU2p3FyF72hNfeqxlD/oMM1k2kgoGgGHgPuGCcUHHCaiKRT68+iItWP5guV4Z9NuC1prq2SQoUWizHRyGSNgR2FH0tKwloh9BCx/tbanscHPsthIOJqwZedRdLTgXSPtW4kU0R8dxO2Bu/jbP/wtzlw9bas7sWQEuTKHKrarRncFF1oELPdpTihDPxsC+QzBMxKKtyZkwbnr53u6B5JZPQfsEvyrj/+1ZVrrjE6xCNhSVla9bHW3AibXTccyruS+zjIJXq2NnF7U+hmLBkp7lawp44FiFk96u3Dh8iWcOH0Cp26fRU+qB9mMuwfNk4gdjW0U07wYiTlGPS/nc7RGXH9oT3RgRmYG3n/zPaxctBrzps1FR0JL2in2BVorHGBNt3hu3RBrk+EhNHwcE00JRSK1irLiIhQFYw2yC/2/fvO/4duL+/Ek8hhRPcOXitrshC+SUJSnQ41hD+dXDljFSg0CSfoZczvm46ONH+HDje9jVusM2055On2jKfGv/FHBkYkUT59dUJtgOhsopH3H9/pUlKIkOLLzTykI7vbdwrcn91sO2K7cIyiRtM8BK8UZJoPgOMMQnGtE8LrtpYlMmxFK44Cih5UVCgWeW0rPH4txxIru0Q2rF67E9vXb8OaqbZgCPYQrjnSFIzGZU21fEZlwVFbnkoura1EnUCpD6xA8vrbTOfVqMRAyZwjdla9HPwzyb6DSg9u5+/j7b/7R0jYqzkTJpLwLZaAcvAUnMhEmk1Ckxz4C1mdak0Abc8D+4r0/w+L2BS4FAXVL7oMLcFP7sqNLFrwmGXQ2mc1XzQm5eSg7k/4zy8WMPrVLqoLBEt0XkQmZurfUh6v3r+EPX/0BF29cxGBxAMVU1QVFaoKVuuBl4/XCR9Dq+qu0xlUf3RohQjOLk4S4ePZ87Ni6A1vXb8YszCMZtiEymNbqt1nC+WKOrpasF3cs4WkJZZjkTZECBRGruu8E994Eb39BfECT8iKhYCclSK4UqeS8sDjf694cPdFPKQh2Lt+JRbHF6Ci1UqBagyQoVK3DG6HzvermahWQZwjhDjmkw1LgIpMcy/XeG9h3ar/lgH1Ms10pCHTfToFmvZIkCWrIIUVf8nVYGQtPsY+7Xv3OtmMjqugBXHqGkPaTeawl8ynJadi4ZCt2rH2HpLLeRlrlgJW85HZEFLfA7R1BST5OYnXlEom4wUadRL9afl3K2G/jpCpiKuMq3Zy/+f3fGJk8KfSQkLVqqCA5FnZKywMbHMuTiTAuvQrLxZdnhDrjaDlgf7rjx1jU6XPApki8JFBWVESi3qJay4rTd7rfSGRCxbHjSpaubRz0nblDPF8+71zyKgm4t9CLExeO4x+/+gecf3gBPfEeDHRwOE/rdg5NwAbn4auXSTgcX+6SBgIVGiDmqg5GsnhYfMTjXcSnx/6EP574Ax5Dd2/njEw0tipaWRPBjXI2Lhj61agYQfrhr/U++GyNRQGx8V8GnGJxBI3pUY7uyf4d1VbMz8zCh1vfxvY1mzB96jS6s+z4ZHDNiI8HjSxsyZA0WtBtkfmqhlTcRE45YHuuWcrGYyeP4X7XAztHXeBsQSsvH7okC1jj9ShdoyYSlcukpZTGuvkrsH35ZqxbtJwu4nSbC9GIp/kLM9lHyQHbCLk53jLxHUfHUILtHnTh9J2T+Pr4lzh95aTlgC0WReLD0WiNTDZEfCPlgFVApPKZrJy1BplyK+s6tv47OfDVOjXrZzri5OhdRy37aqm3wFJJR/B48AnOXDmLg6cOWfDoQE5PQORx1DbPIR8dI0LmKHJEvf3gHo6eOon9Zw/Z0wN0X5nlNrLBdSjCA+p4MaJkhh9MPOzhiOWlgcQWj7OTxNKYl56OHSs24f1Nu7B4+lx6QTHaEFqFISmMQyDNTDqZrLbyoFeSib9r+F7fbUtBePTUEdy8d90iYF1DuM6mDmUDyCRDNyk6d5BFIyyvwaxIdnaZvXr+suZG2qJtWDBtHnau2YoNJJO5JBOOs4iW3fWrvhrRniYHrNwUi84MNjEyoZL2oxfn7p22HLD7z+zFAL+xxEjBdb5KsGtiPUfKASsyWT17rQWtWQ7YYJ5oNIhMNK+U46Zu1coVk6XJ1BGKngapiekuWm7nrl/AgRMHcf7aReQreXtiYImNWQzaZ7wI67SdUxPxmj/ka0Gk8ugBvtq/B1fvXUNfsdcs72KFZCrLTDuErLynJZWRWSGwRoSRN3oJYIXL+ZI9P3dKrAPrF6/HLz/4c8xumcGROINUNI5kOoYMS1Ofm5DAfWmEkYlZHewYVK5CRJaJcsA+qeWAvfX4ppGMdRASj7ZtfqYXDSmaU1DrpObLq16yGlxR/1B2+kQhhTktc/Dx9g/x1uqtmNM+i99zkChUkKDVR8/ZHaehuHMIGlkdgZhusFTYFp4gZAtqpPM5YK8+vow/7fuDEXBvrsee1eSONxb8OZuViYcnN030a0VDsgvngP3Fe7/CstkrScxBDtiQW9cIdT5XgmmD4H0drIPkShLRQJWni5y1NJddOHrpOPad2Icz185ioETLJEmZitB5smhCPgkPxjJWB/fXpld/mbqOIhtvsEhdrpaQJXncenQHv/v6n2w5WiQqndcqlrwAycDt9/Syf6W4YjxQZenwYEZmOnZu2I1PdvwEU2mWJpWjs6hOxI0oiIFSzl7HA3WScA5YWSfKDqYywL87Pbfw9aEv8PWRr2ml3DNzvpwsw+KFhkhQH16WSF1dpW82r8Tr0ORqskTTvZIh8a7FT9/+KXau34X2WLs9gEt3waaqCSMemeFmitcUqLE0h0Y1nwM2F9ejLrpxZ+A2/ve//S84dvUoBsr9qMqFCibDX1XIOQzngF23aB3+OoiAbaGbU8sBq1SY42ljKka482syW8vtLkMb3WjqUI5kMhAdwIELh/DZwS9w8rvT6JHFQN3SQ+Bk5ci60f1TmmMSMYwER/bufZjw9FbFYoWScbqyUQ6SVQxUczh+5QROXzuOu913UCi5lBphqC/YYDnKeRsxsmTs4K+eEqijzGqfgQ+2v4fdG3ZhdhvdnELSkiTbJBm7VITK7TrH2PArC2F4UqnwOLef3MLBM/vt/pxureZEB210qcTKqGrdVK1H09SW7EJ/E4XaSCcXzhd9ZvFKpEuwJWGWcqlEF6ZKq4O0ay5PAivnr8A2WiWr5nCkpaWi5FciE93Ho5UKWSeWuoEHi7KY/HhQfz/NaNA2RU2zav6Bcrn25Cr+5x//hz3wXQmlNQelC6zFD+l4LHb84JrdBCPPNcn65qwryjPQlUqugum0dHdtfBs/2fEJ5nYstOfmKALW5ol4rXL8zfkP6qHi28Shrk9et1Q1+9m2V0zXoM2bPKl24eCFo/jq2DeWsMwSuyckTVrGVcrTLBTKh/rk5w9VdCe9inTd9F2iC2Cfa3KlRWNkFOhRLEJCidicjtxa3Rpy5uYZ03H6rbUVUNNfnVftpmt+inYZmVCGIXzQpzvJRCIRS2DVwhUcQVZhTifNdj2lno1NydnvEq7yl9paTkjQo0FWzxAzj0U3V91+chOnzumu4ZN4oHuYojkbWWx+RcW2ezlyCMtfiiNCSVBhUjSPFS2puidJKssWvYFt67Zh5aKVmJ6Zioy7+85WaIaOoK4ovkRRsApulLVX6wxNoHPKz88n3ATsmVunbAL2JEc+IxPKSFBn9DlgvaLXMfny826aJxLFcfgcsD6h9IpZq5vmgBVBuk42OqRPNilOM8MiytVZFXxG4tVy+gO60IevnMVXJ/bg8v2r9uQIxTFpMjyaitlkLncz6fgB5FlhAxKLvfKzlrAVVyQr+zrPfffBLbMyo/w+SiIx4ntGOEkNQ/iAeu8/h9+/HOihlgunz7X5E7k57OGsvywCTZSRGPi/dQaW8VopQo18KMwSRwelIFD064mzx3H7ge4aVlY6kYluXaeFIjIxwb94eZgy8LVWRmhw1SFBk1av6WgSi+YuxK4tu7B22SrMatUELN2fuJJKKyBQJnTdjNYCr4rkpoAsBUaNRMrhZ8bIMslW+3Hu7ml8cfwzSyrdF+m2+acaocgakksZdMw6XrzsGuHnTDzCOWA3rdxqZKKE0iPmgGXRYBNqDR1mGETEqrNC9V1OXTfI6R6wXro1Z25cwNen9uPU7YvoN8d6gANWHgq6jWTidBMlrrHnTEaCt0oETyZye1zgoEjFrcQ9HnyAu49v4XH3I8qiaitcmtiXRam/p0W0zta+8IAmdApqiOKG3o+g0JMD+oCDbNQi1Z/1ZbcOrkz/u3fhThDINIAUWvMF9WLC1iir2wso4GyEpmiuB/tPHcLB04dx/ckN+ro0RW1k8sfgPkMPPD5IbuMoXhlUvDKEi8xRr2yKO1DRD+UC6zNAgs0lMWfKAvz4nZ/izXU7MC0z02JMUiVqa4HEQc3SPk5xFHHplyUdwdTOaZ8VT8FSomNUjnF7d17dm6NwepnN3/Vcxx8Of4YDZw5Tdr3sPS4OQvElRbaAViqkyA6sY6itnhtN5NcI6YMVndOWax0hxEmsaVpxnYkplgP2z9/7BZbNXIFWtBgZlHMF6w/uWt1+OoYsN3vAPo9pstIWJjNXSemV6SC3lyUrq0YDknRsMJLDyctnsPfINzh37ax8eMSSCh7k9SVIPkkNjEEdQnUKuzWjwV1H8GEE6NrkvmlgqcbjuNf1GFduXcNAOcczOyIxLqBeaPCoc8PYpdbMoyOooF6bNNhkQ6kEE8k0G0ABUbweEoJuBVCjeFiDBgjL1zeMd3NkfitXbj5RQo4KcKfvPr44thdfHP4G17pvoQ859EezyNKvVSd0yhIW2zhF+AwwZQ0uXu99UUdX06mz1hqcVlqs1IL22CysW7oN72//CTYs22pxFC2VNlul0P0y1QIVya7fEZc/tuoh0dhxafBpydPcIqtf4LIEwWtaWsxV8ugu9lg4/e8O/gln752nrLKosFMMsg+W2CGr3E9EkufxXIyLzjO5sM7DIlfOxX9QanxtTSVJJrRMkMEaksi//+lfYX7rArSW0wqHRsniZaTr2sfdwyQSMeuN1oZNn9nvDtY2fJVsLahNv/Gk9KRQTlWRTZbQUxnAnlMH8bs9v8eFm5fM2h0gActttsRV5Yo9wsUim3WtdjxXBNUlrNdPC+1rLi2v3dxZ1l9t3J0dsBxHOVrmGiicGy+L9enPN0IT62zuoCMSiP99smGdgYXKbR2L1yG/Tw3qJvpU3CSWTVsFPrsmTTWZVvtsv1NNuD/tD9JFEdd7b2L/mYM4yKKn+isCVqOKImDlcwqOTDypOPHZCB6UiYGXrSvOZ/fnY51ZWYUm5POKyo0imUi4OYDkNGxYugXb1+7GygVrkIm0UfFT7AgJKpJWc0gI3KMGHte7T0ZULCIAT1g24irmwohE7/UdN6ZbpdsPrty9iN988Rucvn4Kjwu9lBPHt4CERCaKhNUxRCS2BGr1CaDz+jLRaDi2OqQ6hs8Bq8nnaqGI9mQLdq7bjp/t/inmZea5e5lIyjZhbaSgnXUMScRZJnq1TqbjsUh+jpDrcATA7ei26AbSwUq/rQ4ePHsIn377Oa4/umVRqhzCKCPFf1BSlJN0Mgydp7Ho2L6MF36iVnNemslS8VO6ugUlTxLTvUOav6Ht7wLpWEHJS4OVD0cYD0xm44NrHIfw+5eAUGcWRBYiE39d9rZJ1fwqiZ9c013DFrTGznGj94alINCNWPefPLBJKj+CR2i6P00DvkjoOqIlKgeLywGbtmXh1kqLRcC+tWwj1ixcipltU20bwXfoAnuEfGeZtb6zCaqnPjmT3RWNtC5gTRO83EBWBmU2GOlHd/kJzt+h2X7qG5y5cgrdAxxl5X8SjVHUppAvE6yn5j0ac8C2RzuxhZbcTpHvnNWUY6vVdUQEOidqkTwtApZWXDjOJEwHGuWVeFu5Xu73P8L5axfw7bGDlpO5RDdKMtfTAmKJVI1MbEI0hDCROJ1+djQ7htrGcq3k8xb+byttIkheu8fT6v3Q1m8KUzX31pSwfrJXGc0aQKOJOpb5tSwKqfcRsEfPHsaxM8csZ25RUYqhuoatkcmG75A+AlbXotUDLQm3xentV92zht+YscAiYNfOX4rZLVNdfIn0g4qquoQjYG05MtyuTaDzNM8B248Ld09j3+mvgxywvbRK3DOMxnVLhuRqsn3xkMw0H9A8B+wGvL3xPcsB21JsDVZzNLk/OmSB1SJgRbLBaG6uZ20kF2WXkaUV4sjkHPXrGC58d8HpX5wWJkVlrnuCMuZ1hcmkmbZZX/eHfwY09gfvKus5TCKUbH5AdswQvX8WjEMDxrHJpMJfjxf70Otzghv6nTPnZZrKxBeRaJKMrBwdtIdw7T91wB7CdevRDbNYNJr5CFiv/M0I6mndHN9U4dIUwXl97IYy0QmeTGw5sshzZ6tIFBKY1z4XP3rrQ7y5egtmt8+AImNpfFnUcNzs8eB4rJONPnrPr13xV8F6iDh9CaC34Ryw97NBDtjLJ+yBZZEU1TAmC5EbB9ddK5MMm2QOikdtaZgV8TlgF3TOx093/xmWz6VlgjZENMkjeY7QlmbBqQT65tw6uYLus4esEg1U+VgZuUQJvZU+i/PYc2wPjl44wVOQkMuDlrJBCqUkSqab2jdUfBt4EnkeIglDOuyL4K3KMq0Un8xpCKx+Qr2OY2GcWwabNQjwVYVrAOcDe+Gp4TQyyz3iOI0iLZMHAw9w4PS39lS/21237a5MizMh4Tim5n72f4CagCcHvGRUy0X2TXYSkorqYlM5eY6JA/R+83FaJm/gnY1vY8vKbWiLtCFV0p07CSSrclckA+f/h1XWkYgvzeE6kawZkokiOkkmClr7L//9P+P4d8fQX+ylFAvB0w94rQ3+/8uC5YAta0LVoVqqIEW3UDlgE5WU5cz9q5/9OyyasgRtFUXAKvo1iTjJ1wK6RoTTfTdJXS9yDVUk04gslnjVVgV7q/3YS93ac2Ifrjy85hJudSRRTbE1SMAFDhZ5Xmee1ycL52UhGtPNtqx5fGzrbDwYoYfw62Hk0fD+pZGL7wQjdQh3TUYqQwjAdSTdzKcp2FvdN/Dt8T34bN+nthYva8UHrSkK1vVeuhman7FJXha+91bJ01gmo8HXwgqvT8WPInYJMkR53mKJnYTKZ5Gt5ThaYxlsWLoe72x9Bxtpvmt1QnE5Sf1eSVgUrE0i6hgUhk1WKwI2eD+WBWHWnFvSsHmAS3fP4/ff/BNu99+yz8Wocua6Y1TlWxEilWZlMqF8HsqVKjjrJIpStohpmenYteFt/GTnTzF/ymKzTJJFFwEbp+sRY2m8bluaZ9Ex6uD7YKJaROL1IMZOWaRu9dFquzPwEIcuHMP+M4dIwjcwIHklyhikdaKH3SpMgT4Oj+GPS5IxE8+XkRHWjWblaaF6ilSi43FXx4GJOcpLgEbQMKxxWYxIagg3kHVZljJud9+0+ZKjZ4/iDi0TJUcSmbibtkgotGTc0tmLg3c5RoNv7DiVOk3zOCmlZ/2UPWzVG2ssM92qRSsxp302khyFpaAyx8Mw7mCRDotgXNBf/fuRoDkAzS/1R/tw4d55fBNEwOYruqXeWQB2f4smbdmpdK2vAjyZCJJdOpZCR2Iq3ly13XLAas6kMzbFLBPpi3LEqIMbRwTEOAzq+EExGbK+FgGrV7NrZPVWSbQFPMr14PSdq/iGLvTl+9csAraklULFoShzoGSnyVyRlXQgOMUPBUO173uCusnuOkXdYgiqE4yc/jdBBMFmxb3cXSMTrejcenALFY7ALtMaG9vmTZy7447w4uGJZTSCUT0UVq+f1UGWzF+MXVt3Ys0b6zCzdSbS/MvEMxxlYmaSu+VeEayTiGVZY3Eh9Y5UxhrNZKn1VnpsAnbvqa9w+OJBdJceBRGwbn+N7ioi81cJft5EpnxH61SsX74Zb294z1ZzOjDFsvvZg7Dk4rBjyyLVQOL0KgRPJCGoriISFwGrInWr2qpg12APzt26igMXT+DUrYvm9mSjOQuW1GS43CHJToNhuK3HaIrvFUbUBM0AW2Ht7TVU7aruS3hJ8JOK3tyug6OkJxU2uhYn1IiaHJNPO8DR9mGuC3/a/wX2HP8W1x7fRjaeN+tEjaz9XCOPKBKDt15GKk8DN08RKvxO1yCf2hdFtVay/L6flkoubYmHf/zuT7Bt1VZ7aFlHrNUedZEo02xVB/EYIh9XJ51D8PMANslrGdq0H+vPdvYpCBQBey97H3+/95+wj6NtT2kQ8UyKnU8RsBGzhLRSUeTRvK4Mh67Bl4mHEabaXHNMVbcsXCrT0iyTPHlxioBdMWMpfvXeL7F8lh7CpaVhuUB5un8uWkZBbrIvZHkY4bKY5RYQidpDS8NuQtxbPxqE3OR+nrLSvUy9/NPzvvcc+xLHLh2kxZtDPMXtRVgVtiQJJxZ37pXFS4XkombxMlTRCsxIEaph3WhWmm3jjxcuLwpOamMiEC6lawlYiBd5UWNBZKIVCzWIlMq5O/qF1xn4t1L2UrIKZexXCNHt3gf47Mg37BwHcTf7GIOJPLLJAioZhT2zkTXSSmGkSIEyTQacwvqi6VPd5C75so4k7mqJlkkhjbboTKxZvBnvbf0YG97Ygo44R1rdNVwk0WjVNscOUpYw6orqCURw3ce5RDqHiiJfvZWhJ92pbUWu/ZV+3Oq/QzL5Lc4/uIRekrFuKMuyo1o2SR5Dn/Madbm9ZP3MeEZZq71lbSnyUxaYOmy1nDcZ0Jkh0XZg/dy1llD6jc5F6KRtkuKF2u8JyjQq06IeSi8ykRsji8PuOyLUJvUu4kjF3GqeNEYPs5IuIpsYRFflMfae3Ys/Hvgdzt44Tn17gkiiaAm4JFM3B+d11F27v/5QE00Iwm0+GkQ8gp8v8i7r886lNNm7LsChjT3S+8kGLQF2GitmEYSuNyhSeCm54hCVA/Zq73WXA/b0AYuAzceKZrkUqD12dydHEd3Eb3lRrTjFqZFLuEwgTGEbjq8HM5VKHFlYtQh97UgpiqmWA3aLBWGtXbQObZF2JCtJS01gSaFZvLI2nxepk4gRi5QmIF4b4XneRCppypiv5vDdo6v4zRd/h1PXTuFxsYfkQdLgPnKlFFk5Ug7YcaGhvg569WX8UF3DOWC1d4oWQEeyA9vXbLNcOYunLGqaA1aWiW6GsxrxOLJcjItZN/2uOQ4fca2ieRJtZ5ZNguRKC07LwrcG7uLQxcPYc+Ib3CUJF+ODbA4tDffSDaL1w2NYVvrAetRxwsWTi2+/Z8Mzyk96EAK13l7DJKO+odfx4umu4BWGOoOt4tBy8TlgC8jiWu9VHDl1BMfOHMWDxz4CVprzakFNFqV7U86VkKHF0BZpoYHegqnxTqxbsNLSXK5fshKzO6Y7S4Sd0XfochCwVptb8q/B/+6dg80B1CJg2Z20v0z3YGn40v0LdsfwmSun0d3fjYqYrQn8CPeywJa2eKFwDtiWaBvJdzp2rNmJdza+j7Vz1qO12u6efDAGTE7cTJvakxSsDznpuXuAaDdafJKCIfO04gbxsO8RLl6/jH1H9uPG3ZuWNV4uRkkkx4HBw3fOZjBSbCjfZ3x/CSVECr7xRRQiFOsgkSzuKAL21FGSyWHcCHLAOjKRgtT3n2x4f9gXIxP2bI2SyFcsBWGmmkRHtB3L576B3evewobFKzGnbRrSSuCg7XQclnAErFlsITJpBpGIyETmvWAETJ9Jz8m5+PA89pz5miPuQfQpAtbcylcPJjfWs1kO2PVLNuDdTR9g3dwNaA+eZV17Ut4okDh8BKzcOQ1QIge7+57vjFC0Cgi6yuVBFwF746JFwJ777jwGi1lad0WSEslDJgyvySe9+ucEp1WjYhybvAR4E9FIhH9utNKDtjSh2I+uXJc9N0eBa8oBax1HE7DcRts7yMytwiV51ne+M6rOL6De6uxBsZWIYHLbk4lKazQDPWs4VUxjTqseDfIOzfctmNM+Eym6P9FC1SJgR8oB64pI1h27XhdXPInZSBrIqz/aS3P9Fj799o84SJn1ZrvR0p7m5uMZLnWekcrEQ9fuXnV8yox/GcqslgP2/V9h+ZxVlngLhQitE7mytssw1K9U7px7b+6gXu08/EbyJJEUaZVoAlYpG3qqPTh3k+R7bA+OnD9iE/sWehApI5FOIdOSQaHAgc2oqF5oSlkJWyPe3WlWXjaepQc036fm23oEn+17/1vzXScDJuzaNTqVUP5XZQlTudNz16Jfvzn6Fe733jMXqKIcsCmt/Wt7Bz9/8HLgrkNKpUz98v0VLu9ywKZdDtjdP8XOtTvRQbcnTTclVU1ZFKz5+/LPrVONVJpDvxQrBZOX3JxckqNt9i5+89nf4fSNk5YFXcm3+wb63Q6vKJTbdUprpz2vWg8tU7Lyv/rZX2Nh52LLARsv0kpQ/hYzssbRxtQDZ+k6hHPA6o5g3TXcH+1HD3qx5/R+fH3cZVpTwFpiSpr6pQlvIJsfxGDWRQ978nuVESauUPVr3z+tCzaypIeQhzDS+8mGmzpylXcdx4LRNJIkKrj75DYOnT6Iw2cO2X06+WgOJZr0ivpUvIFtZ5O5rhYuhqKxPqN3ymHQMYLi9xxSeE4VP/JY4UioSTE9vzZS0sQgCYWWiaJgV85fiW2rt1uYuIuZiNsErG3D4iYWVdySp/Pv9RqU0cDfRRjxFj11sYCLd89ZDtgzN09ZEJbkpD978JQ6RHBMlxrCmfC1aFur3URAx/FlZOh6ZJn4OBOtTCkCVom3f7z9J8NywEpGuky7VC8bFrV/nTzqbe/jaWwfe8PtRCaVARQSBTwud+HgxUPYf2Y/rj2+RjdxEKVUGblqjhaw3G0W7qgVuvpqi2up8HkmHl52Ti7jhcmFkD7693rV52fFi6zli0PQ8IKUw/xdksqdh7dx4vwJnDx3DPeUyVvLnbJOqBguaM117JcN3zGT8WiQAzZG3dXTluNYtnAZtq3bipWLVmBaegpaoi4HbEkRnTUldQ2vInLR0qlyluq9/34kSOkr6TIGY/04e/s0Pjv8KU5cPoaefLfJULC7jLXqFfj/Q+cBJl9+jkgcmQhaNUlGUmiLt9tDuLav3oWlM1egPdLxXDlgfcpGrebo+c2yAEvVPK2PisUwHf3uLL48tg+XH1w1S86CImkIFWjJSA9Jw+5YHCgmKpT9+4bvba3NXSGMLKpFPOx+bMmklQP2+oNrRiYlKpMUypSKDe7Li4abwxhamkEjgSJg5VenYiksnrcIu7bsxLplGzCrbYaeMmQRsFp6tOVeleBYziSXZaMgLhdHIWtlrNFFc0kljrbn75+xHLAHzu5Dd+UJv1POXEcolgOWlpBmKF4FMgkjnAN23dJN2LnubSyftRKt5Xaz5uJ0GUUOktN4c8DaOdgGWmWLlSKWlS1OgpZ8tW9PoQ+nr5/HV6cOWA7YnkqfBbMp+ZZ0TMGAuo/nNb6nhGLxEBzVlV0sS3P/SaGbHeMg9p8/gO+6lAO2REJx7s1YUAd8HhNPsAm9oEiRw5/tuyj/Y9F7P0GnCFg9OqgywI6bS2GucsC++xO8tWEHprVMNRcnVU5y+KvaxKP2DcM+s+PY8Vns1bqAi6FRBKzSNaqJrXNRHppUzEazuDl4B/904A84dP4o+hV8xQ5qka8kkZLJ1uWBdcGLJGGtdFhxlsJzQW3SWBrg20S1ce6cIwQ5u+EcsL945+dYOsNFwIoAlQNW27ni9tMxzIoTAfOYJittYTJz6i+LRhZiuaL7uUgQ0aLde5OLFenU5HHq8mnsPboX52ihRNIVpFv1gHEeucpty8GzrPk5bJXUrUR/PSrjRDMZjVZeEEazdEfC945QpFa2xh9PgF0Bt/ruY++ZA/j0xFe41n8LffGc5e9UOkIpjTpXGP6BXi8CvmP797XCz/qedpL514qArZBQovT122OzsX7ZVnyw48d83YzOeCfao61oiWTszmFNwDrCc/URdEzrbnyVPLTMWcsBK6Wu6v4aV0QqsnBk/ttDy7L38Osvf8OR9qzly42kSTyZVhesRpdLD4HK8YQKqRepPDeBPCVUVx8B6+I/XA7YFEkuWlCMTgob5q2xHLAL2xehvdpq807aL5FQvIn2GWcOWBbv6kCEaWRSYP2L6IvmLAfs/vNH8Pnhr+yxneBAVeIokMvS+lWOGrNqRFSaIHcd0JfvC5xuOYR7xrPW4cX1rhcIjag5KsCt7ns4dPYo/njwC/q4jzEQy5kZaqaoHGFaBRrdw38W+UcF8sUYfqTSDCKoxmKK6gu/Cjq+h25ZUC6bWg7YZJIdJIPO5HRseGMztq/bZTlgWyJt7ASafHUTsFFaKTYfwGLzLmx9JeM2N8RbPexoyvylZBx6jWhBmaN4jPtoxJR1pOfaKhjr8r1L+Psv/h4nvzuBR/ke5JWFjccqs2OA+4iMVCxLPS0aXx/DWHJ5HjQcW8osRZfVoGsgVdr9N9Nbp2D3hp0WAbuoYzHaKi3IkJRFKLbsHsjI7eMsE73aVzoei6zWxvbR9zE1I1ksF3E5YB/0P8Chc4fx5YGvjUyypUESNi28QlZUa8e0ov1Z/PtwmTQMkZ8vo8NkEsDLW9CrPntYvUKfx8Kk1vt54a0N+fv3B+7i9JXTNmfyuPuhRcAOWRIOtn3ZsMaSNcL+2RZN0TjP0JVJsDOksHb+MmxfsQFrFixzOWAVAcsm8RGwJSq4kmPXA9YczDKxojq6IuIJ54BV9YscqXOxQXRXHuMcLZK9p77Gmaun0JvrN8tDxKTsZqVm2bqIybZODKynzfPQMtF7lwO21SJgt6/ZZSkI9NycKdFOI94RYe1vdGKybJoDNqie5CAZm5uDLB5nu3Dx5iXsP34Itx7ctiTOkreSbpvLaq6faw8fvq5jhcs/V9Sl+4pDBKFOoyXNRwMPceLycRw9d9BywHJwdnZygFeBTKzD8pJ0LRo9tXrQGtPj3JNoYwdZMmMhdq/bhrUkE5cD1k2E2r5UXkW+ym3Tq9wVN+rUSaUROk/zHLB9OH/3DPad+cpywConrN3cFmTo0nWq2B2xQaDdEIjIQmT2IiFysyBFpZKI1XPAtiWnYOPSTfYQrtVz16ADnZRielztLDcwnAPWpOhEFILcSZdU2sjk1gUcP38CV25edpOtSRITLUHdZR2PNSGxJtfxz5VYvjeEIsgCKZTzOHvxNL468AUufnfBArRULHaCv4+2ilNzc8aJuiVQL83R/JgR7iAyEVHYoxnydHeKcczvmIePt3+IN1dtwew2nwM24iJgzR43tef5XGCV3utrV4L6SYlDxUhB5MCP4RywdweCHLAXj2OgnIWeRBrV0wWp7eYeSGYW/RWW28gynEiMlgM2hritcvkcsIqAXTZ7pT3RL07rrpSlVRWQZyNq7WXtEswt8XgmHH72stJCr2JyfA5YxZWcu30O+47vo7xO2grOoHRLOmW2v3MflbipqknZ4DzeLQiXf66QhL8X8Cs2Io7uwS4LWEOGnaKFepKgUvqOFsLkWiqyoJwy+dFJRUmiW2Npu9mvpdqC1fPXkEw+wtZVb6E91m7fKdYkrbymJB5NJqqYVRAUV3dfmkOKLRlU41UUkwqn78HNnuv4z//tP+HIxUPoznfbPSj9g/2W5VyTimadDLNKRj7Hi0BjDlhNdLYm2mmBJJGhJbdm/mr865/8Fea3L0RLmY1NUi7lNC+iyerR2jcgj+DVF9uHwuob6EWumCPxikyUL2cQB84ftrvSFQGrFA5ZWkqVhJunslUvylhwx3yNZnilJaOO5Iv/bP41R1SLL1Dka1DsyYGBdRJWtiETsBOA8DU1jlCySNQh1FEFWSfVAkfBvoKlG9i8kmb75rdJKqvQVs0gXUoFEbBuElZemzuW6hEqqr/KaNCOSZJJVM8aHsB3Dy7ht1/+A273uRywmpMwwtHIHMjJX6dHaHph0tCYA9by7RQrFk6/deU2fLjtIyyasQzKAZsqtbg5Itt6OHx7UBj22YHv6U66lS/nNmvOJJVKmTvTVx7A7f4HOHDhmIUeXH9y01bDismyWSdKbK57dNyjWnkYTXxr8pc2VK1ool9F3wfF/+p1Q2UyoJpbCZ23WRH860RipLZ55RDuyOGoV5XJCFjzLsdQND+nazRaGlqupFK1JjJYvmg5Nq/ejOULlmFaappNNkr8ivtwzcBiCs+OzaIVinoJliV18BEgOcjN6Y/0WA7YPae+sXmmHMnEBXZp1TPpOmSIXC3nSlBeBhpzwGbiaaSrbdi2wuWAXTl3DVqC7PR+kFAnV1GdR4S2ZXHyo9tZdnNZKmqfWDJh81MPsz04dfsKvqKbc56vXbkn/J4DFq1erXSV5HbKnX7B+vVDwcvRoueAJw8fAaviiWUyUJ/LcCVMKn50UvSrf+xFe7rdImB3btmB5fNXGJlkIikoM71GzQoPYr4+ld8RkWsUC//mofVqK+Aso0EWSF+lB5fun7OHcB26sB+9lS4jGc0B6JgubYEbqV8l+HkT5YBtb5mC1YvXGZmsnr/OcsDG80kjQ0uHSZnLOnURsONoc+6gVTbNUWliXFHFJkv+15vvx4XbV/Ht+eM4ceM8nhS7zDqRq2PpIHR/Ic8xOZr1w8D3jlA8zP9vKEpD4ItN2LE02y5cRodUqV4ccZmOWqlHwGoMc5PCGkXT0Va6M4rfbMeCGYuxfdNObFm5FTNbZqAt2oJMlaa7LTlw/2Fw5KJihMVXP7no0hwkeQ6N6m5yMZwD9s7gPfz+0KfYe/IAHmd7kWrNsNO5HLCyhCQSRRcPh69jGM2+c3Cxvq7U3LGxCmFkKevI3EK3r+ZPLAdsKW4RsMumv4F/8eGvsGTaUro4rCuJQMvp5Yo9Gp7HkDRo+fFYIgdZILLePPRWcxx2LlVYoJWhgcce8KaQeZa+SB/O37mAfSe/wbFLByjDLK2WmE3WFotF6lDRPV6CRe7MULj2qJWgvZ4JjXJSmSRQY+1Vemb6zM96Vcv6/uFberx4Rim8PITnRBrLZEDCDxc1gEWU8pUXYYRSHACmpOZwpN2M3Rs+sPtNNAeQJhmkikkki1r1cea49vGwuBJTTK0gqNvESQD+vTqJloVd0aSltrMIWLo1N/tu4R/3/RNO3z2H3gh9f1pJfYUC9yOpcn8RiRIxaXvFZUw21MHN9WDRe5cDllaccrwqmVTc5YD91x/9FRa0zMfUSLvJi/YUUokYYqyP7nA2MqHI/P1LemW1DE7tfeV0HuoFiUtEH0mxs6SLKKQKGIz344tjn+OrY5/i6oPztOK6SLzuweWxOM8ZozWkttBRgr5kBBWUHwLkigth8pAYvbXYdKwbB16Cao0fUohnLS8CRhohWCNUKiiw48rV0URfKprGtOR0rGLn2LFmFzYu24Q23QVL+zlRDnKZiBTUpHKRTEGDHmHgtfP63TjsVinckqcrFrTGUmRnjCUSZvpfun8Jv/70f+LEtZOWM1f3MSn43AKxqrJQmueA9S5a0xJMNE4Y1KntpcriJofVOVPRhOWAfWvVm/jJWz/Dos6FdHM6kCm12ES2zXlwT0WyWj5XvrdleJvEdoElOq7rAPXKSa56XIjVhYyTrQ6ir9pvtx4cvHAIhy8cxpWHV9BXekLXJodKTNn8dCzXLmofdTr3PpBJ8F5Fd2L74n8bb5loNCO7Zuf1164yHoS1crwIqddrPA2ksHZ3KhW+I5YxV0aZ1lorKayYvQQ7V27GukUrMKNlShBzR4LgKGsBUprwi7NR1Wkdo9QgpR4SAWvBanELWouQSPS7SETJkTQBe+bWKXx59HOcvnwSPX3dr1bUawhyJTTP43LAkiKrQQ7YxHRsX73DcsCunrcGLVV3o1+4I/iOG4aTA1/Js7qXydVOXUDEVWIDkVKjdF10bw7/BqpZPOp/jHNXL2Lv4W9x495NDOYHnTmvyEgWfw5/XiHcWcMd9jWa4zWhjAPeJPTFyIRWhBQ/WYmhNd6KDK0HZVqb1zkH21duwaYlqywHbIKE45MkqxPQ26Efr+VdNyczFnSeGM8R085EWRGwQQ7Y03dOWgqCg+e/tQlZBWn5a3yVYMFrrKvlgOU1ikiTeqJfuhPr33A5YNfMX4u2SifihRQJWO6cNhtOJB4iE8nSImBFLNzM3aIQBOnxXCqWVJpk8mDgMc5eO4/Dpw/j7FW6hdk+Xo9CDmjxaSmYJpAnkdd4drwmlNGgDh8UiyatuOVX18ldsTtds1XEsnHMaZmLD7a9h53rttEymWY5YEU48vlVFJ2qjmXLkOxYevWrVrbsLVetoTiCYAfiebWEqQnYgWgv7vTdxB/3/h5HzhzCYHFA9/ZxGx6PZr73g5tDvzUWIlRXKxMEHwXrY0wku0wkg6nJqVg89Q384r1fYens5dBzhtnvkYy6J/o169xyOX0xAtH74DfXRpQri27iK0WDHLB0ZfQEvzM3z+Gbo9/gyPmjyOn3hF96dsSlrmDHY5HVYpZLcJJa/Ira5AcIX+/G98+CH6aEXiBknSQ4oikHrCZWRSa0p7F42iK8v5VksnaHRcCmSSRu3iQgHzaSVilqI6i9D15HgawY3eEqdyEXz6Kn2oVbvTfwB5LJ5QcX7WY2RQqzOwV7PAMmkEBGgibNE7oLmgTcSldn3cIN+Nef/BUWdCgFQadlWlOe2KeZ/9KMildhi/uhq6MUBCp66sFALIveaD8OXDhUi4AdoLxKKWchahFIBG8EEszryB37IWIkd00E4hHWghrBuJdxY+TWG4ey/xDgazmksO5uCdg1hJWITOIoyqWSzZ0kI0kjC2VcX790A97evBsbFm+0pWJZLQmtUNANskIxu+NQ6WU9iFRq8vVlZMTSWqXRExAHcfXRZfzjF3+PU9dPoCffVYvDqR8jeG/fOUx4Dlh1el9Ggbk6skxU7yhJlXKZkp6GbavfxI/e/BiLpi82eSkHrOZUNFloK3bcVw/hsjqw+PbwcxtWuLW21HtZGOaG6j/KdkgO2AtH8O2ZA7j2+DsMkmTKlgOWrpfiZLkt6ceePeQJZSgCWYaKnaKhPA9qRw7Vc1SEZT9aCUGifBY8i6Uy9MyjIlxRL4Z/HvBKnIzHkU7R6ohptYWWCqlixeLl2L1lJzas3IC5nbPQEktTzZMc/WRC18VrysdXnzzI3CAbVUdXShFGQROwUQWtuYdwHb98HI8HHyGvfKfstOqolkxJ5xgW9Tr57eRv+POul2I50tG05YDV0w81Z6IHl+shXMnKs+SA1cqP5CiXU0vRaguSJus6NAfsaXx5fA8u3r1kCbhLcdoiKbfU7jqvO5rHS5t7GrO+z4fGer5INCeUIRXU++Czff9iK/8yICZuLM2gDpuMu5E0GYlj4ZwFeGvDNqxbvsYmYzPRFFK6nZcdpFIN8sAGpKJ9VUz5LYYiGO2s4/kO6EoYWtEZqPTXH8J1YT/6It006XM2ySlY2gJ2ruHNOflt5edMPEQmioBtTbdh7Rvr8M6m97B23np0RqYiWXIZ/SUXm7QlmZQtqXjILVRp6HB2DlqJtspWrppMh+SAzffh9LXz+Oq0csCeR1epx1Jf6hG0ioCNpGLcQas6zdX/h4jJIpWoV+J60cSelKKxIUd6//2DhOuLOrwFjoW/U/wFi977CToL+y7GUOnX0kIMczoX4OO3P8HmVW+iIzEVsSJdm3wcpSwVljtq3xpEMFJevVLt7ZhkLc176KYzba/OYTcXEvLqldc0H8/aQ8tuDt7C7w780R70/iTXh1Rbi0XAKv1QmdaIVjm4ewC1jS9NoDZtLM8JRb96wgwfVx02rRQEQQ7Yv/zoL7Fk6hISKjuzyID7eb2zmYxqkZddNsstqhR3LPbH33072MPH7TT8rEd98DyaX7K7hlkG6cqcunIWe49+a0/0i9AiSaRdDhNF5cr1U7yQLM4wntd1GQnhSfdmZSLkL7XxZTSEt1MZaeBshjo/jF7GSdG+0np9fgG8KpBAfSN4y8SKjXXsqDKiA7OdQxoihTRH1U6sXrQJH+36Obau3IFpqenIVFrswVKxgpuA9SZ8+NiCIy7dEBi3pD+WEDogGpcDlq/BTqQT9FZ6cHvgLv7HF3+H4zdOoavYazlfe3PK+BrnNeo4QIEcp2VUlcmGux1AN9/p+vWNLC/lc6UVpyV1/m2Ytw7/yy//F8xvnYe2ahtlFUO5SGuknGeH0nySUiqWjEhkucVpdcSUq9XrGzudiMP4SudUZjsNfLRGbG6JRNIXLaCnksX+c8fw+aFvcPXeDTMHS8WCkRD3sklf3RdVzOUdKfG9L5OB8DyJL17nfigYQQU9cfjSDKP99v2C6ZNIIChSQMsBy44rEWlE0xxAutpKEnkLuza+i2XzV3LsbaXOpljcXbzhO3n9CKhuoWOY+8Pi51ZUZB3pXIp8lQVkLM9hPpqIIEeX5sq9C/jNF/8TZ26eodnei2KCozL3KVHsin6lP2HHcGTi2sPP99iDuYJio6AvoyEkg1FLA6y72mn0Hy0Mnb9URWeyHTvXbccnO36KmYlZls+kRW4OyUduivYxHRKh8NV/p7ur1Sjq6OKC2pyKvVKi+o0/SlYKWhusDOJB3yMcOncUXx7YY2SSLeUoqyKyRfcUP5GJn/TlKOHOw+sMF9dm7hxWwnJrLGOgZoE8D8Yhewd974rk5WQ2enlRGOkKmyAknHEI9PsKyVrmOAc9tMVSaI+1IlNOszOksHHxSuxYuRGr5r2BqewsSgQtWIfmji5lo2+wuoz0zsZbdn4TOfezkd06lrNMFJSl+ZJcbABdlSc4f/uM5YA9+91p9GX77Di1/KU15XfvXyqoC7puuR2qZaKqHLAttNxm2EO4dqzeaY+6SGlZmPVthEg0DHUGyZDGTUiWDs6SIGmycWSd6Ga/HC05lwP2yvAcsNzZLE1aM7Z/SFbeMvFlMqAlcYthohx8Cd+H9jRL5s8LyedFYOwahBk5/P4HgvBkqGTsTfgkXZD2hDKqkUyQwZIZi/D+5t2WA3ZmZgqtEypDSX4//X/KRJN9eRa9KmBqLNiNfrJqgk6mTlmI5tDPvwuWA/ZrywHbX+1FVROJJBNPJI332dS+V4eZxDZS3TXHYSH1PgdsLIHWRCc2Ld9i4fR6CFcqlzGXcDyBYSJnzQn5CFg/d6KANX+HskhFMq/lgL15qZ4DVgGIQQ5YEbgmhMeDySAWTx6eWFTczZKu/BAwdi2+RxX15l64NIdTSq+gujVe8GSiotWHWI6mcj6JufT9f7Ttfby5ajPmtM9CO90fJZUuDua4LXekmW/H47GqwQpF2E92YmaRLE2edZl6y8TIJNaHe4O3LQfsiUsnMFAeRCSpsHBuqOOwmAvjr70GnePFwxOvioefYorSBUsjaTlgF3YuxM/e/jOsmLva4kwieXbwvJt8bgYdombBUT6aW/KrY4KWn5VEW7J0DyyjKxPPweWAvRDkgD3ucsBWG3LAJuiGagKbp/bmfr1DB5vVqzPhcO3vyUSWryakY4iRYJXjJdGQbPvZiMVJ0JWXi/Fdva+kXp+pwq8mNCL5REh6lborTiRSYMMMsgxUsWQ6LZMt72Pr6rfsXp0kh02Z7noIV3u6lb63/HFuK5NfxMJiPn+gSCNBiqbtRCbKAatb6m90X8N//Zv/gmNXjqC32INCld/nB+1YZn0QjR16spXIcsCWRJoOymWipfJIMYJUJUMLbg3++hf/vpYDNlXNoCXVjlbKSvMYo4K65dxCmiema84lkD9pZE2iKEQL6I8U0F1WBOxBi8uxHLDVfmT5veWAJZEoYK2WttGJbtLhycRDFpos0mgpZq5ua7wds6bMplx+OH1qhJroa188Qu+NVBp/fzWhRm0staunvmmiTigWFQHrHliuSUONtltWbsG7W9/H+sXr0cGxVtnp3YQiSYXKHqcc7I+HkE5EqPDmddiQNzKpiBzsWvQ4u2QVWY60l+9dwB/3/s7u0bEcsCQabaNjhAf2oYQyuWQixOMJFpeLxVkntCiyZUzLTMfOjbvx450/xZy2BZa2MUVCiVfcZGhMiYoCt8wXLc/bEr1rDVeMSFTc3JJZErQwFM+Sr5BMKnncGXyEQxdPWASsywHbh2KibNZJLQcs/wRrbR3DzDx3jsbrULFrVNH7oPjfxoKfgA2XMMJuDlnOXN0VC1fi/W0f2MPxEzF3M+TEwtXVlcnD5J5tEuHN29GgeQgpqyJfM6kEXW+qFPtqKpLEyiWrsG39Nqzm66zW6UjH9NByFwEbFpt9EjFRh6zoPXuavjNeGQFSumxk0G70u6gcsCe/wqmrJy1sXIl+RBqJMulNI5pG6QYMtVImD/F4fWLVRcBmLKG0fwiX5kzaLf8LTfnguseVAzaAkXVQJE/Sism4TJnqaZEPs304e+cq9p4+iIt8reWAJTHXc8BqXssd72UjXGfn9iSwYOYibKD7vGb5Wkxtm8b6jW+e5/uA4Zr6A4MnltEIRmsBygOrn9OxFJbMX4zdW3dj9eI1Ria6O9YmTznCVCKK/6DYbMRxpOEJRRnEtOSp92Ey8Z0/TAJydTTheuH+WY603+DIpUPoLj22u4k1B2DH5Dk1mo1nMnMy4R+9oQnPTnaITSu22kO4LJy+1I5EIWWTsBqR1bEVTq/6DicU1Stc2Bbcx+awaGBY6ge+ShZ60sGTwR7LAXvo8mmcuXsFTwo9lq1uWA7YcRDXZGAImbBecerOvBnzsHndVqxZFpCJUoG+Yu37PBhHTb6vlXWKJYWuF2eOOoPY/WmirKJQhQF23mwKc6cswI/f/Qm2r9+OOe2z3bJxlZbJQMG2HQovG/fq1EcTivbGOpR8ZetYFbciZE/2D3LAPsg/wm+//b1FwPYUBxFPp1wELK0gizehuVRkGW6N6EwNnUbK+7wdyR8jOI4nSwsio9Wkc5bKBZs30T00ioBdPmMx/vz9X2LpjKXIVGjFlbjloARK94+FNecxgrSNLDZHZdUJZKZ24XvJSORpdeX5RQyWA9aeVV1AL/pxXg/hOvkNjl85ilIiT3np6DxfSfc0KQcsrRkNDN5NGVKfZuXFQjJKF+k+s7SV0piTnoEPtuy29BYLps6x3yMlyknxO80Qvv5aPcYHrYrVi1bJhpYXhXGyRbjjjHOXVwSNFoqaREaxImAtryk7gCJgWyMzsGbxZvq1P7YHmCsHrOZMouwbkWzFlok1coZh/BKMLhakJiLgR+tGfO+zrfmJOJGKRupcdAA3+m7g7/f+FufvX0FvJG+Rs1n61yWeQ1Gw+pzn4KX4Fh1zsmEWEq/FLWuyfpJVJW/zTCnWryPehvVzV+Nf//jfYF56NjtMi01YJ6NxtGRoKthqlyJg62SiDpTk116OYfmZxVeJGbEURVqJEkopyoqvvZTXYVpwXx3/DKevHUN39jaK1X5aLQVzWWN2M6Ra1ll26niOyFw9JhsauFTnVlq2LYUk2ou0ejsW4mc7foJ31u7AojYOVHqQCmURKSv59uRj+CA1MWiiqv4rvvrGNoz0/lWCUypXePlNWioW48hfZsem2W6xHWzUzkQnNpBMdq17G2sXrUN7tNOWjV0OWOd2sGvZ/k0VlHIKVNgVHtdywPK90jYKkXgEsUQM+WrOnpvzT9/8E07fOI0nxR4Xu0K1GisHrOAnCsczWfhcYKfQGeo5YN1qmPLAdKTasH31Nvx01ydYxI7SGelEa6WF8qKcSDisNVwqAWel2LwSSUSdjCYYf1en438h/dLm+l0RsLI8FLDWW+wn8d7BwXMH8NWxr3D10XeUVT/ircqZO2gd12JyKCtSUWD5OCLxsMsIfR4TuqbxlBDc3IgrNbCC0WyZVm8VC9sXYPeqHdi5chtmxKeipZJEmrLSDY2qs60S/kAwVDI/YEipFAFbzpVomtMEjbZwBEljSqwD6xestByw65esxOyO6dYpJBpvHSgCtsSWdyHgQbH3rmNY5whgbk4w96FJySpPrDmEXGwQ2cSApSDYe+obi4Dt7e9xeTiamLwvagQZL2QW13PAllHLAZucbtGv727+AGtmr0NLlZYcR9uxIF5V5CtFY/cfmcwkQxbRsDF7kANWaQaUA/Zh3yOc/+4svjm0B5dvXEU2P2AP6IolkmYNeoQD/TyB+DJZULub26a2Z0lyMIpXU1g4awm2rt+GTeu3YFrnTMRpwdUIySyrHxZ+eDUi1BnDRYqlUctM7VwFaRKJSKU90oblc9/A7nVv0UJZaTlg0+wcZq0T9D5R4IcCyaSeA7ZOJs3g5wJiZTdzLzIpxvTs3H66N2fw7bk9FmfSVw5ywI7kP79EWPQw6+hywOZZqUiQA3YqSXcD3tvyIdbOWU+nsN0mX1nJYM+RIXLWI0EUAWsh9fzO1VyylO2v4nLAFlHAw+wTnL95EYfPHLEcsAOFAQvHtwhYstPILTD5UJtr0tVNKMuy1UNO0lgwfSF26JlMG7dhwcyFsPhJbSPLOLAw9dD1HxJGrE2d3d0m37dq13PAOhPYmdxRjrJppIpsdHaEOa2z8M6mt7F9zTbMaZ9pWesjeXenrLNSgoldkUm4UBccuQiSDC0R7uOKIzFu5SZgo3kMxPvwMH/f0jYeOLnfcsAmW9gR5QuMCZ2nsRA6f7hMEDzB1ZIjsQO4HLDTsXjaYvzyg7/AstkrkaikUB7k7ySTSIi8hxTKyQrl4y052SM12HVLpi4PSp5WXC6eQy//zt+6gH0n9uHYhWPIk2iS7SnzIguBu2oyt+PVi7cS1N6+TATC8SW+eOh8qphFwZboeLEoneX09HTs3vIudm15G4unLwZ9XZSzRSMcHkB7ugOo/qzHDwWh1g3BKhxG8JnfOybWh+a7vmrQtSZiLgdsnPwSz2tiMIm1C9biJzt/grdWb0N7tB2pUoojC5WhGqONEnMRsFJTU3oFSfni1bc5FC8hD7/IkVa5TPpjvegqP8bf/enXOHvrNPpLfTSSsugb6LfUg8+ECSSQkaCZjrYU3Rlacy2RVqyZv9pywM5tmY90IY1ojnogi48isf49JhypeMjGCOeAlRWXSxbQFx2wCNivj3+DKw+vopxmA7bGLN+JrXix7iKSVwFGJsFrOcvrykq/kpjbMR/vvvkB3lr7FqYmptHwclZLS6LVtlUfEjQ4/dAwjBVqzB5UXO89gdQ3ro8Ckw0b5ayI2YcWXZ8VXZuZlWxoJdWhqalHXuiB2ZYD9o112LVxJ9YvXotWdhaLfuVvGj18BKyLmqxacT6QGt+XkWGufZL9jJ1EWdWUSPrXf/hbnCOZKJxeVotiKmr34vC6a6UGf57wd88BKbAvo8DdKMmOYdbJ0AjYj976CV3C+fbcnGQxbbKSaJrpgbdMGuED3er78DyUbb46iEK8gCeVbhy8eBTfHN+Lmz03bWm9mBDZyNpzS8ma0zJ3wSZjNflLqyAofrI6XKwdWawZgzIa/LWHy2iwAVYurlwdDlSLZi02N2f7up2YkpxmuXI0ua8UF5bmAnHWffR2+D7jB1kzN/NPvz8eRyrBhlbYNzuLJg9XLFmGN9e/iVWLV2GGnjUca+W2cYv7CHdfr3yahbfHXbKT2UPL+VtjBxK8AlfoxujxDZqAFZkoAvbQ2QPoynXZJKe2SVhCZrpXwb5DMUEk8hQwIgnIRKjlgI114s1V27Fj9S4sm7nCbvSL63nDQYdwHdyR+agQ2ZssFajmXE/Lp0vTRtacAtIe5J7g8JUz+JKWycV7VywBd66aJylTZongXh4KTPJ7FVB3ezS4sl6U15L5b2DbhjexjZbJrA660BUSr1YKOWBpG5ObJxN9phb80PC9JJTGEUSlGUQRIhOITKIcPeYuxPYNb2H1khWYnplqS8MuB2zc/PzwsbSvxVCwKIZCyX+UiawZmYShicyBSi+uPL6Iby/sxYFz+23+RA/nktUiaMVECa41dg7FGB3zBcDPmXiEc8CuW7YeO9fstnD6llKbRcDKdNeoLCtR9XFJpYOdR4GRM0uiTEIlQVsELOuru7N7C304c+OCywF76yJ6Kn2WoT4bzaNEFhdJazL2VSETbxELsroUATt/5lxs3bTVVnTmdc5DtJSw+SVZv86a+152tafGiLVs/OFlNmXdzVGH9y5O6DsLdKDS8XsX/1pGhI1ZytLl6YsDWfq1nYvw43d+ji2rd3DknYpINoZYLobioCZvebzaiOOg40oK6m52Dr5qqVKOlUaaODtWlIqikUa/l2S6x3LWEW4O3sEfDn+G/acPoTvfh0RLJrCAAkuIFpRMdwed15cmkOI2lueEOkHN7QgdM5wDVikI/vydP8fSGcvo5mRsyb2UzXMrbRsU7ueJwsVTSEbhLVhJykdzLaq9VnMqdPk0AVugrPQ4Vcnr5JXj2Hv4G1y4fgZIkWl0QCKZTLLEkc/nbZI3DNdBR1TfZ4atH7FeNdLwdeTbuC6tVKWVRlIsihjpQnMwmp7pxO5NO7Br/VuU21y3XV43AeqA+s8Vp1N851+NiV9MPV4WnromNUV8CTBlDRpD72uFn61T852PgK2UqygOsINUpmHdkm14/62fYsOyHeiMT8cUllaa86lqi40e3oQPH9sThQLMlOinqIA4kQGLuxPWFSVK0ra6w7WvOoC72fv4h73/hGPXT+BJqQ8Vdggk01QsPejB5YDNU4AFXmedVCYPIhO5HENzwLKzsCvJYlP4/JqZq/AffvYfML91Ltr0rGHNMUWjaGlJ0Z3kxuwkIghzB1XYgZIs7ngOkpPkp46v8+k3PbQ8liHdZ+gSpgbRW+3DvnP78Mf9f8KluxdQidPFyQ/Y/pFIDFqoU2i6bt60/UPlRcN0IUQGLk9uifXla46vOSDDxpxH1+ZH23bj3S07MbdNK4VxtJVTaKMLxJYn/MSzJxVZZXolyWpA+gGRiTBqbUx3WDyBTEZDNke9YQXr8CFo9NKKiUYywUY2Ba2lZmDj0jexY/27WL14A1qj7Ujaw7jTSLDYJFmVJrxIIji+jUqEJyt1euscFBXHHH4pJVDQmt67ThNVBCwKuHL3In7zxW9w8rsTeJB9gkF+pwhYDmrcjm5VcJ+OVis096Dz+bkXn/+1sYwKEeF4SgMkPh3a30NipylU0JFsx651u/Dz3b/EvIwSSrcjXUzbExA1qa1oVMWPqeh9grLQK6XB87jjWK1MnnW4T5QgWScXGTCX8F7ffRw4ux+f7f8MNx7fsOcP6xGiekSrbcvr1n5GSJSPJlb9PIQrdtCJQ0CS4eO6AcW917XIcJJVkpJlQpdm0fT52LlhG7avexPT0p20VhIklBh/p0tLQdhkMA/o89+KVDRnpPgmt7ROsXE7P1k9DKznsNIU+t6Xl4uXfwXPCSM8muOWAzaasvsn1KBt1RQ2LFqFXau2YN2iFZjdPp2dwo0ZLgK2EuSAdSOGlNjDK5JUzDekMpLZKpD8YSpAhSfWik02OoDu8hOcv6McsN/gzJVT6Bnss1gJPdHOVk1qk54T3QueAayr5j5cDlh2ECSH5IDV7Qer5q5GW6TNJo8FuUJu1Wz4PIbkJKtLN81aLlj72cmTNh3PpxI8tJyvylnyoI/yunYB+44dwL3H923VSyylhEixRMqO0XguKao6uy8vGs7yVbQ0BwBaZ0UOCPmo0leQRKMtWDRnsc2XbF63BTM755A8ZEW57uQsEHsbQmCdUO9ql0+d8tbxDwXPVBvfMV56B2En1SjrVw9aYy1IkzRa6MosmbHQImDXk0zmkkxakUZaYc/ajQ0rIskHhGI5YEUqKiNADS9CGRYBazlgT2Pf6XAO2DLiMtONUGg9BXcaN8UY551I6BrUaS1viCaIlQM2SvJNdWDD0o14d9P7loKgpaQn+rWokrWOHe7cYVgELEViEbDUJnYb/olElNPFkYlKOZKzxFEP+h/g/PULOHr2KC5du+Istbiz2kALLkHr0j28fHS8aGIRIYhMVErUmwLbsxRJsm3TmDNjQY1MFnYuIpUExFAjB7VnvU01P+dIhqNeCKqySOWHhBEJxSobQIrIrmGvvmNUykOF8yxQozWWsaD4DV+kUDYfoBgTanUsF0GykMCCjnn4ePuH2LHWR8BqwZhmKkdjzRW4Duwa2awTa2x/Db5eauhwcZBlIjKxCNhYL+5n71gO2OOXT9joG02TeJIc0bmLu5Ve8nLnqCP8/sXBt5dvM6G2NEzlT9Pd64x3Ul4L8cmun2H53JW1HLBK6WiuBivSSCZD28vPLdlPhKur2kf35bgI2BxyiQJ6y1rNOYc9R/fg6IUTFvzXX8qivzDIvdimslJIvkbEPJ494EvXbiYlZcm3vrw41OWjSlXo2vq7xqO0eqe0TMdbG3ZYnMn8zgWsPX+j/jVbxanLpAls+xG731NC1+zLy0XTGo0kh1yWfm6h6Bo08L8nEzqvSESvygGr1ZkElVmpBaoDZbo6KayevwY/eutH1uCt0C31KcRKVNBcGfl8jsohIgo1gEZSIxFfmkNbGwHROVYO2L5oD272XMd/+e//Gce/O4b+Yq/dg5IrUkal+nFe9rOGh+eAVUY6lwNW4fOr5q7BX/3s33GkXYzWchtiBTfakhbHzgFL1DuNq6PuMvYRsJE4raFE0SJgFU6/98w+fHNiL648/A6lJK24jpTdLFilhcImoutD2fJa9dwhPbN58jG0bYxUaGCZZVpJYkbbdLy79V28vfUdy5WjfLkxxRTVCMfJQDIRIfr3Hm6uzumEULfE3OchaEJQ3weMedW+A5epiZptjwUpAMOj3kRC7khj0UXWChshSlNdcxSyTmRzaBlvSnqKRcAq3HndojW2OpEq66FSHENMIdhJylJ21ofEoWIhtJ5YxujotqxsaQaLtEQG8N2DS/jtl/+A2/23XA5YWi12vewI4SXooS7D6Od4ERiWA5aKWsoWMY0j7a4Nb+MnO3+K+VMWok1pG4MIWM0HyDIRvHWiV3UOlXCdXHFWDP93+kKFiScidGNofVT6cWfwHg5dPIr9Zw5aDlgtFZdSFQxUBrmNsrlRbrSAyfXUM+cmhlpcpx8G6WRjGS9sHqOhDAFlpHkyWb4t0RQt3BQWz1iMd7a8w/IupqWmGpkodMBWyygzI2HtFxBBbWKdctH8UO1uaH1mbW3Cnfriv9c5h5Tnho7hy+Sh6dnUNp5hPTSyp9Npe4peMzP4eaHzNZ5zJChLeCaZYOG1UIlFFivfWIEta7ZYDtiZmRk2sqgDyQcOQ+2ookC1IHzFiomeryNBVozcHFkmF++etwlYxU/kKwPsZM4CsBywUi5ej+A629Ay2RiWA1Z3DSem4s2V2y0HrOZMpsSnIknytQ5BeZVjdFfickFGEUgAyVFFxC056mz09Cj3Iok2j4e5Lpy+cwnfnPrWstP30ZIr89jKxqak0yITtXt4JH9ZcITpyEWJpVQnJdl6Y+oC7F69FbtXbsOC5By0VEgmpaSzSoLBqpnLMz591vncOX8IGCYFJ1QtoA2FRo1UOmGEIgtByjkafMcdh04OgScWXzzCKyWVUtHC6uMkNnWQhbMXYMem7Vi3fLXNmWiZM6IZQlbPL/nqvf3P67Gwb36r+AnFUqiMdZ1KNdBT7sal++fsIVyHzu/n5ydGMuoUdlwqmEb4Zsr1MhHOAdvROhXrl2+0h3DJ3enAFI7AGSNDWSYiEZGJJm1tfmkMyDKQ/Hw8iuI0IhVaHSSTrmwXzt++hP0Xj1sEbF9kEIUE3cKYHgxWMXfHrJNQO78sOH1z5CaoDWWhzG2fhbfWbMKOFZuxsmMxMuUYLbmkycsl0naWSXP90fECGZpO0EocYtmPLd/vG5pqvhpYT/V3De2EJcVpS6bZkbWLlkQDcy6AtgmXp4d3cdz57Rr4p8k6e5XiqeOyAQuD/K2P15VPYe70Jfj47Z9h+/pdmNuxgGSSQjwfR4amqpsDYKNZo7rGi2gSIYCrn1MmRzoxHt+F4ksB7BqiZXaAHAaiWZrud/GHQ3/C3hP78Tjbg2RrCzdThjXNGrBQJpo/lNIMLX4iOfQd62Ql/F2TMipUL1+Imux1roYcsHpwuSJgl9F0/9V7v8SyWW+gPdqCBDtNOR/EfnAv/5whb3l48vXn8G2j84hI/HWKGIpx5YB1q2d9NBHP3byCvcf220O49Fsqk6a8NNFJ95DXGIvL0nVW0cuGI0ZnkaRLUbRyYJhN1+bdzdvx3sbdtFIW04qLUa8Uv+Sv15GJkQWLjjEaXNtwW5ObXG5Ztk6uEw8d15fJw7CWlLK4DuZeJSSVZCSOWTNmoyWVQTY7YGTiFdgENQrG+j0MnTNcdD1FCl8RsG7FhGYmR4hIrhVLZq3C21s+wuaVO5DmSJsoZpCqtCITaTVLYajl4YSrY3rovS0LspQjtLgUqKX9kEAinqZ/Gwf1C9l4HvcG7lpC6TN3znOkzXHTGLKlEq9Nx9HSopZN2anoGoXPMVlQPdUhGnPApmMJtCVS6Iy3Yd2cVfjLH/0rLGybj85qh4WPVwoFbi9fnqQSce/NdaG4vNWh94Laog7XmaRAymeiUNlyqoo8X/tjBRw4fxR7SLzXHt6we3E0KGQLeZsn0b6eiHz76NWXF43hHd9ZmK2RFNpBl7CawaL2Ofho6zv4cNNuzE4rJSjlUIyhknMDUriNh3WiIQiEp60kL+laqcxPlLPuNrU4Hb/N9x9NZaHqmcDEpgbN+Ucwf+48zJw+EykqaGsmw28oiyZl/NCZfBnaSIKRlkLe2QA+UEydJo02bFu5E29v/cgiYFsi7Bzm08oMTbFDuEc4CJaCwEZeP4/B70mOKhEz8fmZxBGhNROxO4CddaIVB6UbLMXKuPzgMv7HZ/8TJ787icf5biMOe1ymKQmPwdHfgqD4UWVox5skUClN/nQLfQ5YtVmS19meaMGbq7bix299jEW04pQDNlOi60q30OaPKCNZITaJyFcRsUiE1bSm0XHNKlF7+MJvta/JlFycrWbRVx7A7f4HOHzhOK24Q7jV8wC5ahF5uj8Fuqn+SX7aR3G3FkdEi0XX6drGHVdlojGEsNi+mnS14i7J6qwb+RL5GBZNnYed67dix7qtmJbqRJo6Zb+xOHdWZSjsW/7mi4mO1QjrguoqtzOV0CS5bG+67ilX7+AIo5TvB8a8Uus0LFRNzJk2F0vmLcGsjlmIKe4jGA1rDTUCnqWDqaF1fJnkbbE0OmKtFjfRUk5j0+I12LX2TWxYtAKzWqe66BI2iuvQMr0VDer9V/WI4LUJ1Pg298Gi98oBqxWbXIwdBD04d/s0vjz6OU5fOYXu/m6Ug6RIUT87H2BM9+QFo1kOWFlqSri9dfmb2L3+XaycuxrpsnNzwtfrO3MYajMjR/KrpqPc1k6OcvA0ssqqUaxJDoPor7gcsBeuX8a+I/tx8/4tDNCSlVVSUGb3YM7Nn8ufT+0cLpMBp6+u47u2d4NRjGbm/JkLsHHNJmxesxnTO2dS8+U2SwBygZvrUHPI6nUWsNtL/9NqJImUFMNU6ceD3CPc7XnEb1zU8g8BYothkKUwjF0p0PZEB5bMWYLlc5eBQ4+NYmFFaEYq4yUTbwKr6HjW6GoRmpgtET3mgqZotB3LZy/BB1vexsaFKzC7ZaoFqyloTVCDK/J1SA7YUchEMKUy98gpvMikyAYfjPbj7L1T+OLEZzh47lv0VXrYweTzvnqwyWrWs1kO2NUL1+LtDe9h1bw1aCt3IFagRSX/LEAjkXiITBRKrwhYbW4EQ3eOkmUbyf93EbAKqc9VBnG//z7O37iIo2eP4dx35zFYzGKwlGXzyTLhzrQ0hZdNvIJ0WcUNiC4xUqqaxqwpc7Fp7WYjk3lT58vxNf1QERot6NHg+lDdapUeGpnQWsuV+nHryR1L2fDd/evIBw/r/yHAJOW7nO92vkMLdqOXBErBy/9dMGORZTprYQNoos9MY20brMBIud1+dUVsLM1BgVP59KrjWWPzfJVB/jdYQaKQwOJpi/DJrh9jx9q3MIdWku7bychNsZgUdww1nJ/AtaLPdl5fO1W5XjyJcStbyRGZKAfs3f7b+NO+P+DImUPsGAOIcqAKj1AWb6L9Qh3EdRZt01gI7RsuEwQvb7tniOeX8qf5V8sB+96vsFQ5YAspl6JQ7qDt4eDrb4Vy8sW3la+dZkF8fSwzPeWkRFKasNZDuM7duog9x/bgyPmjds+ObpbUsnA0HrWbNZU5T7FMmvoVwaj4zhpukYnAsBgTytvrnZEJP7j7v6i/xYRN5E9NT8P2ddstIHLu1IW0eeuJkUz/A0g244W5wZr05rsCrTllpcvFs3hceISjF45iz9F9eNTfZb//UNC0DWWkyZeuWxxuorJKN0c3kilXxqq5y9FCV6QlmUJa962wUyuS1iuiKWNDGQ9EZhbyzVfNE3bSKtK9OctnL8d7m9/FtlVb7cY1Ld0poC1SZLNJOUxVncKr1NydWmkO5YDVg6WK7AS52AB6qk9wb+COkYkyruXAOpGtNKfyzJhAAhkJ6papaMo6STgHrCJgO9BO4m1BKs5CyyXcQUaDd3cF3b7vI2ArkpXcnOggeiK9OHz5KK24Q/hOdw2TYJQHNkeXSEmR1O4ljUTBOR3pTi7quufrwlcZWDmSHfVobsdceyj+rs3vYHbrHKSC+TizXEPzJp6UxgXuk2B7VKibWlTQExDpABqZfHboc+w/e8Dua+ot9FIHf2iE4kfNQPHVqd3Mvpt4pHGIeIyMXdXDAVqwZPpi/PT9T7Bg5lwZhbYsqa3SKSor4cnE+ZDuczO4ZnJFm+gpcMUSWYT/NC8iCyhDV2fdkrXYsX4HVs9fhZRGlBJ/I/Ob/0tLRtaJuUgkDiMV+fesRJRf+mjFZkWQAaZ7cyqad0mWLJz+7z79NU5cO4au7GOzWrylIwwZ/XgIFWcF1bd5bkiBfRkFLi6H12Fkx5rnKpjeMoOy2oWPd3yCue0L7QmIqXIL21NpJ0m8rLdmxMLw9RgCnlt6IOgnN7jwXOyJcnH0eNDH5S4cunjMyORG1y17+HspVcVAma9GKIG5rz15kPEsD2sLK2rPoIwGf+3hMhKc5U1NDYhCsSQLZizEWxt1b852u+Naro8sFrlB2k5kYlZKAEm6sTSDkiflB0tWsqUCjewsHuWf4Pf7P8PRq8fwKPfYiDeaok+p0fMlonn/ZM1q+jxSLYdjWAu7+1zsnf1fM+t5Vj2kSE8c0dP2l+p5Nm/uwvxZs21pUg1fM795gbpI7/IIXjlHgjq4kvik4iQvvkr5WxMZLFu0zAWtLVuLWa0zSWAujLwxAlbHVxG5WNGIGpxzWCUD6Jy2pJkuYyDaiwt3zmGPUhB8d4qm6EOa7C6/ihIPKQK2OcYv7ImCEUlAJoLPAduZmo63Vu20FARK29ihJyCWabWQdAWf6NncgDGg9hRZu+TdslE1tMhSK6CcqLBDdOHod6fx5fE9uHj3MrrzXRb9qod06W5m9xdcH9tKRfBEPtmo19kRhHLA+hQEb659E7OnzkVaeXKCCNj6HIubW3taSH6icM3wlWi93+i6h29OHcDBy8dwhwNVTgNVpYRCMfdSrLY6nFxcP63rhe9PI/WdkdCwfaAAw+pHVaLVKsXURFW6mkKKotq2fis2b9yExQsWoq2lhbvXdzTrhEdvzn4jgCdRWL1KC8nkjQVv0AzdgY2r1mNB51zLWJ+0J+vGaqQl6Hql7LUIWFZDpK/Pw+syFIqhyNJ0v/joPL45/ZVNwOrRF3qgucVXEJp3cMrVKN56A0wWPGl7hHPArl++wYXTz12N9konLRPKS4TC65asZIlpYnmsqzYF53l071OcxeJRtGxPeUomygF7+vp5fMUOcvLWOTwp9QY5YAv2uAvFBYq4nHwmX0bDUb8O6bBywM6dPpu6u4WEshXzpy6kVqVYV2o35RVTQimaVyKTsfRnJEjmKQoiHUngSU83jl48ja9PfIvrvffQH88iR1llc4MkFJ9Wc/LhggrViTQ/piKEZPUMdbceYh0yKB610Z1fuqjYKooWBEW/M0bepVnYien4cP1P8OGWj7Fm7lrMbpltiY300OxEqcpXPdioTMtJIyr96aD4STnlWPUlXqSZ2Z9CW38HOgudWD5tJX729i85euzAtORMbqGUekmUSlRqY/QmjRB0eE80GlOtivxed4sqZaM+63cFoOXieQzQTNcjGz49/DkOnzvKzjKAaFLpGuXucVym0I0Yuaf2C7s37nNjcb81upHPA3WCWvuEjqlRP5wD9heUl88BKwIs5wokBypKbR9ntRnZ8qOOZ8Rsv6g4Wbn4DFlAtE65n5ajRRSKgFUWupOXz2Lv0X04d+08Ikm2Nc12TbpqtK1UiiS5iN3v5a0SnVut/SJgx+Xxw3K3OvKtcru6wmss0gIuRZAiUUxLd2DHhrewk5bJoqnznWaRTCRnu0rTI1e8TFTMobY21qvTJX9u3bKguBKzzCg33ZLRFe3C7cpNHLq6H/tO7sWjgYcoVgqUUQVFEoneazBw0JlHKxMP1UXtr+IhnZD8rPZ6Dcp4ERkcHOTm9QvWSQTHXG4ORa86iRTMRVU64UkgyhPaXezDzYc3cOK7Ezhw9iAeDj6wIKd8NMfW1Do+hW+deSgsCVFUJFNFKpfE1FIHlnYuxrrV67F+zRrMmzUPmVgL7RHFvKhibEiTgExoOUX+uq2peY3us5uQdQqgV02uufydqh/Nfo7UeY6oSo50P/8Af/PZr3Hy5mn0Z/ttBOfBtaVtL8j81Uy8dT479lAMNePd7zrzM0MKHECNKXLQGXymNV1PMkpTOlummzMVG5dtwM/f+aXlgO2Um2PkKWLgvpS9uXb8oOKjXyVPLQsrOZKuWJ1E8yvqfLJM1MKKTpZFYisU7CDZWM49hOvoV7j25DbdxEHnAmnrgIDkhinmpNnKhSmn1cRhVBmFZODR1F1indQuSn9gLc5z1AiF12KykyzKLgP9jM7Zdkf6Bzs+woz0zOCuYemHW/GrWaGSl3sXyE96pU/8PRiYNEkd1ewut0wkokEKUsqbpTvWh9vFO/jHPf+Ak1fO2HycVr10n5RVXBafzqBro+x1x/ZEwPffsaDZMNUvpQRb+Va8uXQb/m9/+X9Fmu59pqxHpUiO2sJzwPD+2wwBoQyH7rmoIRCyTmJaKtCnqSiBcDSJSrKE7lKXTWg+zj3ElYeXcOX2ZXz34Aoe9vbwgpQ6L20Kq2K7lzRxyhE2k0ZbaysWpufjrXnbsH7GKkyZOhWZTAZtbW22rRLYNKJ+de56rHGC94KaS9aFfwiTOgp1xhFGsoruyhOcu3cGXx77CkeuHcfjQq/rDOpYQd3D5NFIJLWbvggp8HhQU9angGTuw+lFJpqnUCeRHk9vnWFzJm9veBfLZi5DKztHS5GuZwPCHVFuoBJKS1TsYxZnYqEBhCcUuTmqb76StfkSEcpDjq4nr53B18e+IZlc43XkUUgUScKDtiysc5irREgy4VEvjLCsRpVGE1kNIRRen+kjIQtShOK/E5l4N03zIZYPtxDHvJnzsWH1RuxYtxPzpi2y1UPNmWhy1l9zsw7p297qZGTCwg9KgRHVbRhVupEk1iwJJULrPRpP4lb5Lv77/v8fTt49ib6+fvIHLZcyu7GRrhpgKGppDISn1pP69o16OhI8oWhedGZ1GnYuewv/l1/8n0kmCaSLmkPSUbkFr8XNV04koQTwDSiY8pBUZD34PCH95T57Wt7D/vt40PUA93vu4sHjR+gfLGAwl68l+knSMpHv35JpRWdnJ9rb2+1ZsCtmLces9CxTHJmFUU3OynTmOTwReUIb3olFISGoUdj4LjO9+0XXmIsP2jWeu30Ge898jaOXTuJRocceiu7JxCuuzFePl0YorJeO7xNKK0BMEcMaWbWaozkT3TWsG/1Ag1CjsMeQDhhAVp2z9pyFYjdlB7DbFEhW6oiaWM2RfLU68TjbhYs3L2HP8X24cv+q5TjRIKK7hgfzgxyd3Z3fNbkFxBKGJ5iwrEaVRhNZjUYo4XroHD6dQorudxsyWDB1Ljau3mSEMp9kklZIZEWTsG7AEYxQmlzV0LbX7yy8PrVNlFaK9EQBa7r9IMfP9we6cPTqEfz+6O/QU+2pkYnX6zEJRXgqXalv+zSEIohwF2Xm4501b+OvPvxXlFfcCEWylYUimSiP7hitVcPzEQohf1stp4pIsHn50VEKjySjz/39/ejt7cbAwAByOfnYFUuBkEym0dHRgfa2TvusibKEHjURChos6RkoJJ4Yv39aQrGkNzT9zS/mD7JMNNHaC6UguIC9J0kmVw6TBHPIlhSyXieTWsfgn4d/HyYSj+HX0hxPSyhOxjwfz2mPcYhwNKWJ2hFrx9oF6/Hx9k+wYvYqdEamIkkZFUjabrmfu4Q7XwhqJ12FNtNo7BSL37ESal+t5ohQNGcyGC/hdvd9XLx+GScunsTp784gF8nb3JNzg4rsKAUj/rEIpRlGlcZTEkqe5OhMc0FuLomRP7RQD5Z1zsP2tVuwiYSiCFgXtJakpaaEUrL+tJ/bd6gWOTTrpDq3ttT+GqjycZIr3egbPbdx+OoxfHNyD+703HL9gGRSoo4pLMJZwe4YYQwjFGHc+lLfbryEIt3imGG30KycvgIfbvwAP9/xU6RoySksww1kIhRvoYzvWkYklJEU0sMTiqD3jnkdicQ4isZohajz5QtZJEgYUjwJTVaAYMenwKxifK+bAG3Ctky/lJ1G3+mYtq0YwSMQmGZQGhEmPPnNIhQJwpNJf7QXdwdu4x+/+HucuXbKwumRjqE/r/tf3PHUOQSrU+0UIkt38JdFKLIqFFSohNIKVvs3P/23lmltWmy6PfKymKP1RytLMmhsu0Yz3n129XA1o3VG5YlyYLBRl+9zdK26igNmwR06fhgXrl+0CNj+yiBlRvcmQa+LhKLRVvUPn7NZLYdLrfl2NTSR1ZB6USauvbUU7jLTu4l+2bOaLyHJ8SLnpDrxszffx8412zCjfSZ/oUUiy7XCrTg6hwnFXeMYbUQZ65xuyd654kVZashb0NrXZ/fgq1Nf40HvA+RKg4glnC6Xy5Sz7aN6hM8RfDfJhCKLN0rrLZaPYNOCjfjxWz/BO+t2W07mJE1Xp9OBhcLDj3eOZ7xXPCbUUMo/ojgV+aURmU2FJM3zVsT4Pl7Sc15TNjKo6FGNinyylRe+VopUUjJmhP6uAuV8XtbxdtZGmPlK4YpMlAN2MNaH613fuRywV4+ir9SLAv+yJLww1IldR/YYXwO9KIgYfQ5YBRWuW7gBf/2Lf48FHYvMMlEaQnK1dYrxEFadXNy2mgfwEbAqhWgOfZEBdJW6cOy749hzYh/O37mE/mq/uTjVFDttTOkdOXQEcgq4+CVgaNtY/SkLd2+WywH7zrZ3sXPzbsxqm0XPnDpId7FZBOx4W1nkIBdPcya6wcDIRKkuI33448FPsefY17jXexMDJQ5WZDwbmGywfbl61AjVPcm+155ow5I5i7Fk9iKb5Ke5RbLxLk64jA/j33IUSMgqalARC8cGY34rJBibGOWrWQya0+DnoUXWhCvGyizW2Apm4auZlw1lLIhMbEadJqdywF64dx5/3Pt73O67SV93wMxUWRtGICFWH0oo9e/lcqnYbQENRa6SL8+LuCUd0mhARS/T4iuRFGl9KAes7jP5cNtHmNM2j27PFKRLGctMp8v3baDiYR2l6SW5ZveyVEhARImkKgO02voskdThy8fx1dE9lNdtC6dX6PggrRMFx4lM/D1MzkVwxxsNfqtwGS+sLdVWPLcvQyB9oe6MmAM2ORWpistKpzkm6ZysGP3V5CbrWe0XUrKwTH2RbgxmBzBI9z1LC2SALuCTYhf+4Zvf4tSNE+gpPUYkVUQyw21pVg7Vp4nAWJIc63cHWfgJ9tM5HTOwcNY8zJyqoNE6yaqfKmzCte/4MeLWXhAjlUaokS1wiqUUL9SKnl0jK8FWVwJzsQ69b1COBjQ7l9B4PY3byfXS5OtAtA8XSSZ7Tn5lOWBFJgqnF2K0kvxIJWUJo/F4kwWf7V3n1zWpk3QkplkO2O1rdgZxJq0WHi620HYlkoFPkj0WNMei4ict3VjEtkMROf4pB+y5e1ex9/R+XLx7Cd25J8jyz9wbbuzTQjQnqsmFI0xX59FywGbKaVrICVrFJOpyzO798rKzwo+S+rhaXB2OgtBqTj5Wxo2+W/jmzB4cunwQ9wbvQDmGkc/ZKpN4yUNuji+vAjT4K43FskVLLWJY4RmpuHI0O414VqtzQmunxtXT9LSkqJKPZ9l+eSt6SLY1fri8QIjY9NCtc/dOY8+Zr3H4wkE84eiheApvmSj+wMWovBqNbOSgRETBaphWwlrTHdi4YqOlIFg5e5U9hCuWIxEWOMZQhJJpLQJ2mExVL18c5ELWllVpwPkIWMWTPBnswsU7V3HoykmcvnsBPdU+e5bOQDXL9qRLJA7jzu48jeeaXBgJqB0DxdegMGoOWIXUy4phce6h2+/pwWPE6DolUng42G0TsF9wsLqTvUVrpQeFcj/KJJRSjq50MAf4KkIWypTWTqxavByzp80yktVz2QQvGhH20xJLtMbSDWUsjGcf79M7M8phtO1Hg9/HgqhYrLIaZTQPQ6WxCV1+r9UJHwGroLXf7vsd9p06iL7iIOKZFAeYGDufTT3avUZKeRM+piuBiR26ViUtskILYrQyKtQRfSFq1rU6Z2C9FUsFVEpluzFySqITS6cvwi/f+4XlgG2LtFjD5/sGUK5weyqscuTas4aCMHlZHW7eycnc6sP3yvuhDuW/d4moSsiTiHIcaXurOVy4/R32nTiAY8oBy9+VeqDIY+t644mYy08bnguo1SX03STBEaOzSMbKASs9lBxc3UNFeqnfAt2xh6uQlGyCXm3JuhlpUUbeLRaxdsd6cLd8z5aG9x37Bg97HrjVzXIFsahichLIFdSe7rzjKeOHl/fIRQOEimk39Up5WDR5Lj0ToWppuD3WbmlIFs94w55pXeUgpmc4UcOt3rqmMJmE+8JoJTIwMGDq14hGF6AR2rkR4REy/NjFxhusPNFUm5xDDdsIsak/n5ak9U7zDLpVXy5LqUpzvZBFPM0OkNCMex/uZu/jd/t+j1PXT6F7oIfXwxE8MNcFkZwsE53P9GfIpdTr4TF89H96uFo76NzqEDqtdwlNzasJu2tYN2BuWrYFv/zgl1jQMg9tFT3k3ZGnLtZidLiHu3YqMoXiVjYituIh616EaZ2GkCLJMpGyKLo5SvMkizyyHFF7Kn02AfvVsT04f+sCuvldqpXXocnEgCQtuXTQNpJV4wjvauIQruczI7huA69Zl16fo9KqF0mEHddcN03AdszGjvXbbd7EnptTDu4YNt0b7tIKvkWt85ipz0L5xdT5LHlUFclUAvlykcdx8y7dkW7cKtzE3+39Dc5cOo0nA0+Qq9Dq5UDGn6lXlK9ZJm65tRrVcUeDuwrNxQ1DWAZPAWsbyYzFphrMCtXVJ0gmKbTFOrF85jL8H//s32NeyxxLs2ApQHg+N9/pVmgN/nWcmFBCeVqEzzHWZdcIRY3PYoTCXiOXpUwm1lP7NDeSTQzg8qML+OPBP+H8vYvoKiiwiF3B9q+fxZ+7GYE1vZpAsM2u81maXY1uId98VaMX4wVrVK1SKAXB9jW78M7G9ywCtqWQthywjQj74+pgcmG0SsbDugjY0JWp4yV4fD1zJ5YpY7CqtI3KtPYA52+ex57T+/Hdw2voLfZYagIt/cviCtdNdZfsw2i2Cvds3WAowm6oJ3trM7aDlF33iynLSyIfwYJZCy1to1IQzG6fi7Q9N0eZ2NyD101f1Nsb4I/rCIXn01o460N7l4SSo26UaaHxlbqTTLbwODFcz36HXx/4Wxy/cwx9/X20SqhB/L1YlMvpjid4OYW/Gw0aNCcElI0NHGwt7wqr4ayvFOKYlpiJdYvX4yfbf4I1dKHbq+22m4cf7IWwro+3TUfcTkIarbwsqMI270EB6b3IxDpkkqOtyOTBRew7vQdnrp5GryyTGpkMxcuuh6DrtgZn08nS0p3BnfGpRiYKp181e42lIJBlMhakwIp8FZkoatQUWSTIIlPXXCrNY+kuV1omutdKOWAVtPbt0QO4dO0yBnIDiCXYETkq+5SNjRCBhMtkQKSrtra2ZwV96MHT5ID17d2s6Piyv+T4iEzUHkbGOgZJWs5Qb7UXl3ov4+vTe3Hi0ikjE811Sb8UsPYqwfSKZCKor4hY4/mkhRko7MBu1Ziz3CyTRkhmklpNcoEOjRcjEsqrDFMqCko3r0l4ClrrY4PLMtl39hscuXQQA3R7ZLFIYV5FeHNUDxNX51dnSUdbsHn5FrNMVs9Zi1aOHrGi7oIdy2ymEvEYJbo6skxELNYtrMNoBJXpQgWjGV/hyKvlzgcDjy0H7LFzx3H++gUMFAZ5PVQmy7KmJcNXB7YKJzKh1fKicsBqziFO89Bu9qOsLLk094+TYHWvzvUnN/DV5X346uwePB58UrNM9ESGQpH7vCJwehW4OoSRMPVHD8FftWCN3a6xYfEmJGnFjbgY4UnkKYjE43tJKDZRZoJzZDIY68f97F18uv+POHDyW/Rke5BuS0qawR6jQUJrLERYqCr///a+szmuI8vylq+CdyRIgp6it6I3cj0zPd2SxsV+3JiNmd3YX9Gf9qesidjY+TC909vTMy21WhJFkRQlkZRI0FvRgKCHK5Sv2nNuvqzKqnoACiAAoiUcRrIKr97Ll+bmyZuZN2/OFSC1tI2gZ7UVrX3y4Tt/I+uXbJR4qUlV1MwYhHWCyV42GA2oRgq/Bq9KlUg13SCJYAZkk1Z7Enrz5/6SS/euyMnvTsq56+d0STjSgp49GpA8N7px7wk1O42vEhhzbZgNaK/oBL2GRkHoXJclkwJG97PoA9ZoPiYQ+n5tiNRW8pIP5fScoQfpp/LlpS/ls3N/kBepp7pvh6A1OG1XstmayerXCK131J0SMMqDR6a2Fttk7ZJ18mf7/0J2rN0JeaOhJPM9WzVYwYRzKPOBmcyhUIy574c96XhgTMZKoyCTAfm/H/9aLt2HKpodkWIEvQfUUGNO7/bu9W+xAlwFv2se/H6ZSbXoTDzElopDZ7RLK/qXRz9Us3q1M0Glc7JRdW7cxI17dYBGooBgqI8OfFWjOKTfaiU8k7lUyqF5UDvJSxLEcuryN/Lld6fl3uB9Gc8lodHg/iie554s7d0okIzGmNVb+OVzNsrDrw4o7OxBjWaCOqQFLBpILBCX3p5e9Wfy9puHpCfWgWFKSPOtpIN7ISFIu5GtcqOZpPFQDkkk8XhUNzvymQCGfLQYfioj8tsv/lX3fT2DnBnCNQ3Wwk5ce69UWCJzr02G2ZpD4YoOfdJEQHaxfEI1k1Wdq+U//e0/yPK2PkkEzA5rSgsnkEMN2sU0Sj4LhlAahYoeN1lBxsZCo2pn8tGJfzdkkgeZsJcJoxFRrHGT3ZpfDb9m4GASQvGFW9iNPgsh5ERpV6JDDmw5LIe3HpWVnWulM9ShgqBCjaDLf2QdJ177ze47soTCT67GUFhIKNRMijRYK2I4Ey3KSHZILty5LMfPnZT7Q490ziRbpAd7lBknYblUxJUU710hzg/oN4PZmDPx1xjqy8z2sEos+YjwdBBautIIi57W6BxpeesSSaCOVdgZ7HNOJ0JzAoNKTqxG4sofD3fnyiRXC+kgimX7IPNYfnfuEzl144y8GB1AR5XSZ3SljQI4AVwSaZRQGlKmGwDrHXQqpUxBz63mMSo/P/xL2bZ6u7QE2rSsaFXM0lB/Ln7v9crSRf0VfzR634IBJ5sykbSMBIbkyoN++fL7L+Tine9lJDekQyBWOA9L58Ywf9QL7+tABGlsi3QqmRzackQtYHUCVpc6TbWYsXBlGDAh8DsFw6z0mOEBZ0F4jT0q2qFawJ69c0U+O39Sbj6+DXIZllQxJelAVoIxNBDcPNnwYL5RXraEiLI85toHLBtREHUSDMYkiTK5OnxXPr90Qs7fPmfIpJSSMDdN5TC8KVS2Hiw0UO6p3ZJMtq3aKW/veVfJhJqJlStatVNbnYsc/OkRCliVE65XH1+Wzy98KmeuntY5lALGuqUQ7QcCZuwIwWJfVY2FQSZENByVHRt2qGayYckb0lJqx1CnRecH2DjYs5lJWw5bvIcmAbUHNaXPc06GvTkrF4KDOKwP2C8unpH+B9fV7mQ8MK6b/QphDHM41MEnPfE1rGHNEzjsmQ8fsDpkorP1YFgejjyTk3e+lc8ufyFPxx+oZhIOZVG+IO4CX+BfRqyzRjWSuQJJoynYrBOwx/a8Jfs2HtT5ORKv3bVPa/YC6r5I25lZxoIhFPbCVL1V/cbfxgqWlotctCtIlifUhcYlGUyqD9g/fPOJnL1yXkYySQklYpAILvjRJsXshmUjZNAhUDlUKr0SzG/akGx4RbARULCNcDM+L04Oc/KcgG2SvtY+ef/Ih7Iaw5xEqYl7tCGs9l4vIC2WKGhbwPj4SzlvrD72OpwuKYJ4SlkIiTmEKxtKqyZH4uAeplPnvpQrdy+KxBADIwRisYiGdHq8PA9gYMbXcwE7bGLs9g1WuzDe4mifA41kNn3A4n4Gc4+pb/UBi2EOZYsDZE5M84yhe5kH8vXNr+VU/yl5mR4WlKZqvXw+j3QF6JaDxmo09CvLkAku/K7NFph+Y2NSkWvmzazmtMia9rXyy8Pvy9439uipm1Z2mHuWv373ZHS2sWDmUEgkVHNZOMbOwPzGAuMRm9ygxsbxPPtcfnvq39QCdnh0yCwN41aaxRO6KxiaiSETtrWpWNiINQt7xlCBNmAlsXEw9aphILDXiEcTkkvmpSXcKrvf2CV//e7fSk+4Ww8uV/cEuIf38ZMwZVHxActPOhHSc4Y1b7gXgUMcEpGZM2EZmpUv9QEbTMmZa9/IJ2f+qHMmqXBG0rk0GkVIy4YwjQXDHTQQtz4IK4QWszGHQjD9dNnoCjmFnpsWyXUsgwDqfzZ8wJa0sIxfHOsDlppYOBwwPmA5BxOMeD5gH8i/nPwXuXTrMsgEsoXhYpAJQ9ylgrcMq3GzEtySqYct30YxncatQ2EQCnMUDsUkSJcDEA6aHbzRuU7+8a/+Xla39EkEchWhlu7JFeWFxWFlnl993+uTt8lzW8GCIhQWFDNDpqUnKSKHHreI4cxQ4bm6IPjiwpdyeeCavECF02kNrTntkh0bYcCbqGRjdOOvjMnx3gZzXBbWaYAVZH3Akky490PNmtHwudTp+oCl9WuCLghqGrILOlqOQpYZH+1LXB+wllDCPAkA78pgnE/XjCSUp8nn6jT8s2+Pg0weqnOkXDQHQqGndTYwA218EBcKml863BJ4VUJR4UWZIsmo78o1tlluUiRpqqaCoUsoG5w9H7CeBawe/iZpfMXAuZCWdDYDwohLMBxRH7D/dPp/y8XBi5IcH9eVnHyeWp/JdHmVUTMx+2i0bJkn7iy3HRU9EPEECh6Kv3HFRvnL/T+XnUs2S0fR+GN2QefZM0WjLaHR++Yc7HE490EyYUGV0FXRHH08wONBX8rVR1fUAvbynX7VTFwyYcNyzdAtKkvN8wgIs9VMCOaH8yLtoU4lk8PbOAH7BhoHzxgyzp0nAxuM+n71gmlAbDCkAa7+QCXnPAuItxQrqV/Tx6Mv1MPatxfPyeMXT3Rilio6h4/0IMY4+F733RRolqANcw02DDZvGpBx71EOw4gMAv2XRgJNsnq5mYBlWNq9XOdRbMqUMGyYBMwT6ZIWsEomnANhJ8HAlcJoQJLhpNwYuy0nL32pmolLJtRGLGrLa76h7kEQSCaEdro56B+piLSX2mTr8i1yZOtR2crTNaFxvS7Mh+w0BFY0T+ezJ/Rp7w4VnbYm10AmX10+hR73nLokyOM3u7OXRGKdG1ntxAU1E1c7mWuwsVqVlN+ZL57qtxvjWWomG3u3SCLXrN7szDlBk4MjPw5z1AIWnxzv6zCOs/QkCq6nInDuhAT8dPyZXLt7TS1g7w7c0wnXEncNK2OEJBo1LgmnAktyLoWDdEgyYaCFbxZkkg9G0XDiIJBe2bP9TXkTYXXPam0gLEfuN2UHYurUi2hKkHiMBSwJWFeCcJVlUowG5VHyiXxz9xs53n9ChjPD2gmRTPK5nK7k8O/X0jHVgCRq5k0MobAD5mpmCzqmLSu2yOEth2T3qh3QZs2q1+vCXMrMtGArTgsOhcZJRWontIA9ce64XLzxvZqMhyIY/2uDMj0UDyJTodHweqF5sJOb3hwAJ2BXtK6Sv3nv72R97xvlGffcOAgBQxU/aO/tBVaRulsoNyCTVzNnkoWQcbI6o/MjQ9khuTZwQ76+9LVcuNkvqWJaxvIpGc9xWzrKLIQmhcfNPACF1ARLHtqje2FuYYaEfDmND0msNOILlmLSgWHh/h0H5fCOI7KycxV0uLhEcF01Cw9WVqwLylrw3krg21BeYiZgOfmqDqUFw8LMczl7+6x8cfEzeZJ8BE0OpAwiYfmEqclBU1kw8PKvecqjY4AMcWPfegyd/+LAn8vBTfulI9Qmkqw2RpxvLJg5FCMcKKxwSFKhcRnJv5QHo/flf/7zf5eHY/clW+TKBQ21ON6HiBTNHIurlrL3trDjaJWoGjRa4K4QNwIKOePm2cwBtNzOSJfsXL9bfnHkfVnTuU4SxSazN0c3NiJ+dVFfL7SGSAwqRELgXtVMuORXlDA6IjQRHdLQdeOXF7/W0w/vPXqgFrCBBMqyyF3YIB9oKro0bDU7pwxsPt36cNNg8aqCqlWBd1mn0lzFgzIg0RDdMwZlSWuPvLf7kLy345D0RtrUy3+1BaxZGlaU0+z9PRFQXmYCNiU82YBDP/qApfMoawFL50jpQkbnliaKz5bNXGm7U5WtWdEx32OZmA6Z13askf/yH/5RVrb0STwQk1jOmxubII3zMYeyoCZlae7M82B41AV3DX9y+mP5DsOcVBHjWg4joLmQTDjRRkJxyYRwG1+ZUHwabKNohFDoA7agqjh6TLYONFievtzdbCZgD287qt7puyM9EsniFzQOXSYNIbEQdg0eSJa10DwxHdTGqO6DQKiZcJhMH7B02/hifEhuPLypFrD3nj9UC1g9sBxlBuoBmSAONCRbPmzYVYTiffoOhaYqAx/h9Wt0ZhULX/BJQtFjS6iVcJhbisjKnpWyd9ubIJSDsjTYJi3Q7vQoFE2TKbMK8eHT++4e9+JXX9RM6BiKFrAFlFkhFoYm91x+d9JYVz8Zf6Se1vIoW13x0RWhalQT7fTk6VVJ2IIEz/orZEvSKe06Z/KLQ38pO1Ztlw7ovRHucwIp8z6XfKrgUz71VwD3vmnm1ze+1wFWFH3Als/NuXhCLt6+IJlCWsmE0IkoChoyXEsmrwuulzYKXjQQls64OdHv0NYjqplwb04wS2FFw0ADKEVAPtwe4KM9Ea4wqA9Y3MYenEuqtIDlvh5uUDM+YIfkyuNbcvLSGbn15K5awFKtp92OHn1JvW1hFJXmy9Zl2Qcswrouzwfs5jelL9orTQVjAcv5NDMcqpCJC99GUws+hzgCwaikQd73Rx7oURffQjPhcDoLUg7wqBd0ChNUx8IAMsuNkTQzoOXru3vfkx1rdkhzAGUFMuFKGW6CENJfMjLzmrBgCIWqO9V268/k2+tnZKTwUoc5diLK+oD1Y9rXAWol9AFrx9r0AZuItsr2DTtVM1nXvUGaC62SKKAHQQMhETLp3GvEPFW0qApqGwl7OF1WhYwYexT8UaS9MH3ADsn1R7fQOPqlf+CmqvG0PcmEspL1NBQ1FGRDfs2kQlKzgWBZoJnL8palcmDLm3Jok/EB21SIqtd6rozp8rGn0dX29I3nB0QcxJvCUeMD9s55PTdnMA1Njj5gIXP0AVvKZtSknnW6EIGS0NMON/VtkWO735Z9m/ZJS6BF4vm4aiZaPkom9TI1n5jzlsns0YiJQVV6tigEfs9RgUdPmgpDMwmOy8PkA/W0dvrCaXWYHG6Jq9WrHuCEYFc4dEKS8dUEvqESZh/swaglMPV2uFLIZREy2tu2h1tkbdcqef/IL2VVRx+umS0AbDg0puIwR83b8bwacjE+RoVPTbXmodLobI+pZ+eCGGguzZ3BWagtI8U0hjm35fT3X8v3179TggpHodNjOEF/syyjUBgEHKQoBspx2c/5hiVGelrjUZdVPmAxzFnHCdg8fcCCeEEiZvhXkRc3VIaG/OS8gP2bdkh4EeqF+SdoBzQcHpXB4oD6gD393ZfGB2wBHRXIORiIoIziOllNMiHJ1wazqmTCrANxMkc069d0c1hfDuZ99AHDXcPr2tfI+/v/Uva/sRdkklD7JvRmeNr+Y/tAHl4jKc75HAqJhA2EjUX32FDDALjvhip5NpSSVGBM7oNMPjrze7lwr1+Gx17oRCIFxO3RKCssfl7znzyrVLhtnO616cJVs/lukgkbBRsvl/AoyJwktD5gd23YIx+89aGsQcU3QythU6YPD6740KUiPXsxXRRMGnGpwRqGTFncYrysmbwRfA97Z6Y/l89INIFnUWbU2EZKY3Lywkk5feVruTFwQ17mRiUUM3Ym3LpOgdLVr5Bnj+BTVm6Pb3M5ozkUwqeh1TY+5qWZlpscukELoQXsoe2eD9h4p8ShkVCLY5kXdL+MfW8lHls2JZAmhzEkE9pF63pyIKtDwaZYQpLpMShxLPOojMdTcnf8rvyGFrDXL8mz5HNoJWkJqPEsbVPwKN+B9+bxjW4vavEqw2u3nP1AItG5eZQXtUlzHApkI9KEPJQkkKHpWkI2dr0h//D+38uqlhUSQ+I576RVjHI1/mgZCUgFX0378JmA9alL39p17/Op28kwL4QCGdJEcrhCQiHrs1FCvnTO5PKjfvn9V/8u15/SB+xLPTWw1mFNteEaVLwpCMWiQiwVsCKmC0smrHxWeh7DCn1dNiCdiW45uOWQHNn1jqzvWaeGRvF8kz5n82GM7yqJUZN6BPbG1gLWNBhzvzY8/Mb9JnQqnSmlzXGX6edy/eF1Of6dt2s4NyS5SB7aSEjLrXwWAoGGx/z7+VN1YUt2qvsqcOvCpNctUztPYkFyqfYBu0YPLj+4gz5ge9UHrB7ClTd7sZRPPASderd1qZ8U+hJXZfAdrdZawBaLGcnwHOEwLWCj8jB3X/7p9P+RCw/Py8jISHl4qjYm+s2APTvBuGdKIFORh4VbViQzHcbik6cQKKEgNzSpL0IwEsVWWb98k7y/7+eyf/ke6Sq2mQcdVE0ae2XvZ+jpNw/lB7uJkLDxNYrG3vAKYCZcC1hLJvlYVsaDY+VDuK7cvSQjY8OmUfiglmDmG0blNRVOeWB+eNh2e9iQydEdb8sbSzepCXREew8zkcgBD4P92wYKDVc6SCbUXF1QMClo3HvCE/3yGBuRTJ6NPZerd2/IyW+/kjsP7mpPTNIIhCuajSEuEwgKL7/ZMB/g5LMNWve6NwvB+oAFmezZVuMDFqiQ/+R1rQ2SPacOO6stYDOQnzyYfzw0LjdHb8mn338h/df6y2TCYY6fJsZrDPM92U+54jCWZKI8w5Um+n9JYZhTaJWdK3fKOzvfkc0rtkgMJLPQMecyxsqvt4DNSjqYkmvPrsiJ/uNy9sY3kgqOQ+2nD1g03NdMHn5QIlTNhEIMoYTwcjMW7UyomWxYtlnaSh06ARvi+uQU4PK3WohiKJRDICHohCCGQDxrh42KSriSGLSU56mXcu3BDTnbf1Yu3QL5pkaFRaoWn7gzx7XrBjAfpGImUY1G6usDdtsuWdG5XDeuWYIlGVhSpHMjaiaudlIL4/Gu3gKWjqLYQO+PDMjJm6fl8wufGx+wHplwaZ8e6hfK5Cvlymi8tII1ZUcL2OZSi2zu3SSHtx2WAxv2S0ugWU/6s8TnhoWE+ZAvABWJSueuYVrAjgVHZCB5X/5w6iM5f/WspAspCUXpcmA6RMJ7a8PcQSfs2IVCKDl+bQ60qQ/Y99/+QNZ1rVcB0ONB6a8YSbGNaqJAaHSePDB+dRmAMiiCQMo+YMM8vHxUrg1cl1PfnZKzV8/JeDEtEocwRTjmN1ajJGEo/OQj9HRonAj2XaqleGE2oOTnBMLmQ9+JPzh3NNc+YO0ELBslJ19pAcszmJ+knsmpq6fks/OfqA9YzpkQ4RDSFAyVnUqbcqsO8w3uhtaJVNYXCJjk2yztGDqvl59zo9/aXRj2xKUpkCjLzULGnM+hsKDotCZbNJ7WqIk8Sj6Q333+r9J/73sZGh+CMGS1MagwTVJo7rhwSgtJD1bQXcyoYUFroM8RzqP0NC2VXev3yC+OfSDLW1ZIC1TTML2HoYEgI8gx1er6fLi9CfPKsmH6eD/PFrbLfiSUQjGLe4qSBKl8h+HgJ199Jrfu3ZFUYVwCCZSntyxsDP6QKKj6HCahyZgXAPZtrhpvy8OlX/tEY3MoFU3CwMTEYRrJQT85ET1NH7BKLIzHJnCKxsNJffqATWfGdT8QDdyS+DdUGJF//fJ3cu7mt/I4M4BkoOfP5vDGyiQlyVfrxzGKK8uJc206mMn8CVFAPeYwnA1B0+Th93TTuKZrjfzHD/9eljUvkwQ0E/UvrOULUpyMcYHXPYcy54RCS032lsF4WA8uv/K4Xz4++ZFcedgvQ5khKdCBMoZBhLGCNZnxKxAXjRLKlHC1IrzbJaCqygehoPOT7uYOYwG745is7V4rLdIh8QKd2KBRoCLM44yzviIMoVQaJAlFgV42oOb03G9ifMAW1QfsiHx/+7KcOH9KHgw/1jmTNIhG7UvwNC1g1VIUeeAeIvUohjTTeI7wI043f7XwI5Rq+fWrE0+A8S4lCJThq/iAtdfdd/nlg5PVZO8ULWDxeD4alGfpp2p28M3VM/I4OSC5WAoPQ4vLm96/FpZoq8qkQULxI5CqdHpyVSVPXkN1NQ1aNIN5MQwrSFegS+dKfn7wF7J95Vbdq8MyVe+DXtz2vWV/wjWgtjYR5oNQGnvDK4Dr6Tmo7UomA5fk+PnP5NLdi/Iy/VKZmWDPHinRE3dYiWQqMnkdiCJ9PNGPZHJw8yFZq8OcVm00FFYWuxkHc97DvxLYOM1v5ndqJiQBaj1BlRSUlaQlH8ujd30u36CcPv3uhFwduGFWcxh/GLocuivKhiusJBEdUzfYIGYG/3wpoZUFz5DKfPiAVT8nwaiMQw+5O3RPvug/Iedun5PB8QGUpPEBG8hyNW5hzMvVrn4R1NbCRWgmwU7ZsmqHHNv9Dj63CgY5Wj4EZUaJwpOrichkIWDOU8a1dW72o2Zy/MKn2nvQv0k2SJN69Mwgj7CSCafo5rIxvBqi4YTseGOPaibrezdJc7ENY1uoo7pLFsWIylb7FARdCUK+a4MKRFkwOLGLCkAwpGKu89lhkMfFe5fl8/7T0v/wqoyWxnRD2zi6fT3ygiMrxscGrnEtBJh0sBeeLx+wGjCcfjz2Qr4BkXxx6QsZ5DAHmkkgYnzA8gB5HgfiBxLyZBrbbMJ0Jt4fDkiszcEWcwjXrqPqA7Y11K7DHP5GGWE7YcdMUrFkstAmYy1mTCg6Ow2hVtNuXtAeg32u+c36gOXy3UOon/9++iP59vJ53U5vfL5y4pA9O57h34xi7vltErAX8CoeX/SoBDaAfByqZ5usbF4pHx7+QNa3rwOZNEkCfYj6+AURBIsgRnwGaAOCwO9FWrc6gfHTerMcoItwqEPLX3qly2M8RQ2E+3Mu3rgip8+ekhu3L+lkdSQR8dwiUKCQrALVfRcc6swCsZCc3MBLXoNnnWoviXfpeS7IY9gGlMOs+oAFISFW7x7zXgbXB2wG5PoyOCL38wNy9ta3chKaHJfVcxgSctjC5+kDVkA4dPHIgrON2q9xzwq5sHy8wLhI+jZoHlCH7sQvybQ5kJB17avlw33vy8H1e6Ut0IwhNDR2RMP9TrR74n2283FliZ82WDmjJkbLavWVg5IywTzbKCYqo0Yw4zkUEgkPkWLBhcCmzDyhFQ82zQRTkiwl5Unuufzm+P+Ti/cvyej4CLRUPIf7cnmetsaVDaP2GbUOmdCCmhqzO4fCwP/18Al8QXrSaBzQnDpjtIDdIX/3s7+W3liXNDGvZTsTVrTJt1VLzV9GACrgJGB17ZBQg+GwpEEOAZBJIBaQ4cKQfH3pK/njV3+Uh0MPodnldBJWImgcSJkdztAilpVdG6cKnfed8BOiyRrNRL0e30UDRW3ymmfUGYqM7implmtPCgKeDR+wmgOUO//g+geXhXmv6wOWdT8UHJOHxYfymy8dH7Ac4uh+BpRPwUyga7xaKm7JGLj5teXSqB1Kdf0aeHSpIImoQywEpoOx0vcrzeWjdBgFcglDBtZ2rpf//MF/ldXosOJBlJVqbUYzUQLBg7RFMrB5MO9hWu30QB75pQ0XFze4kmUss81vRg6gzZVlVT8mhq0jQttH43glQikwoygAtYCF0Oh1qvuxggwVX8j1R1fki4tfyndQ319khqRYQMPyxvr8TstGwlSsl/BGM+Bmerqoe4f52xIKnf3EoIXwnJwDW/fKO1BFNyxdI025iMTy9ZN7/mmuvqZ5dO6jMRu9qKlRW7wkw9mXcv7KOfn09B9l4MUDSfP0/wgIBcQbiEZUMF3YmOipzoUr6NMllGoY8iD47ooPWDPnYyx9+Z02RhiuZsPz4gOWu4a50W+gOFj2ATuWTCpZ5fPsmU2i7aeNu1H4EYofefjBJRTdc4U+j+0kggLUVRoQSiGVk3ggIm0trbJx7Xr5xZu/lN2du6Uj36nP+c6BOXXPw8jMJzupyg/UftimoKbo3zTHN/Y8Nj4SivlmCMVNrUWNkCnMXX6/+GHGhMLXGOFgT21ep3YmwYykwym58vCSfHXppHwHtX0oOybpUuXgctszLARCqRI4CjPyw/FrX/sK2b5uuxwEoWxesUFtAbh6wcZRgU9afdNvrtl8E1mQcQplwnNxRtLDcv3uNTl+5nP54fEd9fDPfTs8DoNlTAFw/X74wQgJ3uHU5mwSCntbC0ahjQTZIsG2YAC4snO5WsCSUPpAJtwZG0WZ0ZyepEMwjRUdroLqRo/fvXowxmvesLCYlvFSCkOdvDxOvtSNfh+d/72M4B8PLjcb/dBg8emCz04Hs0koDOwwLKFwSBjIFKWrqV22b9kqB/fslx1Ld0tzvgOdVbs+V70gYeIrr+Q5SaNdlwWHw9Ta2L50VSgPIsaLKW981lNUqurefrcrTwb1dWPT4PeLH2a+bKwNGgGfxhYirxOt9Pl669lNOdV/Qs7fonOkDBoOCrdgGNTOtmvBeYL0ugml3Bi1tw2iMcRk29pt8u7eY7Kmq0+aizEp5TCuB6GoOm7hm1b/a7U9Tw5llgrSCXdG7j24K+f6z8mFG99LrDmiGwDpha0E0glFQ+oioVGhdjGbhMIjPHRZn0DZU3DZUJpQZhtAvge37ZPdIJQVnX3Q82i0xr05Ub3PLAubZ6cmFAM7pOTzPJgqrWWVkvujA/IN5OrE9ydkcOyRBDFUzEMzoQ9Y122jJe/XTSh8lPMgDJxniuRCsr5vjRzdd0B2bNgqgXRcQpl2XG+BjFSXDYfRNh+23swqIT5BHkW0JdtJh6D1BDHMSaA+OiNtujxPMtH7WXeQNzWCdLPHFbZKkrXMCT9Sq681f7wyoRSQKZqk0zhtPJiUgbEH8vsT/yaX7vYruQQSUUllciAUTkoheCbiLDy3xy7nzLeR+uAVCKVKgPG9QihG20oE47Jr8y71Isbt9KUUesgUrRnZMGhHYe438Emvbx7ceRR6LcM9kZAkocrfunNL7jy4pcNFRg49T4IRNFg0FsZV9PY3WcGufr+BH1E0ep8/PELB+61nenUjge+c8yKZcC5pWbRdfrHvHTm67aB0t3ajdEAi1DDQQ5o9XCxTzneZ5jb13BfuYp2woXh1nAvnJFlKy4vcc3WORHP6xyNP1QcsXYaSBLjZz5IJ8boJhfVr5hlJiqwLlBs0h1KmJFs3bpXVy1dIIhyX3BhNElpQZk36nuo2gSLQPzk/p38qLKkUioVyniPhmIRCIWkLJ2Trqk1qQBiNoC5C0KpBtJEgnZMb2S3PpXidu4UllGqYexo9VP2Vhjy0gM0VoZmE07o0fG/orvyvX/8PJRXujuXwRz2bU0kmY6LSLaMSC4JQAF3SBSyhUDSiIVQGJ8/QeDTdqFHuS9H7kAXb2Orhf80lEz7LbfIUFjZSrkxwLw7TpRoTtD29H8MeMyY2/fq8E4qXF0sopSK1JTSAEN0QhGVJa5e8t+uY5wO2Y059wCaD4/LbE7+Tb298LY9SDySVT6t7Ajc+P9l6XYSi9Yio+GkbKrdu8HskHJUw6l/TDuKl20mWGWH+r4DzSKbOKh0fofE7+SUYX7wAUom0SE+0Q9b2rZON6zfK2mXrpbvFTJCrAaZ35pW6E0U8FnNCKG5zmCyKHNcdkMFADL1scEQP4eLenAt3v+MZf8qiapcBMtGe3SOUWlQamvdmJ4NlOBn1i2O6cBuVZXtCiQKfbEoqDPikuq8Tp/wdgY2UgbmqNFifNPvkg8Khb0B+tPKUoPhGBqbLPmOIRYFPfSeuTUYojcLm3RVOv/SbsjDXeVaO8QHLHo7Dwhi0tz7Zu20vCOWw5wPWGPiZBmlWfqyAqgpd/m5ebNNh8mJ+I2p9wJbiEXmReSa/P/Ox+oB9an3AqraL9/j4gHXh1u9MYcvdhW8dVL3LfHfLm/KkPm+8/PI3G4+Vvdrlf/O8o6HgHfrIBPkKYUgVypWkNdQsHbFO6WrqkRXtK9Vt5K4Ne6Un0SMB3GPqFsEnnro2Ccw5odDOhHYTuUhOD+GiCwKuUowVRpVILNgDs4ezp90Rfj1J+c1+BeUJIzEXhGL/pmrKVUcLSyh2QtLsp2D62GB80kn4VrS5Vun9GCGC5st+1qAcj/eJv+ebUOz1Ep31gEjUBQFIY03Pal0a3rtlj6xrWykRqPFm9csOY6vzMy1CKXFFJ68e1cbC4zKYfibnedTF+eMyXHghuXwSqn5SAtBOsuzV3TktH7xuQnGhbQDlUJ6LqoFb5i6sBu1qE+53FzzVoJgp6HCKJwryBM6WUKus6lotezbvk50bd8pyDOXpzodaZtRqkA5eC6HQaG00lJLbz27Kie8/l2+vfa02E+asYbOcyKAqPSJiw5wc3pv9CmqOCcWmTQ208Hq3l6C/kmpCMd8nhk/6vTzZirI9lClhBI9YXMG177GCQ6GaT0JRYPihQKOlJsDVr2XNS+XYnmNyCMK5rnMNhBK9XbqEsjNaHdVuG1t5KDkFoVCTKacL9cuxfQYa8M3kHTnzwzforD6XQQyjJZpDT5aWUprnM0elGErgnZP7CHmdhFL/nKlnd2WlLIu2nvV/D941c48d8rjXqmHaRlHyIOVIGMN1GmdCeI3zqqhOmO/btU/2bN8ry1GP7YVWaconzMMeKmRCVPLTMKGMjo5W5cEVAla03SikmUEGKeC0P0mCUH4Yuye/Of4vcuXOZZ2ApfNlXZ1AxuyEHLWTPErWrwDcBJdRVSkeHEKZbZBMbIVRQyGh8DsFhtf5uyUcCkhFkHjRJ61lTPYbYfOEz6r8me/mPRXtyfiinR1UkwnzWZ9Wvo7lYSZVMcyRuHTFuuSdfe/JW7uPyrKmXolDSHmqX248699Iala2eHIIoeWKwD/1HGh8I8mq/TC0Xh6KT899Jy6dks+g+T4eG5B0cVSCkH3avpTSWcnmMJCON0uRVrCTYDb8qzZa9HaIaGC+V5MKy6i2vgGUv+8rvHqx8ln5TrjvqqAAMrH1GQbZsv5MWwxLCXzc0dQu27Zslw+OfCCrEyulJd9UNqYLB0xZ6uoR3sN4bN79SNUPNTmbGMpcIRQZuul8JC+pQFI+/voTufb0poyUxiWNjGTzYEdkoDxUAEFyN6WfwC4UWJKwBcd0UyXl2TFGNTWkqsSqgmAD4f5dGzgEsMHvN/u9FiwrQ9wV4Zk91JJJLfhOvpvlkkALbpVmaSs2y+rWZfLne9+St3cclO5wm4RSEDqE7Bg0UjxknjPBD4yPgloPI7T8nQSWC6RkJDosv/3+t3K8/1N5Mf4ExV7QEwVoXVfE0KoUihkyabDXfB1g2lgWtkOygWLGOqgErqJVys4vGDCvjMAGyFBN4KQ55ZR740KqVfIZvhftEkRdiBZkpDgsVweuyuff/hFDSHOqBBWBcASkgiJmOw9yiOuh8v7GMLmGosMWr2CggtJzGE/3f5Z8KidvnJaPLnwqA+OPMObl/hRGUxGYsnpf7iFM5qrhJ2CL8EO1Kjo9VJGID7m7V2hTRCGnZ3oSSSwdkpVLV8murTvlwLZDuuOaRn5hT41m3JQPv/SZSegK2NVQrrRx8Rlc49EgaAaQExraF2Uw+EQ+v39CPr7wsTx58kSXRo2PYQyFajQeoipvPrAaSqNaxqvAfYffzmJFuVOymL02UGlr/vXB33k9EglLX/MK+dm2t+XYG0dlSetSiWE4C33TVAzSRxnQZW90ApbwG4FfK68DNxrlijkdzoxmRuXOo9ty5twZeTn03CGTavhdW8TChIo4BF3VXqrHnHxFCFsfsFvpA3av9HQuNUvD2iOaOZOGAQEl8fg+w146mNOzmJ8OP5Xv+7+TZ8+fKZmQgBZlqTGQLGzwA6+zLOkC89mLp3K+/5zcfXxHkulRyaFt52m5/YoENzGhKJOa3scIAl4Eqnoy9Fiu3bkq9x7dk2whq4Y1ixX+Jw7UtW7wQ+BYm5oHN0Yu6eiV3dt2qUPpFZ0rhX6BadRGR0zBgLGjMMFfgBsDOySo49B+hzIv5eaDm/LDgx8kNZ7yZItazcSNZBHTQ5lU8ll5MHhPrt+9oucUqbU7/hEscw5PuWt+uppdPaGQSDwysSCZ0Gw3H8nJDwN3pf9Wv4QSHDdPh814b21YxLyA9eSFutJnXaPHUD+wPMQ9b33A9ugmP+MDtg/jcmouxjGShZnnKcfUAHivNTSjRmS+UZC5f2lw7KFuP0hlx1Q7ydODPXpT3VDqM9xZaLCdL8PkqKuFeYWSSqikzrqu3L0s9578IKVIXudHSSuvgjpC4ViJgeqvBYVGPa+PPNOXDww/kCx3gU5LmBax4IA6tnVdohuRTFCiuagsb+uTt/e+K0fefEt6W5ZJjHtyvJUCfrqy0Sg41GGwcwvlMTlkiJrui9Hncmvwulz74ZJkobHwxEPa7SxqJnMDEsd4LimPXg7Iw+cP5XnyBerBOD2bXidRjQkko3LZaCd4fSgvj148ksejg5IqJYUHclM4/NRRv2uLmB/YhuuGOlQJDFewjPsJTrSu7FklB3YeUs2Ey8SxYlztT2jLYOdZLKGobHiBE7C1oR5WoykYEsNXqt+8NozhzuMxyBZ3WnMyEBoJA3t7+n9haBR8tQ3Ugqarts8KWEZ+YYGAZc5ja+jY+/HIY3n0bEByATqL5xDUBrNVZjpTGhPksJqhONwJRYMy+PyRaikkE2os090nsYiFAVXLPU2BIsDGXeUDdvteWdbeq2fpqMtGhEApNGPtxABkou+syJbLOUPJYXk6+kyXMF8PA/y0QEJRd6UceaDcB6EsBCKo21ccWk4oHXyhDaYXCoBMnstwagiVngO7mWMeFvGnCFOnBA3S6AN2Wfdy2bNzn/qAXdVmfMBG8ua8YQ51qMHo/hxOynoaqBsagdVmCMsZ2vvhj+HUsDwZGVR7CcrcIuYWrAeSN9vyUPKlPB15oeZRRrucWf0S9YTCynQCexUoP7psPJ5JS45bsAMhNWaiCueqRVY1qv27DjXvmDIsomFw0yLLzHYG/E5NQPcpofOnJXAsH1Q7k2g+LE3FqHTHOuTIjgPqgmB1G33A0pGUIRAuI9pZf2LCIdRUATDzMBw64RLipV2KdYmQGs/K0OiYXvV9xyJmGRjqcrUuGJZ8saRtO0M3kjS98+rMyo+tv0bQkP5KhuJW/myGezvCkoi0QrK4e9j87mJCElnEvEJXGlQQTOBmxnApL1GQCj2s0WitA2Fla6/82Z5j8tbOQ7Is0S3xTFgi4wEJplCPjksFYur5mIlhl6Q5fKLXe7tfivKSTuVlJJmSVArXPBuXRcwttD7oCAvD2lxOJI26joRoeu8sFbPuva+Noq7mKDRGcChMekkBRQjE4lV2ib3MPFY8hbY2LKIaKBP2+O70g86VeHXImuLmRlqmcmcwLWBXdSyXQ1v3ySEarUFLaUaDp+bCEMFQiJqNHaaYoYoNHiasB/deG5AGb5WoMneCeJFA9pThUAy9ZRQEQ/8zgbIcusEPjKs2LKIBKKFEUfYx/c7A/VRmeOPU94R17I8JGKE6Et2rgdeFoB7xEVrHTmdctYj5hzZC1JV1jpRDZ5BBgy0EougrKhawDD2dvRCuEJ4y4jBR4y2DQjZNQSNIbmVy8JwtkwBoCp6IxiQG+VokhPkDa9DUNeu9EmwnNBNMQCim8l3QES7HWwTdONIkutYH5iIWDlh/6i0PIY96y4boJAkaQCgq3R1LZeeWHbJz8y4QS5+o13r8s5vJ3GFOFWZIJBZMUzl414hoOCKxSFSiULldDWsRc4faTkOX8fmP12lIWJ6MnV59N8wIRbyJvilJKhz3LmooCxVGAHR5Fy23WITmQZ8leTbWmLRHu2X/9gNyYNtB6eteKeF8VE3qXQtYi1qhexUwLgbdcevESzmiTNGtZDSMDktdXi5iPsAJd07CcuQREe5Wttd5HsUkiyqTYAJC8b/c3b1U2tra9EUhaCeLpLLQUN2baK+TgWapJvUh3Sl8bO8xtYBd1rpMrWJ1f443t2FtTMyciX6dVVAz0VP08J0rhTzVL5GISxjfmxMJ6WxtQxrMMGgRcw9OY+RyOWlHuS9fukwryHhYrJD+dO2OJrzbnjtrKjgo4VBIlvX2Sldnlx5XEGJvAljVyA2vBorbZMGDVb9/KmE6QH1x+ELXE3EMc7g8vLp7lRzdfUSO7nm7YgFbjKmGwnspONXCw3dO871lMJ7qwJgoqBpwieRCFHgaQj4vnW3tsmzJUilhOP2qsHLLsAh/sJ2GMAwOhILS2dElK3qWcdBrhqNe3VAepjvRzdqeEtxTEYRS1LusV0MiHpds1hwlOv+YqZD/+GGEwZQPfeNG0HJpc7Kuq0+ObNknRzftl1VNS6SpQAtYaCfQSqihMEy3J5oprMBqoH1LEco15Kiro0NWL++TlqZmFWwXekQGAu+rDYuYGVh2LPtoNCpLuntkOcg8jFFHbdlPFw1LEapP2uIdsnTpUmlvb9eDlWoxfxW9SCq1oIrqDlWoVXJcvLx1iRzc+qYc3rRHNnaulCYMc2Ic6ngWsAy8128OZTbBdFki0bR617ijmMNnHs25HBrwit5lemDVImYHk7VJln1ra6sSSnsrj0HhSp+pl5misZorliSQy+sp+qtbV8rmrs3SEWjXHtA0bghyyaiq9G1hVwnKqwUMU8LEs4gGYMvUDbzsEUMUWkkztI8l0TY5tvuAvLPriKyip3OQRyRIL/Gm2i2J2KGBr2pb846ZgnHrMETP36W8mPgovBw+xwPN0hNfLjvX75bWYBO0JmPda9PEBlGl3XjBTiC6E4nu79OF++xM43DhF1+jYSaoPF9pf/S2iCvaRrWd4lq0GJKuYIds7dkqfa3LtS3zqHIzzJk5oTf0JG8KZ0ViGZE3WtfK4b790hvsVQMoNaZiYgs5yInRWiaaR7HjWuP8eDE0EmyZ1YZasOFFwzFpCiakORBTC9if7T0mf7b3LVnS3C0RkAnnVvJ587BqCUoSDBVMZ7xs0cgzFFQa1pEobPq5g5hm99kM5CcTkBWJ1XJ061FZ1twDgccYn/dz8t9b+anvOSmZ1cH4meX8nhfUALM+0DCTaTJDPRsahfuMCTau2YpPQ02aNdTcU/1OA1O3JujfKOdcnucd5TlLgvtBKPmwLJOl8ucb3pPtS7dICE03WCiVZc6aELjxNoK6uykctQLCyT3uAWkpRaVLWmVjywZ5a+sxaQ616sYyMhozpT4s6EwYCCJVNrgTtsbHBTeYMVSuNxp+Gqg08nJdsPHbABjT9UqgEHBOJJgNyKqOPjm8dZ8c3rJXesKd0lyMogdiA4pAuCBgjp2BDRw72+9owuXgBwqbG0hUVrAnCsyHkqR+8m+KHmWGe3fwWYhLotAm3ZElcnQnNKq2JRIC0WTHMpJNoycj9BnmXT/84d1TC/O2SjAw30x8plwNqsu2HkUtLzeYssO3clkaudf5R68dlIO9jmDjaxSVMrXpNnC/u/GRVIJol7oqS2JGh8Kybw+3yXu73pUNreultdQqMZAVbZG0fMpxmX1VlpgaQehXv/rVf/O+G1gJ9jJrVdMgEsSVHooZExhuT8izzLAMZzOSzyKRQYzYIxHNix75oPHwWcSDuAJIlU1cJX38xgu8335WLvsFTZ1+x3/O9R9XsOUBlRVlWaJVKa6ZORIbWBKoDXywTMOFiMSLMVnbsVb2bX5T9m16U1a09UmilEBnEMHjZrsEPQgE8UC1ABqYOGvgc411WYv6K9UwsTBP+kXfZcmLRpIWzFtrc1yyqYwkQSbJ8Qy0DtyjxKN3IO1GhQ+AHfV5XKsENnbz2VjgvTTUNJ8s8/I1/Z3Nyr3fXqt9B7PGz6njq35ugmsosPr3uoFx2uDFrXLCBuj+xonWkERDCaiEtEmKSGtTt+xZv1/e3k3ttUdCIdwTZjmiHlDItn7N/wZ+de6HKQmlLAr4U10l8IUQgEBLVEqtcRnLZ2U8RXUK6hIIp4BhD0QfDzBjHALxIQoMPvkVgWmrCtpo+B1FgPfX/e4ELjvqGBERVcaLP7KA8iiiHMx3j0DQvethX1quzL0BxYDfE6WYrGjtkwObDoFM9siarlUShfDEuDSMoMeI6gSsFbR6zDehEObPytNB5K0lGkdokgIqeySVlvFsVu1X1C9PiY01iye8MlDRMmVSboCM25YTOkReQ0mWA7U787wJPKbDfGfc3jU0ThNfJS6Nz7vmvsPeV44Pz/rFZ+6vjs+kiWVhv1fic++zcVfdV84H2gwnQLz38n7KjG131Jki4SY0nqg0xztl/eqt8rMDP5MNS9dLSyAOsjZ3GfCztlbw3afO/VB3jIbJJIAegbAaCjPAstDjDqA2vSwmJdsekGuDN+TM+TPSf/2ijOdGJR/MSA6hGCogk/QAhexA1TbjP8RCndvCvktRec9UMDPWJn0/TnhlwPJRVQJlTzb35hLow4Rqr67S8F8oIj3RHnl393tyaNMBWdbGYxHQK0EzoVF9ENoJzydmf170Juj8NBSdQK+BPVbFRWV8XcFUtWFisVoG4cZbeboQgPzkUxIIF+T203vy1ZWzcqr/KxnODUsqmIY8QaZCPOQbN0NG2fyo6bgIOX/b1Q2//JJsbHrKecenxu3APcTMguVeC20fPvHVtUVnWFZpDz5l6txnMWk+mHZ8mPRDRjhvhj94JCkGlBJF2LJ+uxzaf1T2r9klTbmQdEgTnqHvXg4r+b76dxJ+de6HaRAKUAQL4oXcLJgGYaRLaSkmAvLo2aCc7UfFXzgtL7PPJcnD0iNIJoQim89JLBLXQqQXc2tPUA3nHfa7TUcN3OT8qOHlPxBC3+GRSjGHADIPoudOhNDjZEVaEu2ybvU6ObrzqOyEkHSFOyUO8o6BN3jcBU/m4y5xc4Kjqc8QwkwJhY3GbRAWU4mbiaUBQhFotWwYgbxkeb5xakTuPb8vv/7DP8vg6KC8KI5JEqQjMW54hDyCaDlvZy23S1xFckBZ0zTXwM2/zbdtlIReQz7r8oVrjC+o6roH75qFLTP9343Pp5R0t3UNIfI+v/qpvca2ZK8xDjoD4GcOowVuZwhmUDY8OD3SLp2RLj2PevfmXbKie4Wu6rSHW+hGS5/n6qyBf03OnFA8cM6EIAmUC6WGTUNRDHHwL1lKqfu+m4M35cr9a3L5h2vyNAliQeVncpB6VgzGaYyTE7f1HsxN/JVPwHunH9S5048dyD+F0AgbeiCWPfINHlcz+eZoq6xeukY2r90s69dslLVL10pnFP1NIQFhMY6U7GQ5Yc+XLqE+OTFaaQATlzPhRyhuz1n5tXKtTvC1usyddb11DWzVcnkzBCEPFLJ6AP+tR3fk8kPI1uBtuTl8T56nhiXPDrhGluyKUBUowzUwqTXXbfpM2txrNi+VvBGGZmquOa+tis+2Hf3fovpZU8d+8dXcV5M1ndjFCEAXzJFvGqoVkNdwKKqLJU3odJYkumTNkpWyZ8NutZam9toG2WGnpNPHVnHAc+W3kSC9eS2rUNS+eyLMkFBMoUUihlA4vs1KRkbTY/L45aA8fPpQBp4MqFPrl2MjMjj8Ev2OW6Q+39nbKNzf/PGTGfIAJBUKZiwWk9Z4u7TGWqUj3iHrlq+X5d0rZWVPn/S0LZGmSII367IsDy7nGcC24VNUSCYkFaOhgJR8GpkfZkIohF8DI3wJxZOvahhNiloxHaTz8PRHw4/l3ssBufXsntx89IMMQXtJQovJZEwo5LksindrAzVwe3EX5pp5r6YPadC/vLTYdGpDcvJL8C82RhfuHTYeP4JS1MRHcIXIhUlf9TW3UduGXskb4yxKJBCRFV1LpLutS3q7lkpv5zLpae+SlUtXohNqhpw0Y+iD4S8UEjYj+gq2KMflpG/eCIXnepiJH7NjsUTKAEuG8GauHL8cGpInTwbl0cgLuTs0KCNFDI8Qlxn2mAPVifLkllfwBu73evz4CaUCCiWXeROJJulq7pHOli7d5Ld55RZJBCAcBXp/jUJg0UPpcCGvy7MkFFtGFGaSSR71wvKn9sJ7GsFMCaUe5s7a+Azq30GZoIBz4pHpZyiES5Iq5eTZOGTqyQMMgZ7LSGZMUqmkJMfHJJfNqibMtUgXk5GKaejmHQaOZuHlU9NTBvQTEFbtNf3fia9MnIhHc+fEVw0zVKtGJb5amPea39VPEepT116DEc17Mwhlfc8yWd3TK0uXLJPW1nZ9L30YhSM0bIzrs/k8tN8il4nN3CZRft+rEMrIyEjdrfUZNCB1WJBQCB5PSnWLBaYVCVU1DHUp7G0eTJYyMo57KQxBrg4x8/qLBRNsEl1B5T1+4Lz2TweceDRg2ZVo0ZiPSBjswONC2dtE8H8ohLEzV9VAKNzH4woAhZsaIrUUXRnAb6w+S+oKX2Hns9V1oyU/QcOoR+XZcgOrq2sPte9B0ijgZv4IEoEIKGs6dKMjawz9lSSh2RaK7KDMHABVeMrfZPBrqJYI/FEfX3Uc1b/bORnC3DZRvAY69PC+V8PnvQiMjS2J/9tP7otifQZzRYkhNHlmHNR8cgWUm7fpUjUh2otpwvi8QyjOPIklEgvWR5W8TABfQiH8SMUlFFvROp/hIwz6PK6jqlWQudxrr/lj8kJ38VPSUIhyXbAho7ypIej8CASA362Kz8bPr34lU/B6epYzf/cVEB+imDdCmQB8zKaSmgbTw3zwlDtqO3pej5NG5qlWdplXP1hSMOVi/2Y+zDtcTcyFeZv/bxU4WkoNqtLjpd0dpvmn153Q9lCVPvOdKz7sLDj0ZTlwvpJlVNtm7JDNdZI274TiRwZ2gtT3/jlAJVNuYf740Wj5Ugssw6kvHboC7pBDNUsHxnp1eqgIud+zrrzUyA7TNun7pkqLF5+bxwkE3m2sLvzy67dE7KaF4l7bsGpyNjEseVQ9jk4Ajb76Wj0s6UEHMV+qYK4ZGakuF3PYvHcN+bVpt/LkGhW6eG2EMrlQzD4WCWVy/EkRCjHhO6dKi/e8n0z6wK/8fAnFLz3ONc4X1mIiTaQeJq1+GspEgx6LRgjFwHuHc8kllFrMNqH4x7aIHwV0AtwLFiQRG14L2IBcEmiQEH7sYGN91eCChFBLClPBPuM+N1H8E2F6hEKGqw2LWJCwB3MR1ULBOpsoLOJPGVX17LVPFYMG2uqrkIiLRSlaxCIWMWuY3hzKAkCFNX9aXDjdORSzjGhW5dyexo7F/SYq/VcX/DBFb1eO2lW53e+NYKr6nV589dbZ/vmd7zkUW0eN5tb4e6mBlz6zHaC6XKaSG9ci1sqJ3+T2VHM8BiL/H1yNDDSeTA+6AAAAAElFTkSuQmCC;horizontal=1;align=center;labelPosition=center;fontStyle=0" parent="1" vertex="1">
          <mxGeometry x="470" y="296.73" width="37.08" height="36.54" as="geometry" />
        </mxCell>
        <mxCell id="TbkNwsjUBg2xAuDk_8zu-30" value="Decoder" style="rounded=1;whiteSpace=wrap;html=1;" parent="1" vertex="1">
          <mxGeometry x="760" y="419.5" width="75" height="39" as="geometry" />
        </mxCell>
        <mxCell id="TbkNwsjUBg2xAuDk_8zu-33" value="Detected object&amp;nbsp;" style="rounded=1;whiteSpace=wrap;html=1;" parent="1" vertex="1">
          <mxGeometry x="850" y="419.5" width="80" height="39" as="geometry" />
        </mxCell>
        <mxCell id="TbkNwsjUBg2xAuDk_8zu-38" style="edgeStyle=orthogonalEdgeStyle;rounded=0;orthogonalLoop=1;jettySize=auto;html=1;" parent="1" edge="1">
          <mxGeometry relative="1" as="geometry">
            <mxPoint x="790" y="300" as="sourcePoint" />
            <mxPoint x="650" y="300" as="targetPoint" />
          </mxGeometry>
        </mxCell>
        <mxCell id="TbkNwsjUBg2xAuDk_8zu-55" style="edgeStyle=orthogonalEdgeStyle;rounded=0;orthogonalLoop=1;jettySize=auto;html=1;entryX=0.75;entryY=0;entryDx=0;entryDy=0;" parent="1" source="TbkNwsjUBg2xAuDk_8zu-34" target="a4PPue7s8mT2QeJeuBxG-5" edge="1">
          <mxGeometry relative="1" as="geometry">
            <mxPoint x="400" y="170" as="targetPoint" />
            <Array as="points">
              <mxPoint x="880" y="40" />
              <mxPoint x="398" y="40" />
            </Array>
          </mxGeometry>
        </mxCell>
        <mxCell id="TbkNwsjUBg2xAuDk_8zu-90" style="edgeStyle=orthogonalEdgeStyle;rounded=0;orthogonalLoop=1;jettySize=auto;html=1;exitX=0.164;exitY=0.98;exitDx=0;exitDy=0;entryX=0.635;entryY=-0.001;entryDx=0;entryDy=0;exitPerimeter=0;entryPerimeter=0;" parent="1" source="TbkNwsjUBg2xAuDk_8zu-34" target="TbkNwsjUBg2xAuDk_8zu-30" edge="1">
          <mxGeometry relative="1" as="geometry" />
        </mxCell>
        <mxCell id="TbkNwsjUBg2xAuDk_8zu-34" value="&lt;font style=&quot;font-size: 10px;&quot;&gt;Video Processing Service&lt;/font&gt;" style="rounded=0;whiteSpace=wrap;html=1;fontSize=10;" parent="1" vertex="1">
          <mxGeometry x="790" y="290" width="105" height="50" as="geometry" />
        </mxCell>
        <mxCell id="TbkNwsjUBg2xAuDk_8zu-99" style="edgeStyle=orthogonalEdgeStyle;rounded=0;orthogonalLoop=1;jettySize=auto;html=1;entryX=0;entryY=0.75;entryDx=0;entryDy=0;exitX=1.006;exitY=0.662;exitDx=0;exitDy=0;exitPerimeter=0;" parent="1" source="TbkNwsjUBg2xAuDk_8zu-37" target="TbkNwsjUBg2xAuDk_8zu-34" edge="1">
          <mxGeometry relative="1" as="geometry" />
        </mxCell>
        <mxCell id="TbkNwsjUBg2xAuDk_8zu-37" value="Kafka" style="sketch=0;points=[[0,0,0],[0.25,0,0],[0.5,0,0],[0.75,0,0],[1,0,0],[0,1,0],[0.25,1,0],[0.5,1,0],[0.75,1,0],[1,1,0],[0,0.25,0],[0,0.5,0],[0,0.75,0],[1,0.25,0],[1,0.5,0],[1,0.75,0]];outlineConnect=0;fontColor=#232F3E;fillColor=#8C4FFF;strokeColor=#ffffff;dashed=0;verticalLabelPosition=bottom;verticalAlign=top;align=center;html=1;fontSize=12;fontStyle=0;aspect=fixed;shape=mxgraph.aws4.resourceIcon;resIcon=mxgraph.aws4.managed_streaming_for_kafka;" parent="1" vertex="1">
          <mxGeometry x="572" y="276" width="78" height="78" as="geometry" />
        </mxCell>
        <mxCell id="TbkNwsjUBg2xAuDk_8zu-40" value="Redis" style="image;sketch=0;aspect=fixed;html=1;points=[];align=center;fontSize=12;image=img/lib/mscae/Cache_Redis_Product.svg;" parent="1" vertex="1">
          <mxGeometry x="740" y="130" width="50" height="42" as="geometry" />
        </mxCell>
        <mxCell id="TbkNwsjUBg2xAuDk_8zu-78" style="edgeStyle=orthogonalEdgeStyle;rounded=0;orthogonalLoop=1;jettySize=auto;html=1;entryX=1;entryY=0.5;entryDx=0;entryDy=0;" parent="1" source="TbkNwsjUBg2xAuDk_8zu-42" target="TbkNwsjUBg2xAuDk_8zu-44" edge="1">
          <mxGeometry relative="1" as="geometry" />
        </mxCell>
        <mxCell id="TbkNwsjUBg2xAuDk_8zu-42" value="TV360 Customer" style="shape=umlActor;verticalLabelPosition=bottom;verticalAlign=top;html=1;outlineConnect=0;labelPosition=center;align=center;flipV=0;" parent="1" vertex="1">
          <mxGeometry x="596.0000000000001" y="418" width="30" height="60" as="geometry" />
        </mxCell>
        <mxCell id="TbkNwsjUBg2xAuDk_8zu-44" value="TV360 App" style="rounded=0;whiteSpace=wrap;html=1;flipV=0;" parent="1" vertex="1">
          <mxGeometry x="160" y="418" width="120" height="60" as="geometry" />
        </mxCell>
        <mxCell id="TbkNwsjUBg2xAuDk_8zu-62" style="edgeStyle=orthogonalEdgeStyle;rounded=0;orthogonalLoop=1;jettySize=auto;html=1;entryX=0.5;entryY=0;entryDx=0;entryDy=0;" parent="1" source="TbkNwsjUBg2xAuDk_8zu-51" target="TbkNwsjUBg2xAuDk_8zu-52" edge="1">
          <mxGeometry relative="1" as="geometry" />
        </mxCell>
        <mxCell id="TbkNwsjUBg2xAuDk_8zu-101" value="defined&lt;div&gt;unwanted&lt;/div&gt;&lt;div&gt;object&lt;/div&gt;" style="edgeLabel;html=1;align=center;verticalAlign=middle;resizable=0;points=[];" parent="TbkNwsjUBg2xAuDk_8zu-62" vertex="1" connectable="0">
          <mxGeometry x="-0.2382" y="1" relative="1" as="geometry">
            <mxPoint as="offset" />
          </mxGeometry>
        </mxCell>
        <mxCell id="TbkNwsjUBg2xAuDk_8zu-51" value="TV360 Service Center&lt;div&gt;Editor&amp;nbsp;&lt;/div&gt;" style="shape=umlActor;verticalLabelPosition=middle;verticalAlign=middle;html=1;outlineConnect=0;labelPosition=right;align=left;" parent="1" vertex="1">
          <mxGeometry x="985" y="40" width="30" height="60" as="geometry" />
        </mxCell>
        <mxCell id="TbkNwsjUBg2xAuDk_8zu-85" style="edgeStyle=orthogonalEdgeStyle;rounded=0;orthogonalLoop=1;jettySize=auto;html=1;entryX=1;entryY=0.5;entryDx=0;entryDy=0;" parent="1" source="TbkNwsjUBg2xAuDk_8zu-52" target="TbkNwsjUBg2xAuDk_8zu-34" edge="1">
          <mxGeometry relative="1" as="geometry" />
        </mxCell>
        <mxCell id="TbkNwsjUBg2xAuDk_8zu-52" value="Remover object" style="rounded=1;whiteSpace=wrap;html=1;" parent="1" vertex="1">
          <mxGeometry x="950" y="291" width="100" height="48" as="geometry" />
        </mxCell>
        <mxCell id="TbkNwsjUBg2xAuDk_8zu-61" style="edgeStyle=orthogonalEdgeStyle;rounded=0;orthogonalLoop=1;jettySize=auto;html=1;entryX=0.5;entryY=1;entryDx=0;entryDy=0;entryPerimeter=0;" parent="1" source="TbkNwsjUBg2xAuDk_8zu-37" target="TbkNwsjUBg2xAuDk_8zu-14" edge="1">
          <mxGeometry relative="1" as="geometry" />
        </mxCell>
        <mxCell id="TbkNwsjUBg2xAuDk_8zu-70" value="" style="endArrow=classic;startArrow=classic;html=1;rounded=0;exitX=1;exitY=0.5;exitDx=0;exitDy=0;exitPerimeter=0;" parent="1" edge="1">
          <mxGeometry width="50" height="50" relative="1" as="geometry">
            <mxPoint x="650" y="151" as="sourcePoint" />
            <mxPoint x="740" y="151" as="targetPoint" />
          </mxGeometry>
        </mxCell>
        <mxCell id="TbkNwsjUBg2xAuDk_8zu-71" value="" style="endArrow=classic;startArrow=classic;html=1;rounded=0;entryX=1.008;entryY=0.498;entryDx=0;entryDy=0;entryPerimeter=0;" parent="1" target="TbkNwsjUBg2xAuDk_8zu-40" edge="1">
          <mxGeometry width="50" height="50" relative="1" as="geometry">
            <mxPoint x="816" y="290" as="sourcePoint" />
            <mxPoint x="800" y="250" as="targetPoint" />
            <Array as="points">
              <mxPoint x="816" y="151" />
            </Array>
          </mxGeometry>
        </mxCell>
        <mxCell id="TbkNwsjUBg2xAuDk_8zu-73" value="" style="endArrow=classic;startArrow=classic;html=1;rounded=0;exitX=1;exitY=0.25;exitDx=0;exitDy=0;exitPerimeter=0;entryX=0.601;entryY=0.005;entryDx=0;entryDy=0;entryPerimeter=0;" parent="1" source="TbkNwsjUBg2xAuDk_8zu-14" target="TbkNwsjUBg2xAuDk_8zu-34" edge="1">
          <mxGeometry width="50" height="50" relative="1" as="geometry">
            <mxPoint x="740" y="140" as="sourcePoint" />
            <mxPoint x="790" y="90" as="targetPoint" />
            <Array as="points">
              <mxPoint x="853" y="110" />
            </Array>
          </mxGeometry>
        </mxCell>
        <mxCell id="TbkNwsjUBg2xAuDk_8zu-76" value="" style="shape=image;html=1;verticalAlign=top;verticalLabelPosition=bottom;labelBackgroundColor=#ffffff;imageAspect=0;aspect=fixed;image=https://cdn2.iconfinder.com/data/icons/boxicons-logos/24/bxl-spring-boot-128.png;shadow=0;" parent="1" vertex="1">
          <mxGeometry x="871" y="320" width="18" height="18" as="geometry" />
        </mxCell>
        <mxCell id="TbkNwsjUBg2xAuDk_8zu-93" style="edgeStyle=orthogonalEdgeStyle;rounded=0;orthogonalLoop=1;jettySize=auto;html=1;exitX=0;exitY=0.5;exitDx=0;exitDy=0;entryX=0;entryY=0.5;entryDx=0;entryDy=0;entryPerimeter=0;" parent="1" source="TbkNwsjUBg2xAuDk_8zu-30" target="TbkNwsjUBg2xAuDk_8zu-11" edge="1">
          <mxGeometry relative="1" as="geometry" />
        </mxCell>
        <mxCell id="TbkNwsjUBg2xAuDk_8zu-96" style="edgeStyle=orthogonalEdgeStyle;rounded=0;orthogonalLoop=1;jettySize=auto;html=1;exitX=0.25;exitY=0;exitDx=0;exitDy=0;entryX=0.762;entryY=1.005;entryDx=0;entryDy=0;entryPerimeter=0;" parent="1" source="TbkNwsjUBg2xAuDk_8zu-33" target="TbkNwsjUBg2xAuDk_8zu-34" edge="1">
          <mxGeometry relative="1" as="geometry">
            <mxPoint x="880" y="350" as="targetPoint" />
            <Array as="points" />
          </mxGeometry>
        </mxCell>
        <mxCell id="TbkNwsjUBg2xAuDk_8zu-102" value="" style="endArrow=classic;startArrow=classic;html=1;rounded=0;entryX=0;entryY=0.5;entryDx=0;entryDy=0;exitX=0.5;exitY=0;exitDx=0;exitDy=0;" parent="1" source="TbkNwsjUBg2xAuDk_8zu-44" target="a4PPue7s8mT2QeJeuBxG-5" edge="1">
          <mxGeometry width="50" height="50" relative="1" as="geometry">
            <mxPoint x="260" y="315" as="sourcePoint" />
            <mxPoint x="260" y="230" as="targetPoint" />
          </mxGeometry>
        </mxCell>
        <mxCell id="a4PPue7s8mT2QeJeuBxG-7" style="edgeStyle=orthogonalEdgeStyle;rounded=0;orthogonalLoop=1;jettySize=auto;html=1;entryX=0;entryY=0.5;entryDx=0;entryDy=0;" edge="1" parent="1" source="a4PPue7s8mT2QeJeuBxG-5" target="TbkNwsjUBg2xAuDk_8zu-29">
          <mxGeometry relative="1" as="geometry" />
        </mxCell>
        <mxCell id="a4PPue7s8mT2QeJeuBxG-5" value="RTMP Server" style="rounded=0;whiteSpace=wrap;html=1;" vertex="1" parent="1">
          <mxGeometry x="308.08" y="285" width="120" height="60" as="geometry" />
        </mxCell>
      </root>
    </mxGraphModel>
  </diagram>
</mxfile>
